M48
; DRILL file {KiCad 8.0.4} date 2024-07-23T12:10:27-0500
; FORMAT={-:-/ absolute / inch / decimal}
; #@! TF.CreationDate,2024-07-23T12:10:27-05:00
; #@! TF.GenerationSoftware,Kicad,Pcbnew,8.0.4
; #@! TF.FileFunction,Plated,1,2,PTH
FMAT,2
INCH
; #@! TA.AperFunction,Plated,PTH,ComponentDrill
T1C0.0157
; #@! TA.AperFunction,Plated,PTH,ComponentDrill
T2C0.0181
; #@! TA.AperFunction,Plated,PTH,ComponentDrill
T3C0.0236
; #@! TA.AperFunction,Plated,PTH,ComponentDrill
T4C0.0256
; #@! TA.AperFunction,Plated,PTH,ComponentDrill
T5C0.0394
; #@! TA.AperFunction,Plated,PTH,ComponentDrill
T6C0.0866
%
G90
G05
T1
X5.1423Y-2.9083
X5.1432Y-4.0897
X5.1614Y-2.8623
X5.1614Y-2.9542
X5.1622Y-4.0438
X5.1622Y-4.1357
X5.2073Y-2.8433
X5.2073Y-2.9732
X5.2082Y-4.0248
X5.2082Y-4.1547
X5.2532Y-2.8623
X5.2532Y-2.9542
X5.2541Y-4.0438
X5.2541Y-4.1357
X5.2723Y-2.9083
X5.2731Y-4.0897
X6.8701Y-4.0838
X6.8743Y-2.9123
X6.8891Y-4.0379
X6.8891Y-4.1297
X6.8933Y-2.8663
X6.8933Y-2.9582
X6.935Y-4.0188
X6.935Y-4.1487
X6.9393Y-2.8473
X6.9393Y-2.9772
X6.981Y-4.0379
X6.981Y-4.1297
X6.9852Y-2.8663
X6.9852Y-2.9582
X7.0Y-4.0838
X7.0042Y-2.9123
T2
X6.7976Y-3.3454
X6.7976Y-3.6903
T3
X5.3977Y-3.9639
X5.3978Y-3.0785
X5.5729Y-3.9639
X5.573Y-3.0785
X5.7481Y-3.9639
X5.7482Y-3.0785
X5.9233Y-3.9639
X5.9234Y-3.0785
X6.0985Y-3.9639
X6.0986Y-3.0785
X6.2737Y-3.9639
X6.2738Y-3.0785
X6.4489Y-3.9639
X6.449Y-3.0785
X6.6949Y-3.252
X6.6949Y-3.4331
X6.6949Y-3.6142
X6.6949Y-3.7953
T5
X5.4Y-2.9
X5.4Y-4.1
X5.5Y-2.9
X5.5Y-4.1
X5.6Y-2.9
X5.6Y-4.1
X5.7Y-2.9
X5.7Y-4.1
X5.8Y-2.9
X5.8Y-4.1
X5.9Y-2.9
X5.9Y-4.1
X6.0Y-2.9
X6.0Y-4.1
X6.1Y-2.9
X6.1Y-4.1
X6.2Y-2.9
X6.2Y-4.1
X6.3Y-2.9
X6.3Y-4.1
X6.6996Y-2.9338
X6.6996Y-3.0338
X6.6996Y-3.1338
T6
X5.2073Y-2.9083
X5.2082Y-4.0897
X6.935Y-4.0838
X6.9393Y-2.9123
T4
G00X5.3977Y-3.9235
M15
G01X5.3977Y-3.8822
M16
G05
G00X5.3978Y-3.1188
M15
G01X5.3978Y-3.1602
M16
G05
G00X5.5729Y-3.9235
M15
G01X5.5729Y-3.8822
M16
G05
G00X5.573Y-3.1188
M15
G01X5.573Y-3.1602
M16
G05
G00X5.7481Y-3.9235
M15
G01X5.7481Y-3.8822
M16
G05
G00X5.7482Y-3.1188
M15
G01X5.7482Y-3.1602
M16
G05
G00X5.9233Y-3.9235
M15
G01X5.9233Y-3.8822
M16
G05
G00X5.9234Y-3.1188
M15
G01X5.9234Y-3.1602
M16
G05
G00X6.0985Y-3.9235
M15
G01X6.0985Y-3.8822
M16
G05
G00X6.0986Y-3.1188
M15
G01X6.0986Y-3.1602
M16
G05
G00X6.2737Y-3.9235
M15
G01X6.2737Y-3.8822
M16
G05
G00X6.2738Y-3.1188
M15
G01X6.2738Y-3.1602
M16
G05
G00X6.4489Y-3.9235
M15
G01X6.4489Y-3.8822
M16
G05
G00X6.449Y-3.1188
M15
G01X6.449Y-3.1602
M16
G05
G00X6.6545Y-3.252
M15
G01X6.6132Y-3.252
M16
G05
G00X6.6545Y-3.4331
M15
G01X6.6132Y-3.4331
M16
G05
G00X6.6545Y-3.6142
M15
G01X6.6132Y-3.6142
M16
G05
G00X6.6545Y-3.7953
M15
G01X6.6132Y-3.7953
M16
G05
M30
