%TF.GenerationSoftware,KiCad,Pcbnew,8.0.4*%
%TF.CreationDate,2024-07-23T12:10:29-05:00*%
%TF.ProjectId,sa8x8-breakout,73613878-382d-4627-9265-616b6f75742e,rev?*%
%TF.SameCoordinates,Original*%
%TF.FileFunction,Drillmap*%
%TF.FilePolarity,Positive*%
%FSLAX45Y45*%
G04 Gerber Fmt 4.5, Leading zero omitted, Abs format (unit mm)*
G04 Created by KiCad (PCBNEW 8.0.4) date 2024-07-23 12:10:29*
%MOMM*%
%LPD*%
G01*
G04 APERTURE LIST*
%ADD10C,0.050000*%
%ADD11C,0.200000*%
%ADD12C,0.100000*%
%ADD13C,0.220000*%
G04 APERTURE END LIST*
D10*
X12954000Y-10414000D02*
X12954000Y-7366000D01*
X17655306Y-7112000D02*
G75*
G02*
X17909310Y-7366000I4J-254000D01*
G01*
X13207937Y-10668000D02*
G75*
G02*
X12954000Y-10414000I63J254000D01*
G01*
X13208000Y-7112000D02*
X17655306Y-7112000D01*
X17909306Y-10414000D02*
G75*
G02*
X17655306Y-10668006I-254006J0D01*
G01*
X12954000Y-7366000D02*
G75*
G02*
X13208000Y-7112000I254000J0D01*
G01*
X17655306Y-10668000D02*
X13207937Y-10668000D01*
X17909306Y-10414000D02*
X17909306Y-7366000D01*
D11*
D12*
X13041546Y-7366971D02*
X13081546Y-7406971D01*
X13081546Y-7366971D02*
X13041546Y-7406971D01*
X13043759Y-10367908D02*
X13083759Y-10407908D01*
X13083759Y-10367908D02*
X13043759Y-10407908D01*
X13089874Y-7250299D02*
X13129874Y-7290299D01*
X13129874Y-7250299D02*
X13089874Y-7290299D01*
X13089874Y-7483644D02*
X13129874Y-7523644D01*
X13129874Y-7483644D02*
X13089874Y-7523644D01*
X13092087Y-10251235D02*
X13132087Y-10291235D01*
X13132087Y-10251235D02*
X13092087Y-10291235D01*
X13092087Y-10484581D02*
X13132087Y-10524581D01*
X13132087Y-10484581D02*
X13092087Y-10524581D01*
X13206546Y-7201971D02*
X13246546Y-7241971D01*
X13246546Y-7201971D02*
X13206546Y-7241971D01*
X13206546Y-7531971D02*
X13246546Y-7571971D01*
X13246546Y-7531971D02*
X13206546Y-7571971D01*
X13208759Y-10202908D02*
X13248759Y-10242908D01*
X13248759Y-10202908D02*
X13208759Y-10242908D01*
X13208759Y-10532908D02*
X13248759Y-10572908D01*
X13248759Y-10532908D02*
X13208759Y-10572908D01*
X13323219Y-7250299D02*
X13363219Y-7290299D01*
X13363219Y-7250299D02*
X13323219Y-7290299D01*
X13323219Y-7483644D02*
X13363219Y-7523644D01*
X13363219Y-7483644D02*
X13323219Y-7523644D01*
X13325432Y-10251235D02*
X13365432Y-10291235D01*
X13365432Y-10251235D02*
X13325432Y-10291235D01*
X13325432Y-10484581D02*
X13365432Y-10524581D01*
X13365432Y-10484581D02*
X13325432Y-10524581D01*
X13371546Y-7366971D02*
X13411546Y-7406971D01*
X13411546Y-7366971D02*
X13371546Y-7406971D01*
X13373759Y-10367908D02*
X13413759Y-10407908D01*
X13413759Y-10367908D02*
X13373759Y-10407908D01*
X17430000Y-10352819D02*
X17470000Y-10392819D01*
X17470000Y-10352819D02*
X17430000Y-10392819D01*
X17440699Y-7377201D02*
X17480699Y-7417201D01*
X17480699Y-7377201D02*
X17440699Y-7417201D01*
X17478327Y-10236147D02*
X17518327Y-10276147D01*
X17518327Y-10236147D02*
X17478327Y-10276147D01*
X17478327Y-10469492D02*
X17518327Y-10509492D01*
X17518327Y-10469492D02*
X17478327Y-10509492D01*
X17489026Y-7260529D02*
X17529026Y-7300529D01*
X17529026Y-7260529D02*
X17489026Y-7300529D01*
X17489026Y-7493874D02*
X17529026Y-7533874D01*
X17529026Y-7493874D02*
X17489026Y-7533874D01*
X17595000Y-10187819D02*
X17635000Y-10227819D01*
X17635000Y-10187819D02*
X17595000Y-10227819D01*
X17595000Y-10517819D02*
X17635000Y-10557819D01*
X17635000Y-10517819D02*
X17595000Y-10557819D01*
X17605699Y-7212201D02*
X17645699Y-7252201D01*
X17645699Y-7212201D02*
X17605699Y-7252201D01*
X17605699Y-7542201D02*
X17645699Y-7582201D01*
X17645699Y-7542201D02*
X17605699Y-7582201D01*
X17711673Y-10236147D02*
X17751673Y-10276147D01*
X17751673Y-10236147D02*
X17711673Y-10276147D01*
X17711673Y-10469492D02*
X17751673Y-10509492D01*
X17751673Y-10469492D02*
X17711673Y-10509492D01*
X17722371Y-7260529D02*
X17762371Y-7300529D01*
X17762371Y-7260529D02*
X17722371Y-7300529D01*
X17722371Y-7493874D02*
X17762371Y-7533874D01*
X17762371Y-7493874D02*
X17722371Y-7533874D01*
X17760000Y-10352819D02*
X17800000Y-10392819D01*
X17800000Y-10352819D02*
X17760000Y-10392819D01*
X17770699Y-7377201D02*
X17810699Y-7417201D01*
X17810699Y-7377201D02*
X17770699Y-7417201D01*
X17288789Y-8497343D02*
G75*
G02*
X17242789Y-8497343I-23000J0D01*
G01*
X17242789Y-8497343D02*
G75*
G02*
X17288789Y-8497343I23000J0D01*
G01*
X17288789Y-9373343D02*
G75*
G02*
X17242789Y-9373343I-23000J0D01*
G01*
X17242789Y-9373343D02*
G75*
G02*
X17288789Y-9373343I23000J0D01*
G01*
X13710153Y-10038265D02*
X13710153Y-10098265D01*
X13680153Y-10068265D02*
X13740153Y-10068265D01*
X13710384Y-7789325D02*
X13710384Y-7849325D01*
X13680384Y-7819325D02*
X13740384Y-7819325D01*
X14155153Y-10038265D02*
X14155153Y-10098265D01*
X14125153Y-10068265D02*
X14185153Y-10068265D01*
X14155384Y-7789325D02*
X14155384Y-7849325D01*
X14125384Y-7819325D02*
X14185384Y-7819325D01*
X14600153Y-10038265D02*
X14600153Y-10098265D01*
X14570153Y-10068265D02*
X14630153Y-10068265D01*
X14600384Y-7789325D02*
X14600384Y-7849325D01*
X14570384Y-7819325D02*
X14630384Y-7819325D01*
X15045153Y-10038265D02*
X15045153Y-10098265D01*
X15015153Y-10068265D02*
X15075153Y-10068265D01*
X15045384Y-7789325D02*
X15045384Y-7849325D01*
X15015384Y-7819325D02*
X15075384Y-7819325D01*
X15490153Y-10038265D02*
X15490153Y-10098265D01*
X15460153Y-10068265D02*
X15520153Y-10068265D01*
X15490384Y-7789325D02*
X15490384Y-7849325D01*
X15460384Y-7819325D02*
X15520384Y-7819325D01*
X15935153Y-10038265D02*
X15935153Y-10098265D01*
X15905153Y-10068265D02*
X15965153Y-10068265D01*
X15935384Y-7789325D02*
X15935384Y-7849325D01*
X15905384Y-7819325D02*
X15965384Y-7819325D01*
X16380153Y-10038265D02*
X16380153Y-10098265D01*
X16350153Y-10068265D02*
X16410153Y-10068265D01*
X16380384Y-7789325D02*
X16380384Y-7849325D01*
X16350384Y-7819325D02*
X16410384Y-7819325D01*
X17005053Y-8230142D02*
X17005053Y-8290142D01*
X16975053Y-8260142D02*
X17035053Y-8260142D01*
X17005053Y-8690142D02*
X17005053Y-8750142D01*
X16975053Y-8720142D02*
X17035053Y-8720142D01*
X17005053Y-9150142D02*
X17005053Y-9210142D01*
X16975053Y-9180142D02*
X17035053Y-9180142D01*
X17005053Y-9610142D02*
X17005053Y-9670142D01*
X16975053Y-9640142D02*
X17035053Y-9640142D01*
X13733134Y-9936246D02*
X13733134Y-9890284D01*
X13687171Y-9890284D01*
X13687171Y-9936246D01*
X13733134Y-9936246D01*
X13742653Y-9965765D02*
X13742653Y-9860765D01*
X13677653Y-9860765D02*
G75*
G02*
X13742653Y-9860765I32500J0D01*
G01*
X13677653Y-9860765D02*
X13677653Y-9965765D01*
X13677653Y-9965765D02*
G75*
G03*
X13742653Y-9965765I32500J0D01*
G01*
X13733366Y-7997307D02*
X13733366Y-7951344D01*
X13687403Y-7951344D01*
X13687403Y-7997307D01*
X13733366Y-7997307D01*
X13677884Y-7921825D02*
X13677884Y-8026825D01*
X13742884Y-8026825D02*
G75*
G02*
X13677884Y-8026825I-32500J0D01*
G01*
X13742884Y-8026825D02*
X13742884Y-7921825D01*
X13742884Y-7921825D02*
G75*
G03*
X13677884Y-7921825I-32500J0D01*
G01*
X14178134Y-9936246D02*
X14178134Y-9890284D01*
X14132171Y-9890284D01*
X14132171Y-9936246D01*
X14178134Y-9936246D01*
X14187653Y-9965765D02*
X14187653Y-9860765D01*
X14122653Y-9860765D02*
G75*
G02*
X14187653Y-9860765I32500J0D01*
G01*
X14122653Y-9860765D02*
X14122653Y-9965765D01*
X14122653Y-9965765D02*
G75*
G03*
X14187653Y-9965765I32500J0D01*
G01*
X14178366Y-7997307D02*
X14178366Y-7951344D01*
X14132403Y-7951344D01*
X14132403Y-7997307D01*
X14178366Y-7997307D01*
X14122884Y-7921825D02*
X14122884Y-8026825D01*
X14187884Y-8026825D02*
G75*
G02*
X14122884Y-8026825I-32500J0D01*
G01*
X14187884Y-8026825D02*
X14187884Y-7921825D01*
X14187884Y-7921825D02*
G75*
G03*
X14122884Y-7921825I-32500J0D01*
G01*
X14623134Y-9936246D02*
X14623134Y-9890284D01*
X14577171Y-9890284D01*
X14577171Y-9936246D01*
X14623134Y-9936246D01*
X14632653Y-9965765D02*
X14632653Y-9860765D01*
X14567653Y-9860765D02*
G75*
G02*
X14632653Y-9860765I32500J0D01*
G01*
X14567653Y-9860765D02*
X14567653Y-9965765D01*
X14567653Y-9965765D02*
G75*
G03*
X14632653Y-9965765I32500J0D01*
G01*
X14623366Y-7997307D02*
X14623366Y-7951344D01*
X14577403Y-7951344D01*
X14577403Y-7997307D01*
X14623366Y-7997307D01*
X14567884Y-7921825D02*
X14567884Y-8026825D01*
X14632884Y-8026825D02*
G75*
G02*
X14567884Y-8026825I-32500J0D01*
G01*
X14632884Y-8026825D02*
X14632884Y-7921825D01*
X14632884Y-7921825D02*
G75*
G03*
X14567884Y-7921825I-32500J0D01*
G01*
X15068134Y-9936246D02*
X15068134Y-9890284D01*
X15022171Y-9890284D01*
X15022171Y-9936246D01*
X15068134Y-9936246D01*
X15077653Y-9965765D02*
X15077653Y-9860765D01*
X15012653Y-9860765D02*
G75*
G02*
X15077653Y-9860765I32500J0D01*
G01*
X15012653Y-9860765D02*
X15012653Y-9965765D01*
X15012653Y-9965765D02*
G75*
G03*
X15077653Y-9965765I32500J0D01*
G01*
X15068366Y-7997307D02*
X15068366Y-7951344D01*
X15022403Y-7951344D01*
X15022403Y-7997307D01*
X15068366Y-7997307D01*
X15012884Y-7921825D02*
X15012884Y-8026825D01*
X15077884Y-8026825D02*
G75*
G02*
X15012884Y-8026825I-32500J0D01*
G01*
X15077884Y-8026825D02*
X15077884Y-7921825D01*
X15077884Y-7921825D02*
G75*
G03*
X15012884Y-7921825I-32500J0D01*
G01*
X15513134Y-9936246D02*
X15513134Y-9890284D01*
X15467171Y-9890284D01*
X15467171Y-9936246D01*
X15513134Y-9936246D01*
X15522653Y-9965765D02*
X15522653Y-9860765D01*
X15457653Y-9860765D02*
G75*
G02*
X15522653Y-9860765I32500J0D01*
G01*
X15457653Y-9860765D02*
X15457653Y-9965765D01*
X15457653Y-9965765D02*
G75*
G03*
X15522653Y-9965765I32500J0D01*
G01*
X15513366Y-7997307D02*
X15513366Y-7951344D01*
X15467403Y-7951344D01*
X15467403Y-7997307D01*
X15513366Y-7997307D01*
X15457884Y-7921825D02*
X15457884Y-8026825D01*
X15522884Y-8026825D02*
G75*
G02*
X15457884Y-8026825I-32500J0D01*
G01*
X15522884Y-8026825D02*
X15522884Y-7921825D01*
X15522884Y-7921825D02*
G75*
G03*
X15457884Y-7921825I-32500J0D01*
G01*
X15958134Y-9936246D02*
X15958134Y-9890284D01*
X15912171Y-9890284D01*
X15912171Y-9936246D01*
X15958134Y-9936246D01*
X15967653Y-9965765D02*
X15967653Y-9860765D01*
X15902653Y-9860765D02*
G75*
G02*
X15967653Y-9860765I32500J0D01*
G01*
X15902653Y-9860765D02*
X15902653Y-9965765D01*
X15902653Y-9965765D02*
G75*
G03*
X15967653Y-9965765I32500J0D01*
G01*
X15958366Y-7997307D02*
X15958366Y-7951344D01*
X15912403Y-7951344D01*
X15912403Y-7997307D01*
X15958366Y-7997307D01*
X15902884Y-7921825D02*
X15902884Y-8026825D01*
X15967884Y-8026825D02*
G75*
G02*
X15902884Y-8026825I-32500J0D01*
G01*
X15967884Y-8026825D02*
X15967884Y-7921825D01*
X15967884Y-7921825D02*
G75*
G03*
X15902884Y-7921825I-32500J0D01*
G01*
X16403134Y-9936246D02*
X16403134Y-9890284D01*
X16357171Y-9890284D01*
X16357171Y-9936246D01*
X16403134Y-9936246D01*
X16412653Y-9965765D02*
X16412653Y-9860765D01*
X16347653Y-9860765D02*
G75*
G02*
X16412653Y-9860765I32500J0D01*
G01*
X16347653Y-9860765D02*
X16347653Y-9965765D01*
X16347653Y-9965765D02*
G75*
G03*
X16412653Y-9965765I32500J0D01*
G01*
X16403366Y-7997307D02*
X16403366Y-7951344D01*
X16357403Y-7951344D01*
X16357403Y-7997307D01*
X16403366Y-7997307D01*
X16347884Y-7921825D02*
X16347884Y-8026825D01*
X16412884Y-8026825D02*
G75*
G02*
X16347884Y-8026825I-32500J0D01*
G01*
X16412884Y-8026825D02*
X16412884Y-7921825D01*
X16412884Y-7921825D02*
G75*
G03*
X16347884Y-7921825I-32500J0D01*
G01*
X16873035Y-8283123D02*
X16873035Y-8237161D01*
X16827072Y-8237161D01*
X16827072Y-8283123D01*
X16873035Y-8283123D01*
X16902553Y-8227642D02*
X16797553Y-8227642D01*
X16797553Y-8292642D02*
G75*
G02*
X16797553Y-8227642I0J32500D01*
G01*
X16797553Y-8292642D02*
X16902553Y-8292642D01*
X16902553Y-8292642D02*
G75*
G03*
X16902553Y-8227642I0J32500D01*
G01*
X16873035Y-8743123D02*
X16873035Y-8697161D01*
X16827072Y-8697161D01*
X16827072Y-8743123D01*
X16873035Y-8743123D01*
X16902553Y-8687642D02*
X16797553Y-8687642D01*
X16797553Y-8752642D02*
G75*
G02*
X16797553Y-8687642I0J32500D01*
G01*
X16797553Y-8752642D02*
X16902553Y-8752642D01*
X16902553Y-8752642D02*
G75*
G03*
X16902553Y-8687642I0J32500D01*
G01*
X16873035Y-9203123D02*
X16873035Y-9157161D01*
X16827072Y-9157161D01*
X16827072Y-9203123D01*
X16873035Y-9203123D01*
X16902553Y-9147642D02*
X16797553Y-9147642D01*
X16797553Y-9212642D02*
G75*
G02*
X16797553Y-9147642I0J32500D01*
G01*
X16797553Y-9212642D02*
X16902553Y-9212642D01*
X16902553Y-9212642D02*
G75*
G03*
X16902553Y-9147642I0J32500D01*
G01*
X16873035Y-9663123D02*
X16873035Y-9617161D01*
X16827072Y-9617161D01*
X16827072Y-9663123D01*
X16873035Y-9663123D01*
X16902553Y-9607642D02*
X16797553Y-9607642D01*
X16797553Y-9672642D02*
G75*
G02*
X16797553Y-9607642I0J32500D01*
G01*
X16797553Y-9672642D02*
X16902553Y-9672642D01*
X16902553Y-9672642D02*
G75*
G03*
X16902553Y-9607642I0J32500D01*
G01*
X13716000Y-7416000D02*
X13766000Y-7366000D01*
X13716000Y-7316000D01*
X13666000Y-7366000D01*
X13716000Y-7416000D01*
X13716000Y-10464000D02*
X13766000Y-10414000D01*
X13716000Y-10364000D01*
X13666000Y-10414000D01*
X13716000Y-10464000D01*
X13970000Y-7416000D02*
X14020000Y-7366000D01*
X13970000Y-7316000D01*
X13920000Y-7366000D01*
X13970000Y-7416000D01*
X13970000Y-10464000D02*
X14020000Y-10414000D01*
X13970000Y-10364000D01*
X13920000Y-10414000D01*
X13970000Y-10464000D01*
X14224000Y-7416000D02*
X14274000Y-7366000D01*
X14224000Y-7316000D01*
X14174000Y-7366000D01*
X14224000Y-7416000D01*
X14224000Y-10464000D02*
X14274000Y-10414000D01*
X14224000Y-10364000D01*
X14174000Y-10414000D01*
X14224000Y-10464000D01*
X14478000Y-7416000D02*
X14528000Y-7366000D01*
X14478000Y-7316000D01*
X14428000Y-7366000D01*
X14478000Y-7416000D01*
X14478000Y-10464000D02*
X14528000Y-10414000D01*
X14478000Y-10364000D01*
X14428000Y-10414000D01*
X14478000Y-10464000D01*
X14732000Y-7416000D02*
X14782000Y-7366000D01*
X14732000Y-7316000D01*
X14682000Y-7366000D01*
X14732000Y-7416000D01*
X14732000Y-10464000D02*
X14782000Y-10414000D01*
X14732000Y-10364000D01*
X14682000Y-10414000D01*
X14732000Y-10464000D01*
X14986000Y-7416000D02*
X15036000Y-7366000D01*
X14986000Y-7316000D01*
X14936000Y-7366000D01*
X14986000Y-7416000D01*
X14986000Y-10464000D02*
X15036000Y-10414000D01*
X14986000Y-10364000D01*
X14936000Y-10414000D01*
X14986000Y-10464000D01*
X15240000Y-7416000D02*
X15290000Y-7366000D01*
X15240000Y-7316000D01*
X15190000Y-7366000D01*
X15240000Y-7416000D01*
X15240000Y-10464000D02*
X15290000Y-10414000D01*
X15240000Y-10364000D01*
X15190000Y-10414000D01*
X15240000Y-10464000D01*
X15494000Y-7416000D02*
X15544000Y-7366000D01*
X15494000Y-7316000D01*
X15444000Y-7366000D01*
X15494000Y-7416000D01*
X15494000Y-10464000D02*
X15544000Y-10414000D01*
X15494000Y-10364000D01*
X15444000Y-10414000D01*
X15494000Y-10464000D01*
X15748000Y-7416000D02*
X15798000Y-7366000D01*
X15748000Y-7316000D01*
X15698000Y-7366000D01*
X15748000Y-7416000D01*
X15748000Y-10464000D02*
X15798000Y-10414000D01*
X15748000Y-10364000D01*
X15698000Y-10414000D01*
X15748000Y-10464000D01*
X16002000Y-7416000D02*
X16052000Y-7366000D01*
X16002000Y-7316000D01*
X15952000Y-7366000D01*
X16002000Y-7416000D01*
X16002000Y-10464000D02*
X16052000Y-10414000D01*
X16002000Y-10364000D01*
X15952000Y-10414000D01*
X16002000Y-10464000D01*
X17016925Y-7501843D02*
X17066925Y-7451843D01*
X17016925Y-7401843D01*
X16966925Y-7451843D01*
X17016925Y-7501843D01*
X17016925Y-7755843D02*
X17066925Y-7705843D01*
X17016925Y-7655843D01*
X16966925Y-7705843D01*
X17016925Y-7755843D01*
X17016925Y-8009843D02*
X17066925Y-7959843D01*
X17016925Y-7909843D01*
X16966925Y-7959843D01*
X17016925Y-8009843D01*
D13*
X13116546Y-7276971D02*
X13336546Y-7496971D01*
X13336546Y-7276971D02*
X13116546Y-7496971D01*
X13336546Y-7386971D02*
G75*
G02*
X13116546Y-7386971I-110000J0D01*
G01*
X13116546Y-7386971D02*
G75*
G02*
X13336546Y-7386971I110000J0D01*
G01*
X13118759Y-10277908D02*
X13338759Y-10497908D01*
X13338759Y-10277908D02*
X13118759Y-10497908D01*
X13338759Y-10387908D02*
G75*
G02*
X13118759Y-10387908I-110000J0D01*
G01*
X13118759Y-10387908D02*
G75*
G02*
X13338759Y-10387908I110000J0D01*
G01*
X17505000Y-10262819D02*
X17725000Y-10482819D01*
X17725000Y-10262819D02*
X17505000Y-10482819D01*
X17725000Y-10372819D02*
G75*
G02*
X17505000Y-10372819I-110000J0D01*
G01*
X17505000Y-10372819D02*
G75*
G02*
X17725000Y-10372819I110000J0D01*
G01*
X17515699Y-7287201D02*
X17735699Y-7507201D01*
X17735699Y-7287201D02*
X17515699Y-7507201D01*
X17735699Y-7397201D02*
G75*
G02*
X17515699Y-7397201I-110000J0D01*
G01*
X17515699Y-7397201D02*
G75*
G02*
X17735699Y-7397201I110000J0D01*
G01*
D11*
X13212277Y-10981984D02*
X13212277Y-10781984D01*
X13212277Y-10781984D02*
X13259896Y-10781984D01*
X13259896Y-10781984D02*
X13288467Y-10791508D01*
X13288467Y-10791508D02*
X13307515Y-10810555D01*
X13307515Y-10810555D02*
X13317039Y-10829603D01*
X13317039Y-10829603D02*
X13326562Y-10867698D01*
X13326562Y-10867698D02*
X13326562Y-10896270D01*
X13326562Y-10896270D02*
X13317039Y-10934365D01*
X13317039Y-10934365D02*
X13307515Y-10953412D01*
X13307515Y-10953412D02*
X13288467Y-10972460D01*
X13288467Y-10972460D02*
X13259896Y-10981984D01*
X13259896Y-10981984D02*
X13212277Y-10981984D01*
X13412277Y-10981984D02*
X13412277Y-10848650D01*
X13412277Y-10886746D02*
X13421801Y-10867698D01*
X13421801Y-10867698D02*
X13431324Y-10858174D01*
X13431324Y-10858174D02*
X13450372Y-10848650D01*
X13450372Y-10848650D02*
X13469420Y-10848650D01*
X13536086Y-10981984D02*
X13536086Y-10848650D01*
X13536086Y-10781984D02*
X13526562Y-10791508D01*
X13526562Y-10791508D02*
X13536086Y-10801031D01*
X13536086Y-10801031D02*
X13545610Y-10791508D01*
X13545610Y-10791508D02*
X13536086Y-10781984D01*
X13536086Y-10781984D02*
X13536086Y-10801031D01*
X13659896Y-10981984D02*
X13640848Y-10972460D01*
X13640848Y-10972460D02*
X13631324Y-10953412D01*
X13631324Y-10953412D02*
X13631324Y-10781984D01*
X13764658Y-10981984D02*
X13745610Y-10972460D01*
X13745610Y-10972460D02*
X13736086Y-10953412D01*
X13736086Y-10953412D02*
X13736086Y-10781984D01*
X13993229Y-10981984D02*
X13993229Y-10781984D01*
X13993229Y-10781984D02*
X14059896Y-10924841D01*
X14059896Y-10924841D02*
X14126562Y-10781984D01*
X14126562Y-10781984D02*
X14126562Y-10981984D01*
X14307515Y-10981984D02*
X14307515Y-10877222D01*
X14307515Y-10877222D02*
X14297991Y-10858174D01*
X14297991Y-10858174D02*
X14278943Y-10848650D01*
X14278943Y-10848650D02*
X14240848Y-10848650D01*
X14240848Y-10848650D02*
X14221801Y-10858174D01*
X14307515Y-10972460D02*
X14288467Y-10981984D01*
X14288467Y-10981984D02*
X14240848Y-10981984D01*
X14240848Y-10981984D02*
X14221801Y-10972460D01*
X14221801Y-10972460D02*
X14212277Y-10953412D01*
X14212277Y-10953412D02*
X14212277Y-10934365D01*
X14212277Y-10934365D02*
X14221801Y-10915317D01*
X14221801Y-10915317D02*
X14240848Y-10905793D01*
X14240848Y-10905793D02*
X14288467Y-10905793D01*
X14288467Y-10905793D02*
X14307515Y-10896270D01*
X14402753Y-10848650D02*
X14402753Y-11048650D01*
X14402753Y-10858174D02*
X14421801Y-10848650D01*
X14421801Y-10848650D02*
X14459896Y-10848650D01*
X14459896Y-10848650D02*
X14478943Y-10858174D01*
X14478943Y-10858174D02*
X14488467Y-10867698D01*
X14488467Y-10867698D02*
X14497991Y-10886746D01*
X14497991Y-10886746D02*
X14497991Y-10943889D01*
X14497991Y-10943889D02*
X14488467Y-10962936D01*
X14488467Y-10962936D02*
X14478943Y-10972460D01*
X14478943Y-10972460D02*
X14459896Y-10981984D01*
X14459896Y-10981984D02*
X14421801Y-10981984D01*
X14421801Y-10981984D02*
X14402753Y-10972460D01*
X14583705Y-10962936D02*
X14593229Y-10972460D01*
X14593229Y-10972460D02*
X14583705Y-10981984D01*
X14583705Y-10981984D02*
X14574182Y-10972460D01*
X14574182Y-10972460D02*
X14583705Y-10962936D01*
X14583705Y-10962936D02*
X14583705Y-10981984D01*
X14583705Y-10858174D02*
X14593229Y-10867698D01*
X14593229Y-10867698D02*
X14583705Y-10877222D01*
X14583705Y-10877222D02*
X14574182Y-10867698D01*
X14574182Y-10867698D02*
X14583705Y-10858174D01*
X14583705Y-10858174D02*
X14583705Y-10877222D01*
D12*
X12911500Y-11290500D02*
X12951500Y-11330500D01*
X12951500Y-11290500D02*
X12911500Y-11330500D01*
D11*
X13250372Y-11201984D02*
X13269420Y-11201984D01*
X13269420Y-11201984D02*
X13288467Y-11211508D01*
X13288467Y-11211508D02*
X13297991Y-11221031D01*
X13297991Y-11221031D02*
X13307515Y-11240079D01*
X13307515Y-11240079D02*
X13317039Y-11278174D01*
X13317039Y-11278174D02*
X13317039Y-11325793D01*
X13317039Y-11325793D02*
X13307515Y-11363888D01*
X13307515Y-11363888D02*
X13297991Y-11382936D01*
X13297991Y-11382936D02*
X13288467Y-11392460D01*
X13288467Y-11392460D02*
X13269420Y-11401984D01*
X13269420Y-11401984D02*
X13250372Y-11401984D01*
X13250372Y-11401984D02*
X13231324Y-11392460D01*
X13231324Y-11392460D02*
X13221801Y-11382936D01*
X13221801Y-11382936D02*
X13212277Y-11363888D01*
X13212277Y-11363888D02*
X13202753Y-11325793D01*
X13202753Y-11325793D02*
X13202753Y-11278174D01*
X13202753Y-11278174D02*
X13212277Y-11240079D01*
X13212277Y-11240079D02*
X13221801Y-11221031D01*
X13221801Y-11221031D02*
X13231324Y-11211508D01*
X13231324Y-11211508D02*
X13250372Y-11201984D01*
X13402753Y-11382936D02*
X13412277Y-11392460D01*
X13412277Y-11392460D02*
X13402753Y-11401984D01*
X13402753Y-11401984D02*
X13393229Y-11392460D01*
X13393229Y-11392460D02*
X13402753Y-11382936D01*
X13402753Y-11382936D02*
X13402753Y-11401984D01*
X13583705Y-11268650D02*
X13583705Y-11401984D01*
X13536086Y-11192460D02*
X13488467Y-11335317D01*
X13488467Y-11335317D02*
X13612277Y-11335317D01*
X13726562Y-11201984D02*
X13745610Y-11201984D01*
X13745610Y-11201984D02*
X13764658Y-11211508D01*
X13764658Y-11211508D02*
X13774182Y-11221031D01*
X13774182Y-11221031D02*
X13783705Y-11240079D01*
X13783705Y-11240079D02*
X13793229Y-11278174D01*
X13793229Y-11278174D02*
X13793229Y-11325793D01*
X13793229Y-11325793D02*
X13783705Y-11363888D01*
X13783705Y-11363888D02*
X13774182Y-11382936D01*
X13774182Y-11382936D02*
X13764658Y-11392460D01*
X13764658Y-11392460D02*
X13745610Y-11401984D01*
X13745610Y-11401984D02*
X13726562Y-11401984D01*
X13726562Y-11401984D02*
X13707515Y-11392460D01*
X13707515Y-11392460D02*
X13697991Y-11382936D01*
X13697991Y-11382936D02*
X13688467Y-11363888D01*
X13688467Y-11363888D02*
X13678943Y-11325793D01*
X13678943Y-11325793D02*
X13678943Y-11278174D01*
X13678943Y-11278174D02*
X13688467Y-11240079D01*
X13688467Y-11240079D02*
X13697991Y-11221031D01*
X13697991Y-11221031D02*
X13707515Y-11211508D01*
X13707515Y-11211508D02*
X13726562Y-11201984D01*
X13917039Y-11201984D02*
X13936086Y-11201984D01*
X13936086Y-11201984D02*
X13955134Y-11211508D01*
X13955134Y-11211508D02*
X13964658Y-11221031D01*
X13964658Y-11221031D02*
X13974182Y-11240079D01*
X13974182Y-11240079D02*
X13983705Y-11278174D01*
X13983705Y-11278174D02*
X13983705Y-11325793D01*
X13983705Y-11325793D02*
X13974182Y-11363888D01*
X13974182Y-11363888D02*
X13964658Y-11382936D01*
X13964658Y-11382936D02*
X13955134Y-11392460D01*
X13955134Y-11392460D02*
X13936086Y-11401984D01*
X13936086Y-11401984D02*
X13917039Y-11401984D01*
X13917039Y-11401984D02*
X13897991Y-11392460D01*
X13897991Y-11392460D02*
X13888467Y-11382936D01*
X13888467Y-11382936D02*
X13878943Y-11363888D01*
X13878943Y-11363888D02*
X13869420Y-11325793D01*
X13869420Y-11325793D02*
X13869420Y-11278174D01*
X13869420Y-11278174D02*
X13878943Y-11240079D01*
X13878943Y-11240079D02*
X13888467Y-11221031D01*
X13888467Y-11221031D02*
X13897991Y-11211508D01*
X13897991Y-11211508D02*
X13917039Y-11201984D01*
X14069420Y-11401984D02*
X14069420Y-11268650D01*
X14069420Y-11287698D02*
X14078943Y-11278174D01*
X14078943Y-11278174D02*
X14097991Y-11268650D01*
X14097991Y-11268650D02*
X14126563Y-11268650D01*
X14126563Y-11268650D02*
X14145610Y-11278174D01*
X14145610Y-11278174D02*
X14155134Y-11297222D01*
X14155134Y-11297222D02*
X14155134Y-11401984D01*
X14155134Y-11297222D02*
X14164658Y-11278174D01*
X14164658Y-11278174D02*
X14183705Y-11268650D01*
X14183705Y-11268650D02*
X14212277Y-11268650D01*
X14212277Y-11268650D02*
X14231324Y-11278174D01*
X14231324Y-11278174D02*
X14240848Y-11297222D01*
X14240848Y-11297222D02*
X14240848Y-11401984D01*
X14336086Y-11401984D02*
X14336086Y-11268650D01*
X14336086Y-11287698D02*
X14345610Y-11278174D01*
X14345610Y-11278174D02*
X14364658Y-11268650D01*
X14364658Y-11268650D02*
X14393229Y-11268650D01*
X14393229Y-11268650D02*
X14412277Y-11278174D01*
X14412277Y-11278174D02*
X14421801Y-11297222D01*
X14421801Y-11297222D02*
X14421801Y-11401984D01*
X14421801Y-11297222D02*
X14431324Y-11278174D01*
X14431324Y-11278174D02*
X14450372Y-11268650D01*
X14450372Y-11268650D02*
X14478943Y-11268650D01*
X14478943Y-11268650D02*
X14497991Y-11278174D01*
X14497991Y-11278174D02*
X14507515Y-11297222D01*
X14507515Y-11297222D02*
X14507515Y-11401984D01*
X14897991Y-11192460D02*
X14726563Y-11449603D01*
X15155134Y-11201984D02*
X15174182Y-11201984D01*
X15174182Y-11201984D02*
X15193229Y-11211508D01*
X15193229Y-11211508D02*
X15202753Y-11221031D01*
X15202753Y-11221031D02*
X15212277Y-11240079D01*
X15212277Y-11240079D02*
X15221801Y-11278174D01*
X15221801Y-11278174D02*
X15221801Y-11325793D01*
X15221801Y-11325793D02*
X15212277Y-11363888D01*
X15212277Y-11363888D02*
X15202753Y-11382936D01*
X15202753Y-11382936D02*
X15193229Y-11392460D01*
X15193229Y-11392460D02*
X15174182Y-11401984D01*
X15174182Y-11401984D02*
X15155134Y-11401984D01*
X15155134Y-11401984D02*
X15136086Y-11392460D01*
X15136086Y-11392460D02*
X15126563Y-11382936D01*
X15126563Y-11382936D02*
X15117039Y-11363888D01*
X15117039Y-11363888D02*
X15107515Y-11325793D01*
X15107515Y-11325793D02*
X15107515Y-11278174D01*
X15107515Y-11278174D02*
X15117039Y-11240079D01*
X15117039Y-11240079D02*
X15126563Y-11221031D01*
X15126563Y-11221031D02*
X15136086Y-11211508D01*
X15136086Y-11211508D02*
X15155134Y-11201984D01*
X15307515Y-11382936D02*
X15317039Y-11392460D01*
X15317039Y-11392460D02*
X15307515Y-11401984D01*
X15307515Y-11401984D02*
X15297991Y-11392460D01*
X15297991Y-11392460D02*
X15307515Y-11382936D01*
X15307515Y-11382936D02*
X15307515Y-11401984D01*
X15440848Y-11201984D02*
X15459896Y-11201984D01*
X15459896Y-11201984D02*
X15478944Y-11211508D01*
X15478944Y-11211508D02*
X15488467Y-11221031D01*
X15488467Y-11221031D02*
X15497991Y-11240079D01*
X15497991Y-11240079D02*
X15507515Y-11278174D01*
X15507515Y-11278174D02*
X15507515Y-11325793D01*
X15507515Y-11325793D02*
X15497991Y-11363888D01*
X15497991Y-11363888D02*
X15488467Y-11382936D01*
X15488467Y-11382936D02*
X15478944Y-11392460D01*
X15478944Y-11392460D02*
X15459896Y-11401984D01*
X15459896Y-11401984D02*
X15440848Y-11401984D01*
X15440848Y-11401984D02*
X15421801Y-11392460D01*
X15421801Y-11392460D02*
X15412277Y-11382936D01*
X15412277Y-11382936D02*
X15402753Y-11363888D01*
X15402753Y-11363888D02*
X15393229Y-11325793D01*
X15393229Y-11325793D02*
X15393229Y-11278174D01*
X15393229Y-11278174D02*
X15402753Y-11240079D01*
X15402753Y-11240079D02*
X15412277Y-11221031D01*
X15412277Y-11221031D02*
X15421801Y-11211508D01*
X15421801Y-11211508D02*
X15440848Y-11201984D01*
X15697991Y-11401984D02*
X15583706Y-11401984D01*
X15640848Y-11401984D02*
X15640848Y-11201984D01*
X15640848Y-11201984D02*
X15621801Y-11230555D01*
X15621801Y-11230555D02*
X15602753Y-11249603D01*
X15602753Y-11249603D02*
X15583706Y-11259127D01*
X15878944Y-11201984D02*
X15783706Y-11201984D01*
X15783706Y-11201984D02*
X15774182Y-11297222D01*
X15774182Y-11297222D02*
X15783706Y-11287698D01*
X15783706Y-11287698D02*
X15802753Y-11278174D01*
X15802753Y-11278174D02*
X15850372Y-11278174D01*
X15850372Y-11278174D02*
X15869420Y-11287698D01*
X15869420Y-11287698D02*
X15878944Y-11297222D01*
X15878944Y-11297222D02*
X15888467Y-11316269D01*
X15888467Y-11316269D02*
X15888467Y-11363888D01*
X15888467Y-11363888D02*
X15878944Y-11382936D01*
X15878944Y-11382936D02*
X15869420Y-11392460D01*
X15869420Y-11392460D02*
X15850372Y-11401984D01*
X15850372Y-11401984D02*
X15802753Y-11401984D01*
X15802753Y-11401984D02*
X15783706Y-11392460D01*
X15783706Y-11392460D02*
X15774182Y-11382936D01*
X15955134Y-11201984D02*
X16088467Y-11201984D01*
X16088467Y-11201984D02*
X16002753Y-11401984D01*
X16155134Y-11201984D02*
X16155134Y-11240079D01*
X16231325Y-11201984D02*
X16231325Y-11240079D01*
X16526563Y-11478174D02*
X16517039Y-11468650D01*
X16517039Y-11468650D02*
X16497991Y-11440079D01*
X16497991Y-11440079D02*
X16488468Y-11421031D01*
X16488468Y-11421031D02*
X16478944Y-11392460D01*
X16478944Y-11392460D02*
X16469420Y-11344841D01*
X16469420Y-11344841D02*
X16469420Y-11306746D01*
X16469420Y-11306746D02*
X16478944Y-11259127D01*
X16478944Y-11259127D02*
X16488468Y-11230555D01*
X16488468Y-11230555D02*
X16497991Y-11211508D01*
X16497991Y-11211508D02*
X16517039Y-11182936D01*
X16517039Y-11182936D02*
X16526563Y-11173412D01*
X16583706Y-11201984D02*
X16707515Y-11201984D01*
X16707515Y-11201984D02*
X16640848Y-11278174D01*
X16640848Y-11278174D02*
X16669420Y-11278174D01*
X16669420Y-11278174D02*
X16688468Y-11287698D01*
X16688468Y-11287698D02*
X16697991Y-11297222D01*
X16697991Y-11297222D02*
X16707515Y-11316269D01*
X16707515Y-11316269D02*
X16707515Y-11363888D01*
X16707515Y-11363888D02*
X16697991Y-11382936D01*
X16697991Y-11382936D02*
X16688468Y-11392460D01*
X16688468Y-11392460D02*
X16669420Y-11401984D01*
X16669420Y-11401984D02*
X16612277Y-11401984D01*
X16612277Y-11401984D02*
X16593229Y-11392460D01*
X16593229Y-11392460D02*
X16583706Y-11382936D01*
X16783706Y-11221031D02*
X16793230Y-11211508D01*
X16793230Y-11211508D02*
X16812277Y-11201984D01*
X16812277Y-11201984D02*
X16859896Y-11201984D01*
X16859896Y-11201984D02*
X16878944Y-11211508D01*
X16878944Y-11211508D02*
X16888468Y-11221031D01*
X16888468Y-11221031D02*
X16897991Y-11240079D01*
X16897991Y-11240079D02*
X16897991Y-11259127D01*
X16897991Y-11259127D02*
X16888468Y-11287698D01*
X16888468Y-11287698D02*
X16774182Y-11401984D01*
X16774182Y-11401984D02*
X16897991Y-11401984D01*
X17136087Y-11401984D02*
X17136087Y-11201984D01*
X17221801Y-11401984D02*
X17221801Y-11297222D01*
X17221801Y-11297222D02*
X17212277Y-11278174D01*
X17212277Y-11278174D02*
X17193230Y-11268650D01*
X17193230Y-11268650D02*
X17164658Y-11268650D01*
X17164658Y-11268650D02*
X17145611Y-11278174D01*
X17145611Y-11278174D02*
X17136087Y-11287698D01*
X17345611Y-11401984D02*
X17326563Y-11392460D01*
X17326563Y-11392460D02*
X17317039Y-11382936D01*
X17317039Y-11382936D02*
X17307515Y-11363888D01*
X17307515Y-11363888D02*
X17307515Y-11306746D01*
X17307515Y-11306746D02*
X17317039Y-11287698D01*
X17317039Y-11287698D02*
X17326563Y-11278174D01*
X17326563Y-11278174D02*
X17345611Y-11268650D01*
X17345611Y-11268650D02*
X17374182Y-11268650D01*
X17374182Y-11268650D02*
X17393230Y-11278174D01*
X17393230Y-11278174D02*
X17402753Y-11287698D01*
X17402753Y-11287698D02*
X17412277Y-11306746D01*
X17412277Y-11306746D02*
X17412277Y-11363888D01*
X17412277Y-11363888D02*
X17402753Y-11382936D01*
X17402753Y-11382936D02*
X17393230Y-11392460D01*
X17393230Y-11392460D02*
X17374182Y-11401984D01*
X17374182Y-11401984D02*
X17345611Y-11401984D01*
X17526563Y-11401984D02*
X17507515Y-11392460D01*
X17507515Y-11392460D02*
X17497992Y-11373412D01*
X17497992Y-11373412D02*
X17497992Y-11201984D01*
X17678944Y-11392460D02*
X17659896Y-11401984D01*
X17659896Y-11401984D02*
X17621801Y-11401984D01*
X17621801Y-11401984D02*
X17602753Y-11392460D01*
X17602753Y-11392460D02*
X17593230Y-11373412D01*
X17593230Y-11373412D02*
X17593230Y-11297222D01*
X17593230Y-11297222D02*
X17602753Y-11278174D01*
X17602753Y-11278174D02*
X17621801Y-11268650D01*
X17621801Y-11268650D02*
X17659896Y-11268650D01*
X17659896Y-11268650D02*
X17678944Y-11278174D01*
X17678944Y-11278174D02*
X17688468Y-11297222D01*
X17688468Y-11297222D02*
X17688468Y-11316269D01*
X17688468Y-11316269D02*
X17593230Y-11335317D01*
X17764658Y-11392460D02*
X17783706Y-11401984D01*
X17783706Y-11401984D02*
X17821801Y-11401984D01*
X17821801Y-11401984D02*
X17840849Y-11392460D01*
X17840849Y-11392460D02*
X17850373Y-11373412D01*
X17850373Y-11373412D02*
X17850373Y-11363888D01*
X17850373Y-11363888D02*
X17840849Y-11344841D01*
X17840849Y-11344841D02*
X17821801Y-11335317D01*
X17821801Y-11335317D02*
X17793230Y-11335317D01*
X17793230Y-11335317D02*
X17774182Y-11325793D01*
X17774182Y-11325793D02*
X17764658Y-11306746D01*
X17764658Y-11306746D02*
X17764658Y-11297222D01*
X17764658Y-11297222D02*
X17774182Y-11278174D01*
X17774182Y-11278174D02*
X17793230Y-11268650D01*
X17793230Y-11268650D02*
X17821801Y-11268650D01*
X17821801Y-11268650D02*
X17840849Y-11278174D01*
X17917039Y-11478174D02*
X17926563Y-11468650D01*
X17926563Y-11468650D02*
X17945611Y-11440079D01*
X17945611Y-11440079D02*
X17955134Y-11421031D01*
X17955134Y-11421031D02*
X17964658Y-11392460D01*
X17964658Y-11392460D02*
X17974182Y-11344841D01*
X17974182Y-11344841D02*
X17974182Y-11306746D01*
X17974182Y-11306746D02*
X17964658Y-11259127D01*
X17964658Y-11259127D02*
X17955134Y-11230555D01*
X17955134Y-11230555D02*
X17945611Y-11211508D01*
X17945611Y-11211508D02*
X17926563Y-11182936D01*
X17926563Y-11182936D02*
X17917039Y-11173412D01*
D12*
X12951500Y-11574500D02*
G75*
G02*
X12905500Y-11574500I-23000J0D01*
G01*
X12905500Y-11574500D02*
G75*
G02*
X12951500Y-11574500I23000J0D01*
G01*
D11*
X13250372Y-11465984D02*
X13269420Y-11465984D01*
X13269420Y-11465984D02*
X13288467Y-11475508D01*
X13288467Y-11475508D02*
X13297991Y-11485031D01*
X13297991Y-11485031D02*
X13307515Y-11504079D01*
X13307515Y-11504079D02*
X13317039Y-11542174D01*
X13317039Y-11542174D02*
X13317039Y-11589793D01*
X13317039Y-11589793D02*
X13307515Y-11627888D01*
X13307515Y-11627888D02*
X13297991Y-11646936D01*
X13297991Y-11646936D02*
X13288467Y-11656460D01*
X13288467Y-11656460D02*
X13269420Y-11665984D01*
X13269420Y-11665984D02*
X13250372Y-11665984D01*
X13250372Y-11665984D02*
X13231324Y-11656460D01*
X13231324Y-11656460D02*
X13221801Y-11646936D01*
X13221801Y-11646936D02*
X13212277Y-11627888D01*
X13212277Y-11627888D02*
X13202753Y-11589793D01*
X13202753Y-11589793D02*
X13202753Y-11542174D01*
X13202753Y-11542174D02*
X13212277Y-11504079D01*
X13212277Y-11504079D02*
X13221801Y-11485031D01*
X13221801Y-11485031D02*
X13231324Y-11475508D01*
X13231324Y-11475508D02*
X13250372Y-11465984D01*
X13402753Y-11646936D02*
X13412277Y-11656460D01*
X13412277Y-11656460D02*
X13402753Y-11665984D01*
X13402753Y-11665984D02*
X13393229Y-11656460D01*
X13393229Y-11656460D02*
X13402753Y-11646936D01*
X13402753Y-11646936D02*
X13402753Y-11665984D01*
X13583705Y-11532650D02*
X13583705Y-11665984D01*
X13536086Y-11456460D02*
X13488467Y-11599317D01*
X13488467Y-11599317D02*
X13612277Y-11599317D01*
X13774182Y-11465984D02*
X13736086Y-11465984D01*
X13736086Y-11465984D02*
X13717039Y-11475508D01*
X13717039Y-11475508D02*
X13707515Y-11485031D01*
X13707515Y-11485031D02*
X13688467Y-11513603D01*
X13688467Y-11513603D02*
X13678943Y-11551698D01*
X13678943Y-11551698D02*
X13678943Y-11627888D01*
X13678943Y-11627888D02*
X13688467Y-11646936D01*
X13688467Y-11646936D02*
X13697991Y-11656460D01*
X13697991Y-11656460D02*
X13717039Y-11665984D01*
X13717039Y-11665984D02*
X13755134Y-11665984D01*
X13755134Y-11665984D02*
X13774182Y-11656460D01*
X13774182Y-11656460D02*
X13783705Y-11646936D01*
X13783705Y-11646936D02*
X13793229Y-11627888D01*
X13793229Y-11627888D02*
X13793229Y-11580269D01*
X13793229Y-11580269D02*
X13783705Y-11561222D01*
X13783705Y-11561222D02*
X13774182Y-11551698D01*
X13774182Y-11551698D02*
X13755134Y-11542174D01*
X13755134Y-11542174D02*
X13717039Y-11542174D01*
X13717039Y-11542174D02*
X13697991Y-11551698D01*
X13697991Y-11551698D02*
X13688467Y-11561222D01*
X13688467Y-11561222D02*
X13678943Y-11580269D01*
X13917039Y-11465984D02*
X13936086Y-11465984D01*
X13936086Y-11465984D02*
X13955134Y-11475508D01*
X13955134Y-11475508D02*
X13964658Y-11485031D01*
X13964658Y-11485031D02*
X13974182Y-11504079D01*
X13974182Y-11504079D02*
X13983705Y-11542174D01*
X13983705Y-11542174D02*
X13983705Y-11589793D01*
X13983705Y-11589793D02*
X13974182Y-11627888D01*
X13974182Y-11627888D02*
X13964658Y-11646936D01*
X13964658Y-11646936D02*
X13955134Y-11656460D01*
X13955134Y-11656460D02*
X13936086Y-11665984D01*
X13936086Y-11665984D02*
X13917039Y-11665984D01*
X13917039Y-11665984D02*
X13897991Y-11656460D01*
X13897991Y-11656460D02*
X13888467Y-11646936D01*
X13888467Y-11646936D02*
X13878943Y-11627888D01*
X13878943Y-11627888D02*
X13869420Y-11589793D01*
X13869420Y-11589793D02*
X13869420Y-11542174D01*
X13869420Y-11542174D02*
X13878943Y-11504079D01*
X13878943Y-11504079D02*
X13888467Y-11485031D01*
X13888467Y-11485031D02*
X13897991Y-11475508D01*
X13897991Y-11475508D02*
X13917039Y-11465984D01*
X14069420Y-11665984D02*
X14069420Y-11532650D01*
X14069420Y-11551698D02*
X14078943Y-11542174D01*
X14078943Y-11542174D02*
X14097991Y-11532650D01*
X14097991Y-11532650D02*
X14126563Y-11532650D01*
X14126563Y-11532650D02*
X14145610Y-11542174D01*
X14145610Y-11542174D02*
X14155134Y-11561222D01*
X14155134Y-11561222D02*
X14155134Y-11665984D01*
X14155134Y-11561222D02*
X14164658Y-11542174D01*
X14164658Y-11542174D02*
X14183705Y-11532650D01*
X14183705Y-11532650D02*
X14212277Y-11532650D01*
X14212277Y-11532650D02*
X14231324Y-11542174D01*
X14231324Y-11542174D02*
X14240848Y-11561222D01*
X14240848Y-11561222D02*
X14240848Y-11665984D01*
X14336086Y-11665984D02*
X14336086Y-11532650D01*
X14336086Y-11551698D02*
X14345610Y-11542174D01*
X14345610Y-11542174D02*
X14364658Y-11532650D01*
X14364658Y-11532650D02*
X14393229Y-11532650D01*
X14393229Y-11532650D02*
X14412277Y-11542174D01*
X14412277Y-11542174D02*
X14421801Y-11561222D01*
X14421801Y-11561222D02*
X14421801Y-11665984D01*
X14421801Y-11561222D02*
X14431324Y-11542174D01*
X14431324Y-11542174D02*
X14450372Y-11532650D01*
X14450372Y-11532650D02*
X14478943Y-11532650D01*
X14478943Y-11532650D02*
X14497991Y-11542174D01*
X14497991Y-11542174D02*
X14507515Y-11561222D01*
X14507515Y-11561222D02*
X14507515Y-11665984D01*
X14897991Y-11456460D02*
X14726563Y-11713603D01*
X15155134Y-11465984D02*
X15174182Y-11465984D01*
X15174182Y-11465984D02*
X15193229Y-11475508D01*
X15193229Y-11475508D02*
X15202753Y-11485031D01*
X15202753Y-11485031D02*
X15212277Y-11504079D01*
X15212277Y-11504079D02*
X15221801Y-11542174D01*
X15221801Y-11542174D02*
X15221801Y-11589793D01*
X15221801Y-11589793D02*
X15212277Y-11627888D01*
X15212277Y-11627888D02*
X15202753Y-11646936D01*
X15202753Y-11646936D02*
X15193229Y-11656460D01*
X15193229Y-11656460D02*
X15174182Y-11665984D01*
X15174182Y-11665984D02*
X15155134Y-11665984D01*
X15155134Y-11665984D02*
X15136086Y-11656460D01*
X15136086Y-11656460D02*
X15126563Y-11646936D01*
X15126563Y-11646936D02*
X15117039Y-11627888D01*
X15117039Y-11627888D02*
X15107515Y-11589793D01*
X15107515Y-11589793D02*
X15107515Y-11542174D01*
X15107515Y-11542174D02*
X15117039Y-11504079D01*
X15117039Y-11504079D02*
X15126563Y-11485031D01*
X15126563Y-11485031D02*
X15136086Y-11475508D01*
X15136086Y-11475508D02*
X15155134Y-11465984D01*
X15307515Y-11646936D02*
X15317039Y-11656460D01*
X15317039Y-11656460D02*
X15307515Y-11665984D01*
X15307515Y-11665984D02*
X15297991Y-11656460D01*
X15297991Y-11656460D02*
X15307515Y-11646936D01*
X15307515Y-11646936D02*
X15307515Y-11665984D01*
X15440848Y-11465984D02*
X15459896Y-11465984D01*
X15459896Y-11465984D02*
X15478944Y-11475508D01*
X15478944Y-11475508D02*
X15488467Y-11485031D01*
X15488467Y-11485031D02*
X15497991Y-11504079D01*
X15497991Y-11504079D02*
X15507515Y-11542174D01*
X15507515Y-11542174D02*
X15507515Y-11589793D01*
X15507515Y-11589793D02*
X15497991Y-11627888D01*
X15497991Y-11627888D02*
X15488467Y-11646936D01*
X15488467Y-11646936D02*
X15478944Y-11656460D01*
X15478944Y-11656460D02*
X15459896Y-11665984D01*
X15459896Y-11665984D02*
X15440848Y-11665984D01*
X15440848Y-11665984D02*
X15421801Y-11656460D01*
X15421801Y-11656460D02*
X15412277Y-11646936D01*
X15412277Y-11646936D02*
X15402753Y-11627888D01*
X15402753Y-11627888D02*
X15393229Y-11589793D01*
X15393229Y-11589793D02*
X15393229Y-11542174D01*
X15393229Y-11542174D02*
X15402753Y-11504079D01*
X15402753Y-11504079D02*
X15412277Y-11485031D01*
X15412277Y-11485031D02*
X15421801Y-11475508D01*
X15421801Y-11475508D02*
X15440848Y-11465984D01*
X15697991Y-11665984D02*
X15583706Y-11665984D01*
X15640848Y-11665984D02*
X15640848Y-11465984D01*
X15640848Y-11465984D02*
X15621801Y-11494555D01*
X15621801Y-11494555D02*
X15602753Y-11513603D01*
X15602753Y-11513603D02*
X15583706Y-11523127D01*
X15812277Y-11551698D02*
X15793229Y-11542174D01*
X15793229Y-11542174D02*
X15783706Y-11532650D01*
X15783706Y-11532650D02*
X15774182Y-11513603D01*
X15774182Y-11513603D02*
X15774182Y-11504079D01*
X15774182Y-11504079D02*
X15783706Y-11485031D01*
X15783706Y-11485031D02*
X15793229Y-11475508D01*
X15793229Y-11475508D02*
X15812277Y-11465984D01*
X15812277Y-11465984D02*
X15850372Y-11465984D01*
X15850372Y-11465984D02*
X15869420Y-11475508D01*
X15869420Y-11475508D02*
X15878944Y-11485031D01*
X15878944Y-11485031D02*
X15888467Y-11504079D01*
X15888467Y-11504079D02*
X15888467Y-11513603D01*
X15888467Y-11513603D02*
X15878944Y-11532650D01*
X15878944Y-11532650D02*
X15869420Y-11542174D01*
X15869420Y-11542174D02*
X15850372Y-11551698D01*
X15850372Y-11551698D02*
X15812277Y-11551698D01*
X15812277Y-11551698D02*
X15793229Y-11561222D01*
X15793229Y-11561222D02*
X15783706Y-11570746D01*
X15783706Y-11570746D02*
X15774182Y-11589793D01*
X15774182Y-11589793D02*
X15774182Y-11627888D01*
X15774182Y-11627888D02*
X15783706Y-11646936D01*
X15783706Y-11646936D02*
X15793229Y-11656460D01*
X15793229Y-11656460D02*
X15812277Y-11665984D01*
X15812277Y-11665984D02*
X15850372Y-11665984D01*
X15850372Y-11665984D02*
X15869420Y-11656460D01*
X15869420Y-11656460D02*
X15878944Y-11646936D01*
X15878944Y-11646936D02*
X15888467Y-11627888D01*
X15888467Y-11627888D02*
X15888467Y-11589793D01*
X15888467Y-11589793D02*
X15878944Y-11570746D01*
X15878944Y-11570746D02*
X15869420Y-11561222D01*
X15869420Y-11561222D02*
X15850372Y-11551698D01*
X16078944Y-11665984D02*
X15964658Y-11665984D01*
X16021801Y-11665984D02*
X16021801Y-11465984D01*
X16021801Y-11465984D02*
X16002753Y-11494555D01*
X16002753Y-11494555D02*
X15983706Y-11513603D01*
X15983706Y-11513603D02*
X15964658Y-11523127D01*
X16155134Y-11465984D02*
X16155134Y-11504079D01*
X16231325Y-11465984D02*
X16231325Y-11504079D01*
X16526563Y-11742174D02*
X16517039Y-11732650D01*
X16517039Y-11732650D02*
X16497991Y-11704079D01*
X16497991Y-11704079D02*
X16488468Y-11685031D01*
X16488468Y-11685031D02*
X16478944Y-11656460D01*
X16478944Y-11656460D02*
X16469420Y-11608841D01*
X16469420Y-11608841D02*
X16469420Y-11570746D01*
X16469420Y-11570746D02*
X16478944Y-11523127D01*
X16478944Y-11523127D02*
X16488468Y-11494555D01*
X16488468Y-11494555D02*
X16497991Y-11475508D01*
X16497991Y-11475508D02*
X16517039Y-11446936D01*
X16517039Y-11446936D02*
X16526563Y-11437412D01*
X16593229Y-11485031D02*
X16602753Y-11475508D01*
X16602753Y-11475508D02*
X16621801Y-11465984D01*
X16621801Y-11465984D02*
X16669420Y-11465984D01*
X16669420Y-11465984D02*
X16688468Y-11475508D01*
X16688468Y-11475508D02*
X16697991Y-11485031D01*
X16697991Y-11485031D02*
X16707515Y-11504079D01*
X16707515Y-11504079D02*
X16707515Y-11523127D01*
X16707515Y-11523127D02*
X16697991Y-11551698D01*
X16697991Y-11551698D02*
X16583706Y-11665984D01*
X16583706Y-11665984D02*
X16707515Y-11665984D01*
X16945611Y-11665984D02*
X16945611Y-11465984D01*
X17031325Y-11665984D02*
X17031325Y-11561222D01*
X17031325Y-11561222D02*
X17021801Y-11542174D01*
X17021801Y-11542174D02*
X17002753Y-11532650D01*
X17002753Y-11532650D02*
X16974182Y-11532650D01*
X16974182Y-11532650D02*
X16955134Y-11542174D01*
X16955134Y-11542174D02*
X16945611Y-11551698D01*
X17155134Y-11665984D02*
X17136087Y-11656460D01*
X17136087Y-11656460D02*
X17126563Y-11646936D01*
X17126563Y-11646936D02*
X17117039Y-11627888D01*
X17117039Y-11627888D02*
X17117039Y-11570746D01*
X17117039Y-11570746D02*
X17126563Y-11551698D01*
X17126563Y-11551698D02*
X17136087Y-11542174D01*
X17136087Y-11542174D02*
X17155134Y-11532650D01*
X17155134Y-11532650D02*
X17183706Y-11532650D01*
X17183706Y-11532650D02*
X17202753Y-11542174D01*
X17202753Y-11542174D02*
X17212277Y-11551698D01*
X17212277Y-11551698D02*
X17221801Y-11570746D01*
X17221801Y-11570746D02*
X17221801Y-11627888D01*
X17221801Y-11627888D02*
X17212277Y-11646936D01*
X17212277Y-11646936D02*
X17202753Y-11656460D01*
X17202753Y-11656460D02*
X17183706Y-11665984D01*
X17183706Y-11665984D02*
X17155134Y-11665984D01*
X17336087Y-11665984D02*
X17317039Y-11656460D01*
X17317039Y-11656460D02*
X17307515Y-11637412D01*
X17307515Y-11637412D02*
X17307515Y-11465984D01*
X17488468Y-11656460D02*
X17469420Y-11665984D01*
X17469420Y-11665984D02*
X17431325Y-11665984D01*
X17431325Y-11665984D02*
X17412277Y-11656460D01*
X17412277Y-11656460D02*
X17402753Y-11637412D01*
X17402753Y-11637412D02*
X17402753Y-11561222D01*
X17402753Y-11561222D02*
X17412277Y-11542174D01*
X17412277Y-11542174D02*
X17431325Y-11532650D01*
X17431325Y-11532650D02*
X17469420Y-11532650D01*
X17469420Y-11532650D02*
X17488468Y-11542174D01*
X17488468Y-11542174D02*
X17497992Y-11561222D01*
X17497992Y-11561222D02*
X17497992Y-11580269D01*
X17497992Y-11580269D02*
X17402753Y-11599317D01*
X17574182Y-11656460D02*
X17593230Y-11665984D01*
X17593230Y-11665984D02*
X17631325Y-11665984D01*
X17631325Y-11665984D02*
X17650373Y-11656460D01*
X17650373Y-11656460D02*
X17659896Y-11637412D01*
X17659896Y-11637412D02*
X17659896Y-11627888D01*
X17659896Y-11627888D02*
X17650373Y-11608841D01*
X17650373Y-11608841D02*
X17631325Y-11599317D01*
X17631325Y-11599317D02*
X17602753Y-11599317D01*
X17602753Y-11599317D02*
X17583706Y-11589793D01*
X17583706Y-11589793D02*
X17574182Y-11570746D01*
X17574182Y-11570746D02*
X17574182Y-11561222D01*
X17574182Y-11561222D02*
X17583706Y-11542174D01*
X17583706Y-11542174D02*
X17602753Y-11532650D01*
X17602753Y-11532650D02*
X17631325Y-11532650D01*
X17631325Y-11532650D02*
X17650373Y-11542174D01*
X17726563Y-11742174D02*
X17736087Y-11732650D01*
X17736087Y-11732650D02*
X17755134Y-11704079D01*
X17755134Y-11704079D02*
X17764658Y-11685031D01*
X17764658Y-11685031D02*
X17774182Y-11656460D01*
X17774182Y-11656460D02*
X17783706Y-11608841D01*
X17783706Y-11608841D02*
X17783706Y-11570746D01*
X17783706Y-11570746D02*
X17774182Y-11523127D01*
X17774182Y-11523127D02*
X17764658Y-11494555D01*
X17764658Y-11494555D02*
X17755134Y-11475508D01*
X17755134Y-11475508D02*
X17736087Y-11446936D01*
X17736087Y-11446936D02*
X17726563Y-11437412D01*
D12*
X12921500Y-11808500D02*
X12921500Y-11868500D01*
X12891500Y-11838500D02*
X12951500Y-11838500D01*
D11*
X13250372Y-11729984D02*
X13269420Y-11729984D01*
X13269420Y-11729984D02*
X13288467Y-11739508D01*
X13288467Y-11739508D02*
X13297991Y-11749031D01*
X13297991Y-11749031D02*
X13307515Y-11768079D01*
X13307515Y-11768079D02*
X13317039Y-11806174D01*
X13317039Y-11806174D02*
X13317039Y-11853793D01*
X13317039Y-11853793D02*
X13307515Y-11891888D01*
X13307515Y-11891888D02*
X13297991Y-11910936D01*
X13297991Y-11910936D02*
X13288467Y-11920460D01*
X13288467Y-11920460D02*
X13269420Y-11929984D01*
X13269420Y-11929984D02*
X13250372Y-11929984D01*
X13250372Y-11929984D02*
X13231324Y-11920460D01*
X13231324Y-11920460D02*
X13221801Y-11910936D01*
X13221801Y-11910936D02*
X13212277Y-11891888D01*
X13212277Y-11891888D02*
X13202753Y-11853793D01*
X13202753Y-11853793D02*
X13202753Y-11806174D01*
X13202753Y-11806174D02*
X13212277Y-11768079D01*
X13212277Y-11768079D02*
X13221801Y-11749031D01*
X13221801Y-11749031D02*
X13231324Y-11739508D01*
X13231324Y-11739508D02*
X13250372Y-11729984D01*
X13402753Y-11910936D02*
X13412277Y-11920460D01*
X13412277Y-11920460D02*
X13402753Y-11929984D01*
X13402753Y-11929984D02*
X13393229Y-11920460D01*
X13393229Y-11920460D02*
X13402753Y-11910936D01*
X13402753Y-11910936D02*
X13402753Y-11929984D01*
X13583705Y-11729984D02*
X13545610Y-11729984D01*
X13545610Y-11729984D02*
X13526562Y-11739508D01*
X13526562Y-11739508D02*
X13517039Y-11749031D01*
X13517039Y-11749031D02*
X13497991Y-11777603D01*
X13497991Y-11777603D02*
X13488467Y-11815698D01*
X13488467Y-11815698D02*
X13488467Y-11891888D01*
X13488467Y-11891888D02*
X13497991Y-11910936D01*
X13497991Y-11910936D02*
X13507515Y-11920460D01*
X13507515Y-11920460D02*
X13526562Y-11929984D01*
X13526562Y-11929984D02*
X13564658Y-11929984D01*
X13564658Y-11929984D02*
X13583705Y-11920460D01*
X13583705Y-11920460D02*
X13593229Y-11910936D01*
X13593229Y-11910936D02*
X13602753Y-11891888D01*
X13602753Y-11891888D02*
X13602753Y-11844269D01*
X13602753Y-11844269D02*
X13593229Y-11825222D01*
X13593229Y-11825222D02*
X13583705Y-11815698D01*
X13583705Y-11815698D02*
X13564658Y-11806174D01*
X13564658Y-11806174D02*
X13526562Y-11806174D01*
X13526562Y-11806174D02*
X13507515Y-11815698D01*
X13507515Y-11815698D02*
X13497991Y-11825222D01*
X13497991Y-11825222D02*
X13488467Y-11844269D01*
X13726562Y-11729984D02*
X13745610Y-11729984D01*
X13745610Y-11729984D02*
X13764658Y-11739508D01*
X13764658Y-11739508D02*
X13774182Y-11749031D01*
X13774182Y-11749031D02*
X13783705Y-11768079D01*
X13783705Y-11768079D02*
X13793229Y-11806174D01*
X13793229Y-11806174D02*
X13793229Y-11853793D01*
X13793229Y-11853793D02*
X13783705Y-11891888D01*
X13783705Y-11891888D02*
X13774182Y-11910936D01*
X13774182Y-11910936D02*
X13764658Y-11920460D01*
X13764658Y-11920460D02*
X13745610Y-11929984D01*
X13745610Y-11929984D02*
X13726562Y-11929984D01*
X13726562Y-11929984D02*
X13707515Y-11920460D01*
X13707515Y-11920460D02*
X13697991Y-11910936D01*
X13697991Y-11910936D02*
X13688467Y-11891888D01*
X13688467Y-11891888D02*
X13678943Y-11853793D01*
X13678943Y-11853793D02*
X13678943Y-11806174D01*
X13678943Y-11806174D02*
X13688467Y-11768079D01*
X13688467Y-11768079D02*
X13697991Y-11749031D01*
X13697991Y-11749031D02*
X13707515Y-11739508D01*
X13707515Y-11739508D02*
X13726562Y-11729984D01*
X13917039Y-11729984D02*
X13936086Y-11729984D01*
X13936086Y-11729984D02*
X13955134Y-11739508D01*
X13955134Y-11739508D02*
X13964658Y-11749031D01*
X13964658Y-11749031D02*
X13974182Y-11768079D01*
X13974182Y-11768079D02*
X13983705Y-11806174D01*
X13983705Y-11806174D02*
X13983705Y-11853793D01*
X13983705Y-11853793D02*
X13974182Y-11891888D01*
X13974182Y-11891888D02*
X13964658Y-11910936D01*
X13964658Y-11910936D02*
X13955134Y-11920460D01*
X13955134Y-11920460D02*
X13936086Y-11929984D01*
X13936086Y-11929984D02*
X13917039Y-11929984D01*
X13917039Y-11929984D02*
X13897991Y-11920460D01*
X13897991Y-11920460D02*
X13888467Y-11910936D01*
X13888467Y-11910936D02*
X13878943Y-11891888D01*
X13878943Y-11891888D02*
X13869420Y-11853793D01*
X13869420Y-11853793D02*
X13869420Y-11806174D01*
X13869420Y-11806174D02*
X13878943Y-11768079D01*
X13878943Y-11768079D02*
X13888467Y-11749031D01*
X13888467Y-11749031D02*
X13897991Y-11739508D01*
X13897991Y-11739508D02*
X13917039Y-11729984D01*
X14069420Y-11929984D02*
X14069420Y-11796650D01*
X14069420Y-11815698D02*
X14078943Y-11806174D01*
X14078943Y-11806174D02*
X14097991Y-11796650D01*
X14097991Y-11796650D02*
X14126563Y-11796650D01*
X14126563Y-11796650D02*
X14145610Y-11806174D01*
X14145610Y-11806174D02*
X14155134Y-11825222D01*
X14155134Y-11825222D02*
X14155134Y-11929984D01*
X14155134Y-11825222D02*
X14164658Y-11806174D01*
X14164658Y-11806174D02*
X14183705Y-11796650D01*
X14183705Y-11796650D02*
X14212277Y-11796650D01*
X14212277Y-11796650D02*
X14231324Y-11806174D01*
X14231324Y-11806174D02*
X14240848Y-11825222D01*
X14240848Y-11825222D02*
X14240848Y-11929984D01*
X14336086Y-11929984D02*
X14336086Y-11796650D01*
X14336086Y-11815698D02*
X14345610Y-11806174D01*
X14345610Y-11806174D02*
X14364658Y-11796650D01*
X14364658Y-11796650D02*
X14393229Y-11796650D01*
X14393229Y-11796650D02*
X14412277Y-11806174D01*
X14412277Y-11806174D02*
X14421801Y-11825222D01*
X14421801Y-11825222D02*
X14421801Y-11929984D01*
X14421801Y-11825222D02*
X14431324Y-11806174D01*
X14431324Y-11806174D02*
X14450372Y-11796650D01*
X14450372Y-11796650D02*
X14478943Y-11796650D01*
X14478943Y-11796650D02*
X14497991Y-11806174D01*
X14497991Y-11806174D02*
X14507515Y-11825222D01*
X14507515Y-11825222D02*
X14507515Y-11929984D01*
X14897991Y-11720460D02*
X14726563Y-11977603D01*
X15155134Y-11729984D02*
X15174182Y-11729984D01*
X15174182Y-11729984D02*
X15193229Y-11739508D01*
X15193229Y-11739508D02*
X15202753Y-11749031D01*
X15202753Y-11749031D02*
X15212277Y-11768079D01*
X15212277Y-11768079D02*
X15221801Y-11806174D01*
X15221801Y-11806174D02*
X15221801Y-11853793D01*
X15221801Y-11853793D02*
X15212277Y-11891888D01*
X15212277Y-11891888D02*
X15202753Y-11910936D01*
X15202753Y-11910936D02*
X15193229Y-11920460D01*
X15193229Y-11920460D02*
X15174182Y-11929984D01*
X15174182Y-11929984D02*
X15155134Y-11929984D01*
X15155134Y-11929984D02*
X15136086Y-11920460D01*
X15136086Y-11920460D02*
X15126563Y-11910936D01*
X15126563Y-11910936D02*
X15117039Y-11891888D01*
X15117039Y-11891888D02*
X15107515Y-11853793D01*
X15107515Y-11853793D02*
X15107515Y-11806174D01*
X15107515Y-11806174D02*
X15117039Y-11768079D01*
X15117039Y-11768079D02*
X15126563Y-11749031D01*
X15126563Y-11749031D02*
X15136086Y-11739508D01*
X15136086Y-11739508D02*
X15155134Y-11729984D01*
X15307515Y-11910936D02*
X15317039Y-11920460D01*
X15317039Y-11920460D02*
X15307515Y-11929984D01*
X15307515Y-11929984D02*
X15297991Y-11920460D01*
X15297991Y-11920460D02*
X15307515Y-11910936D01*
X15307515Y-11910936D02*
X15307515Y-11929984D01*
X15440848Y-11729984D02*
X15459896Y-11729984D01*
X15459896Y-11729984D02*
X15478944Y-11739508D01*
X15478944Y-11739508D02*
X15488467Y-11749031D01*
X15488467Y-11749031D02*
X15497991Y-11768079D01*
X15497991Y-11768079D02*
X15507515Y-11806174D01*
X15507515Y-11806174D02*
X15507515Y-11853793D01*
X15507515Y-11853793D02*
X15497991Y-11891888D01*
X15497991Y-11891888D02*
X15488467Y-11910936D01*
X15488467Y-11910936D02*
X15478944Y-11920460D01*
X15478944Y-11920460D02*
X15459896Y-11929984D01*
X15459896Y-11929984D02*
X15440848Y-11929984D01*
X15440848Y-11929984D02*
X15421801Y-11920460D01*
X15421801Y-11920460D02*
X15412277Y-11910936D01*
X15412277Y-11910936D02*
X15402753Y-11891888D01*
X15402753Y-11891888D02*
X15393229Y-11853793D01*
X15393229Y-11853793D02*
X15393229Y-11806174D01*
X15393229Y-11806174D02*
X15402753Y-11768079D01*
X15402753Y-11768079D02*
X15412277Y-11749031D01*
X15412277Y-11749031D02*
X15421801Y-11739508D01*
X15421801Y-11739508D02*
X15440848Y-11729984D01*
X15583706Y-11749031D02*
X15593229Y-11739508D01*
X15593229Y-11739508D02*
X15612277Y-11729984D01*
X15612277Y-11729984D02*
X15659896Y-11729984D01*
X15659896Y-11729984D02*
X15678944Y-11739508D01*
X15678944Y-11739508D02*
X15688467Y-11749031D01*
X15688467Y-11749031D02*
X15697991Y-11768079D01*
X15697991Y-11768079D02*
X15697991Y-11787127D01*
X15697991Y-11787127D02*
X15688467Y-11815698D01*
X15688467Y-11815698D02*
X15574182Y-11929984D01*
X15574182Y-11929984D02*
X15697991Y-11929984D01*
X15764658Y-11729984D02*
X15888467Y-11729984D01*
X15888467Y-11729984D02*
X15821801Y-11806174D01*
X15821801Y-11806174D02*
X15850372Y-11806174D01*
X15850372Y-11806174D02*
X15869420Y-11815698D01*
X15869420Y-11815698D02*
X15878944Y-11825222D01*
X15878944Y-11825222D02*
X15888467Y-11844269D01*
X15888467Y-11844269D02*
X15888467Y-11891888D01*
X15888467Y-11891888D02*
X15878944Y-11910936D01*
X15878944Y-11910936D02*
X15869420Y-11920460D01*
X15869420Y-11920460D02*
X15850372Y-11929984D01*
X15850372Y-11929984D02*
X15793229Y-11929984D01*
X15793229Y-11929984D02*
X15774182Y-11920460D01*
X15774182Y-11920460D02*
X15764658Y-11910936D01*
X16059896Y-11729984D02*
X16021801Y-11729984D01*
X16021801Y-11729984D02*
X16002753Y-11739508D01*
X16002753Y-11739508D02*
X15993229Y-11749031D01*
X15993229Y-11749031D02*
X15974182Y-11777603D01*
X15974182Y-11777603D02*
X15964658Y-11815698D01*
X15964658Y-11815698D02*
X15964658Y-11891888D01*
X15964658Y-11891888D02*
X15974182Y-11910936D01*
X15974182Y-11910936D02*
X15983706Y-11920460D01*
X15983706Y-11920460D02*
X16002753Y-11929984D01*
X16002753Y-11929984D02*
X16040848Y-11929984D01*
X16040848Y-11929984D02*
X16059896Y-11920460D01*
X16059896Y-11920460D02*
X16069420Y-11910936D01*
X16069420Y-11910936D02*
X16078944Y-11891888D01*
X16078944Y-11891888D02*
X16078944Y-11844269D01*
X16078944Y-11844269D02*
X16069420Y-11825222D01*
X16069420Y-11825222D02*
X16059896Y-11815698D01*
X16059896Y-11815698D02*
X16040848Y-11806174D01*
X16040848Y-11806174D02*
X16002753Y-11806174D01*
X16002753Y-11806174D02*
X15983706Y-11815698D01*
X15983706Y-11815698D02*
X15974182Y-11825222D01*
X15974182Y-11825222D02*
X15964658Y-11844269D01*
X16155134Y-11729984D02*
X16155134Y-11768079D01*
X16231325Y-11729984D02*
X16231325Y-11768079D01*
X16526563Y-12006174D02*
X16517039Y-11996650D01*
X16517039Y-11996650D02*
X16497991Y-11968079D01*
X16497991Y-11968079D02*
X16488468Y-11949031D01*
X16488468Y-11949031D02*
X16478944Y-11920460D01*
X16478944Y-11920460D02*
X16469420Y-11872841D01*
X16469420Y-11872841D02*
X16469420Y-11834746D01*
X16469420Y-11834746D02*
X16478944Y-11787127D01*
X16478944Y-11787127D02*
X16488468Y-11758555D01*
X16488468Y-11758555D02*
X16497991Y-11739508D01*
X16497991Y-11739508D02*
X16517039Y-11710936D01*
X16517039Y-11710936D02*
X16526563Y-11701412D01*
X16707515Y-11929984D02*
X16593229Y-11929984D01*
X16650372Y-11929984D02*
X16650372Y-11729984D01*
X16650372Y-11729984D02*
X16631325Y-11758555D01*
X16631325Y-11758555D02*
X16612277Y-11777603D01*
X16612277Y-11777603D02*
X16593229Y-11787127D01*
X16821801Y-11815698D02*
X16802753Y-11806174D01*
X16802753Y-11806174D02*
X16793230Y-11796650D01*
X16793230Y-11796650D02*
X16783706Y-11777603D01*
X16783706Y-11777603D02*
X16783706Y-11768079D01*
X16783706Y-11768079D02*
X16793230Y-11749031D01*
X16793230Y-11749031D02*
X16802753Y-11739508D01*
X16802753Y-11739508D02*
X16821801Y-11729984D01*
X16821801Y-11729984D02*
X16859896Y-11729984D01*
X16859896Y-11729984D02*
X16878944Y-11739508D01*
X16878944Y-11739508D02*
X16888468Y-11749031D01*
X16888468Y-11749031D02*
X16897991Y-11768079D01*
X16897991Y-11768079D02*
X16897991Y-11777603D01*
X16897991Y-11777603D02*
X16888468Y-11796650D01*
X16888468Y-11796650D02*
X16878944Y-11806174D01*
X16878944Y-11806174D02*
X16859896Y-11815698D01*
X16859896Y-11815698D02*
X16821801Y-11815698D01*
X16821801Y-11815698D02*
X16802753Y-11825222D01*
X16802753Y-11825222D02*
X16793230Y-11834746D01*
X16793230Y-11834746D02*
X16783706Y-11853793D01*
X16783706Y-11853793D02*
X16783706Y-11891888D01*
X16783706Y-11891888D02*
X16793230Y-11910936D01*
X16793230Y-11910936D02*
X16802753Y-11920460D01*
X16802753Y-11920460D02*
X16821801Y-11929984D01*
X16821801Y-11929984D02*
X16859896Y-11929984D01*
X16859896Y-11929984D02*
X16878944Y-11920460D01*
X16878944Y-11920460D02*
X16888468Y-11910936D01*
X16888468Y-11910936D02*
X16897991Y-11891888D01*
X16897991Y-11891888D02*
X16897991Y-11853793D01*
X16897991Y-11853793D02*
X16888468Y-11834746D01*
X16888468Y-11834746D02*
X16878944Y-11825222D01*
X16878944Y-11825222D02*
X16859896Y-11815698D01*
X17136087Y-11929984D02*
X17136087Y-11729984D01*
X17221801Y-11929984D02*
X17221801Y-11825222D01*
X17221801Y-11825222D02*
X17212277Y-11806174D01*
X17212277Y-11806174D02*
X17193230Y-11796650D01*
X17193230Y-11796650D02*
X17164658Y-11796650D01*
X17164658Y-11796650D02*
X17145611Y-11806174D01*
X17145611Y-11806174D02*
X17136087Y-11815698D01*
X17345611Y-11929984D02*
X17326563Y-11920460D01*
X17326563Y-11920460D02*
X17317039Y-11910936D01*
X17317039Y-11910936D02*
X17307515Y-11891888D01*
X17307515Y-11891888D02*
X17307515Y-11834746D01*
X17307515Y-11834746D02*
X17317039Y-11815698D01*
X17317039Y-11815698D02*
X17326563Y-11806174D01*
X17326563Y-11806174D02*
X17345611Y-11796650D01*
X17345611Y-11796650D02*
X17374182Y-11796650D01*
X17374182Y-11796650D02*
X17393230Y-11806174D01*
X17393230Y-11806174D02*
X17402753Y-11815698D01*
X17402753Y-11815698D02*
X17412277Y-11834746D01*
X17412277Y-11834746D02*
X17412277Y-11891888D01*
X17412277Y-11891888D02*
X17402753Y-11910936D01*
X17402753Y-11910936D02*
X17393230Y-11920460D01*
X17393230Y-11920460D02*
X17374182Y-11929984D01*
X17374182Y-11929984D02*
X17345611Y-11929984D01*
X17526563Y-11929984D02*
X17507515Y-11920460D01*
X17507515Y-11920460D02*
X17497992Y-11901412D01*
X17497992Y-11901412D02*
X17497992Y-11729984D01*
X17678944Y-11920460D02*
X17659896Y-11929984D01*
X17659896Y-11929984D02*
X17621801Y-11929984D01*
X17621801Y-11929984D02*
X17602753Y-11920460D01*
X17602753Y-11920460D02*
X17593230Y-11901412D01*
X17593230Y-11901412D02*
X17593230Y-11825222D01*
X17593230Y-11825222D02*
X17602753Y-11806174D01*
X17602753Y-11806174D02*
X17621801Y-11796650D01*
X17621801Y-11796650D02*
X17659896Y-11796650D01*
X17659896Y-11796650D02*
X17678944Y-11806174D01*
X17678944Y-11806174D02*
X17688468Y-11825222D01*
X17688468Y-11825222D02*
X17688468Y-11844269D01*
X17688468Y-11844269D02*
X17593230Y-11863317D01*
X17764658Y-11920460D02*
X17783706Y-11929984D01*
X17783706Y-11929984D02*
X17821801Y-11929984D01*
X17821801Y-11929984D02*
X17840849Y-11920460D01*
X17840849Y-11920460D02*
X17850373Y-11901412D01*
X17850373Y-11901412D02*
X17850373Y-11891888D01*
X17850373Y-11891888D02*
X17840849Y-11872841D01*
X17840849Y-11872841D02*
X17821801Y-11863317D01*
X17821801Y-11863317D02*
X17793230Y-11863317D01*
X17793230Y-11863317D02*
X17774182Y-11853793D01*
X17774182Y-11853793D02*
X17764658Y-11834746D01*
X17764658Y-11834746D02*
X17764658Y-11825222D01*
X17764658Y-11825222D02*
X17774182Y-11806174D01*
X17774182Y-11806174D02*
X17793230Y-11796650D01*
X17793230Y-11796650D02*
X17821801Y-11796650D01*
X17821801Y-11796650D02*
X17840849Y-11806174D01*
X17917039Y-12006174D02*
X17926563Y-11996650D01*
X17926563Y-11996650D02*
X17945611Y-11968079D01*
X17945611Y-11968079D02*
X17955134Y-11949031D01*
X17955134Y-11949031D02*
X17964658Y-11920460D01*
X17964658Y-11920460D02*
X17974182Y-11872841D01*
X17974182Y-11872841D02*
X17974182Y-11834746D01*
X17974182Y-11834746D02*
X17964658Y-11787127D01*
X17964658Y-11787127D02*
X17955134Y-11758555D01*
X17955134Y-11758555D02*
X17945611Y-11739508D01*
X17945611Y-11739508D02*
X17926563Y-11710936D01*
X17926563Y-11710936D02*
X17917039Y-11701412D01*
D12*
X12941981Y-12125481D02*
X12941981Y-12079519D01*
X12896019Y-12079519D01*
X12896019Y-12125481D01*
X12941981Y-12125481D01*
D11*
X13250372Y-11993984D02*
X13269420Y-11993984D01*
X13269420Y-11993984D02*
X13288467Y-12003508D01*
X13288467Y-12003508D02*
X13297991Y-12013031D01*
X13297991Y-12013031D02*
X13307515Y-12032079D01*
X13307515Y-12032079D02*
X13317039Y-12070174D01*
X13317039Y-12070174D02*
X13317039Y-12117793D01*
X13317039Y-12117793D02*
X13307515Y-12155888D01*
X13307515Y-12155888D02*
X13297991Y-12174936D01*
X13297991Y-12174936D02*
X13288467Y-12184460D01*
X13288467Y-12184460D02*
X13269420Y-12193984D01*
X13269420Y-12193984D02*
X13250372Y-12193984D01*
X13250372Y-12193984D02*
X13231324Y-12184460D01*
X13231324Y-12184460D02*
X13221801Y-12174936D01*
X13221801Y-12174936D02*
X13212277Y-12155888D01*
X13212277Y-12155888D02*
X13202753Y-12117793D01*
X13202753Y-12117793D02*
X13202753Y-12070174D01*
X13202753Y-12070174D02*
X13212277Y-12032079D01*
X13212277Y-12032079D02*
X13221801Y-12013031D01*
X13221801Y-12013031D02*
X13231324Y-12003508D01*
X13231324Y-12003508D02*
X13250372Y-11993984D01*
X13402753Y-12174936D02*
X13412277Y-12184460D01*
X13412277Y-12184460D02*
X13402753Y-12193984D01*
X13402753Y-12193984D02*
X13393229Y-12184460D01*
X13393229Y-12184460D02*
X13402753Y-12174936D01*
X13402753Y-12174936D02*
X13402753Y-12193984D01*
X13583705Y-11993984D02*
X13545610Y-11993984D01*
X13545610Y-11993984D02*
X13526562Y-12003508D01*
X13526562Y-12003508D02*
X13517039Y-12013031D01*
X13517039Y-12013031D02*
X13497991Y-12041603D01*
X13497991Y-12041603D02*
X13488467Y-12079698D01*
X13488467Y-12079698D02*
X13488467Y-12155888D01*
X13488467Y-12155888D02*
X13497991Y-12174936D01*
X13497991Y-12174936D02*
X13507515Y-12184460D01*
X13507515Y-12184460D02*
X13526562Y-12193984D01*
X13526562Y-12193984D02*
X13564658Y-12193984D01*
X13564658Y-12193984D02*
X13583705Y-12184460D01*
X13583705Y-12184460D02*
X13593229Y-12174936D01*
X13593229Y-12174936D02*
X13602753Y-12155888D01*
X13602753Y-12155888D02*
X13602753Y-12108269D01*
X13602753Y-12108269D02*
X13593229Y-12089222D01*
X13593229Y-12089222D02*
X13583705Y-12079698D01*
X13583705Y-12079698D02*
X13564658Y-12070174D01*
X13564658Y-12070174D02*
X13526562Y-12070174D01*
X13526562Y-12070174D02*
X13507515Y-12079698D01*
X13507515Y-12079698D02*
X13497991Y-12089222D01*
X13497991Y-12089222D02*
X13488467Y-12108269D01*
X13783705Y-11993984D02*
X13688467Y-11993984D01*
X13688467Y-11993984D02*
X13678943Y-12089222D01*
X13678943Y-12089222D02*
X13688467Y-12079698D01*
X13688467Y-12079698D02*
X13707515Y-12070174D01*
X13707515Y-12070174D02*
X13755134Y-12070174D01*
X13755134Y-12070174D02*
X13774182Y-12079698D01*
X13774182Y-12079698D02*
X13783705Y-12089222D01*
X13783705Y-12089222D02*
X13793229Y-12108269D01*
X13793229Y-12108269D02*
X13793229Y-12155888D01*
X13793229Y-12155888D02*
X13783705Y-12174936D01*
X13783705Y-12174936D02*
X13774182Y-12184460D01*
X13774182Y-12184460D02*
X13755134Y-12193984D01*
X13755134Y-12193984D02*
X13707515Y-12193984D01*
X13707515Y-12193984D02*
X13688467Y-12184460D01*
X13688467Y-12184460D02*
X13678943Y-12174936D01*
X13917039Y-11993984D02*
X13936086Y-11993984D01*
X13936086Y-11993984D02*
X13955134Y-12003508D01*
X13955134Y-12003508D02*
X13964658Y-12013031D01*
X13964658Y-12013031D02*
X13974182Y-12032079D01*
X13974182Y-12032079D02*
X13983705Y-12070174D01*
X13983705Y-12070174D02*
X13983705Y-12117793D01*
X13983705Y-12117793D02*
X13974182Y-12155888D01*
X13974182Y-12155888D02*
X13964658Y-12174936D01*
X13964658Y-12174936D02*
X13955134Y-12184460D01*
X13955134Y-12184460D02*
X13936086Y-12193984D01*
X13936086Y-12193984D02*
X13917039Y-12193984D01*
X13917039Y-12193984D02*
X13897991Y-12184460D01*
X13897991Y-12184460D02*
X13888467Y-12174936D01*
X13888467Y-12174936D02*
X13878943Y-12155888D01*
X13878943Y-12155888D02*
X13869420Y-12117793D01*
X13869420Y-12117793D02*
X13869420Y-12070174D01*
X13869420Y-12070174D02*
X13878943Y-12032079D01*
X13878943Y-12032079D02*
X13888467Y-12013031D01*
X13888467Y-12013031D02*
X13897991Y-12003508D01*
X13897991Y-12003508D02*
X13917039Y-11993984D01*
X14069420Y-12193984D02*
X14069420Y-12060650D01*
X14069420Y-12079698D02*
X14078943Y-12070174D01*
X14078943Y-12070174D02*
X14097991Y-12060650D01*
X14097991Y-12060650D02*
X14126563Y-12060650D01*
X14126563Y-12060650D02*
X14145610Y-12070174D01*
X14145610Y-12070174D02*
X14155134Y-12089222D01*
X14155134Y-12089222D02*
X14155134Y-12193984D01*
X14155134Y-12089222D02*
X14164658Y-12070174D01*
X14164658Y-12070174D02*
X14183705Y-12060650D01*
X14183705Y-12060650D02*
X14212277Y-12060650D01*
X14212277Y-12060650D02*
X14231324Y-12070174D01*
X14231324Y-12070174D02*
X14240848Y-12089222D01*
X14240848Y-12089222D02*
X14240848Y-12193984D01*
X14336086Y-12193984D02*
X14336086Y-12060650D01*
X14336086Y-12079698D02*
X14345610Y-12070174D01*
X14345610Y-12070174D02*
X14364658Y-12060650D01*
X14364658Y-12060650D02*
X14393229Y-12060650D01*
X14393229Y-12060650D02*
X14412277Y-12070174D01*
X14412277Y-12070174D02*
X14421801Y-12089222D01*
X14421801Y-12089222D02*
X14421801Y-12193984D01*
X14421801Y-12089222D02*
X14431324Y-12070174D01*
X14431324Y-12070174D02*
X14450372Y-12060650D01*
X14450372Y-12060650D02*
X14478943Y-12060650D01*
X14478943Y-12060650D02*
X14497991Y-12070174D01*
X14497991Y-12070174D02*
X14507515Y-12089222D01*
X14507515Y-12089222D02*
X14507515Y-12193984D01*
X14897991Y-11984460D02*
X14726563Y-12241603D01*
X15155134Y-11993984D02*
X15174182Y-11993984D01*
X15174182Y-11993984D02*
X15193229Y-12003508D01*
X15193229Y-12003508D02*
X15202753Y-12013031D01*
X15202753Y-12013031D02*
X15212277Y-12032079D01*
X15212277Y-12032079D02*
X15221801Y-12070174D01*
X15221801Y-12070174D02*
X15221801Y-12117793D01*
X15221801Y-12117793D02*
X15212277Y-12155888D01*
X15212277Y-12155888D02*
X15202753Y-12174936D01*
X15202753Y-12174936D02*
X15193229Y-12184460D01*
X15193229Y-12184460D02*
X15174182Y-12193984D01*
X15174182Y-12193984D02*
X15155134Y-12193984D01*
X15155134Y-12193984D02*
X15136086Y-12184460D01*
X15136086Y-12184460D02*
X15126563Y-12174936D01*
X15126563Y-12174936D02*
X15117039Y-12155888D01*
X15117039Y-12155888D02*
X15107515Y-12117793D01*
X15107515Y-12117793D02*
X15107515Y-12070174D01*
X15107515Y-12070174D02*
X15117039Y-12032079D01*
X15117039Y-12032079D02*
X15126563Y-12013031D01*
X15126563Y-12013031D02*
X15136086Y-12003508D01*
X15136086Y-12003508D02*
X15155134Y-11993984D01*
X15307515Y-12174936D02*
X15317039Y-12184460D01*
X15317039Y-12184460D02*
X15307515Y-12193984D01*
X15307515Y-12193984D02*
X15297991Y-12184460D01*
X15297991Y-12184460D02*
X15307515Y-12174936D01*
X15307515Y-12174936D02*
X15307515Y-12193984D01*
X15440848Y-11993984D02*
X15459896Y-11993984D01*
X15459896Y-11993984D02*
X15478944Y-12003508D01*
X15478944Y-12003508D02*
X15488467Y-12013031D01*
X15488467Y-12013031D02*
X15497991Y-12032079D01*
X15497991Y-12032079D02*
X15507515Y-12070174D01*
X15507515Y-12070174D02*
X15507515Y-12117793D01*
X15507515Y-12117793D02*
X15497991Y-12155888D01*
X15497991Y-12155888D02*
X15488467Y-12174936D01*
X15488467Y-12174936D02*
X15478944Y-12184460D01*
X15478944Y-12184460D02*
X15459896Y-12193984D01*
X15459896Y-12193984D02*
X15440848Y-12193984D01*
X15440848Y-12193984D02*
X15421801Y-12184460D01*
X15421801Y-12184460D02*
X15412277Y-12174936D01*
X15412277Y-12174936D02*
X15402753Y-12155888D01*
X15402753Y-12155888D02*
X15393229Y-12117793D01*
X15393229Y-12117793D02*
X15393229Y-12070174D01*
X15393229Y-12070174D02*
X15402753Y-12032079D01*
X15402753Y-12032079D02*
X15412277Y-12013031D01*
X15412277Y-12013031D02*
X15421801Y-12003508D01*
X15421801Y-12003508D02*
X15440848Y-11993984D01*
X15583706Y-12013031D02*
X15593229Y-12003508D01*
X15593229Y-12003508D02*
X15612277Y-11993984D01*
X15612277Y-11993984D02*
X15659896Y-11993984D01*
X15659896Y-11993984D02*
X15678944Y-12003508D01*
X15678944Y-12003508D02*
X15688467Y-12013031D01*
X15688467Y-12013031D02*
X15697991Y-12032079D01*
X15697991Y-12032079D02*
X15697991Y-12051127D01*
X15697991Y-12051127D02*
X15688467Y-12079698D01*
X15688467Y-12079698D02*
X15574182Y-12193984D01*
X15574182Y-12193984D02*
X15697991Y-12193984D01*
X15878944Y-11993984D02*
X15783706Y-11993984D01*
X15783706Y-11993984D02*
X15774182Y-12089222D01*
X15774182Y-12089222D02*
X15783706Y-12079698D01*
X15783706Y-12079698D02*
X15802753Y-12070174D01*
X15802753Y-12070174D02*
X15850372Y-12070174D01*
X15850372Y-12070174D02*
X15869420Y-12079698D01*
X15869420Y-12079698D02*
X15878944Y-12089222D01*
X15878944Y-12089222D02*
X15888467Y-12108269D01*
X15888467Y-12108269D02*
X15888467Y-12155888D01*
X15888467Y-12155888D02*
X15878944Y-12174936D01*
X15878944Y-12174936D02*
X15869420Y-12184460D01*
X15869420Y-12184460D02*
X15850372Y-12193984D01*
X15850372Y-12193984D02*
X15802753Y-12193984D01*
X15802753Y-12193984D02*
X15783706Y-12184460D01*
X15783706Y-12184460D02*
X15774182Y-12174936D01*
X16059896Y-11993984D02*
X16021801Y-11993984D01*
X16021801Y-11993984D02*
X16002753Y-12003508D01*
X16002753Y-12003508D02*
X15993229Y-12013031D01*
X15993229Y-12013031D02*
X15974182Y-12041603D01*
X15974182Y-12041603D02*
X15964658Y-12079698D01*
X15964658Y-12079698D02*
X15964658Y-12155888D01*
X15964658Y-12155888D02*
X15974182Y-12174936D01*
X15974182Y-12174936D02*
X15983706Y-12184460D01*
X15983706Y-12184460D02*
X16002753Y-12193984D01*
X16002753Y-12193984D02*
X16040848Y-12193984D01*
X16040848Y-12193984D02*
X16059896Y-12184460D01*
X16059896Y-12184460D02*
X16069420Y-12174936D01*
X16069420Y-12174936D02*
X16078944Y-12155888D01*
X16078944Y-12155888D02*
X16078944Y-12108269D01*
X16078944Y-12108269D02*
X16069420Y-12089222D01*
X16069420Y-12089222D02*
X16059896Y-12079698D01*
X16059896Y-12079698D02*
X16040848Y-12070174D01*
X16040848Y-12070174D02*
X16002753Y-12070174D01*
X16002753Y-12070174D02*
X15983706Y-12079698D01*
X15983706Y-12079698D02*
X15974182Y-12089222D01*
X15974182Y-12089222D02*
X15964658Y-12108269D01*
X16155134Y-11993984D02*
X16155134Y-12032079D01*
X16231325Y-11993984D02*
X16231325Y-12032079D01*
X16526563Y-12270174D02*
X16517039Y-12260650D01*
X16517039Y-12260650D02*
X16497991Y-12232079D01*
X16497991Y-12232079D02*
X16488468Y-12213031D01*
X16488468Y-12213031D02*
X16478944Y-12184460D01*
X16478944Y-12184460D02*
X16469420Y-12136841D01*
X16469420Y-12136841D02*
X16469420Y-12098746D01*
X16469420Y-12098746D02*
X16478944Y-12051127D01*
X16478944Y-12051127D02*
X16488468Y-12022555D01*
X16488468Y-12022555D02*
X16497991Y-12003508D01*
X16497991Y-12003508D02*
X16517039Y-11974936D01*
X16517039Y-11974936D02*
X16526563Y-11965412D01*
X16640848Y-11993984D02*
X16659896Y-11993984D01*
X16659896Y-11993984D02*
X16678944Y-12003508D01*
X16678944Y-12003508D02*
X16688468Y-12013031D01*
X16688468Y-12013031D02*
X16697991Y-12032079D01*
X16697991Y-12032079D02*
X16707515Y-12070174D01*
X16707515Y-12070174D02*
X16707515Y-12117793D01*
X16707515Y-12117793D02*
X16697991Y-12155888D01*
X16697991Y-12155888D02*
X16688468Y-12174936D01*
X16688468Y-12174936D02*
X16678944Y-12184460D01*
X16678944Y-12184460D02*
X16659896Y-12193984D01*
X16659896Y-12193984D02*
X16640848Y-12193984D01*
X16640848Y-12193984D02*
X16621801Y-12184460D01*
X16621801Y-12184460D02*
X16612277Y-12174936D01*
X16612277Y-12174936D02*
X16602753Y-12155888D01*
X16602753Y-12155888D02*
X16593229Y-12117793D01*
X16593229Y-12117793D02*
X16593229Y-12070174D01*
X16593229Y-12070174D02*
X16602753Y-12032079D01*
X16602753Y-12032079D02*
X16612277Y-12013031D01*
X16612277Y-12013031D02*
X16621801Y-12003508D01*
X16621801Y-12003508D02*
X16640848Y-11993984D01*
X16945611Y-12193984D02*
X16945611Y-11993984D01*
X17031325Y-12193984D02*
X17031325Y-12089222D01*
X17031325Y-12089222D02*
X17021801Y-12070174D01*
X17021801Y-12070174D02*
X17002753Y-12060650D01*
X17002753Y-12060650D02*
X16974182Y-12060650D01*
X16974182Y-12060650D02*
X16955134Y-12070174D01*
X16955134Y-12070174D02*
X16945611Y-12079698D01*
X17155134Y-12193984D02*
X17136087Y-12184460D01*
X17136087Y-12184460D02*
X17126563Y-12174936D01*
X17126563Y-12174936D02*
X17117039Y-12155888D01*
X17117039Y-12155888D02*
X17117039Y-12098746D01*
X17117039Y-12098746D02*
X17126563Y-12079698D01*
X17126563Y-12079698D02*
X17136087Y-12070174D01*
X17136087Y-12070174D02*
X17155134Y-12060650D01*
X17155134Y-12060650D02*
X17183706Y-12060650D01*
X17183706Y-12060650D02*
X17202753Y-12070174D01*
X17202753Y-12070174D02*
X17212277Y-12079698D01*
X17212277Y-12079698D02*
X17221801Y-12098746D01*
X17221801Y-12098746D02*
X17221801Y-12155888D01*
X17221801Y-12155888D02*
X17212277Y-12174936D01*
X17212277Y-12174936D02*
X17202753Y-12184460D01*
X17202753Y-12184460D02*
X17183706Y-12193984D01*
X17183706Y-12193984D02*
X17155134Y-12193984D01*
X17336087Y-12193984D02*
X17317039Y-12184460D01*
X17317039Y-12184460D02*
X17307515Y-12165412D01*
X17307515Y-12165412D02*
X17307515Y-11993984D01*
X17488468Y-12184460D02*
X17469420Y-12193984D01*
X17469420Y-12193984D02*
X17431325Y-12193984D01*
X17431325Y-12193984D02*
X17412277Y-12184460D01*
X17412277Y-12184460D02*
X17402753Y-12165412D01*
X17402753Y-12165412D02*
X17402753Y-12089222D01*
X17402753Y-12089222D02*
X17412277Y-12070174D01*
X17412277Y-12070174D02*
X17431325Y-12060650D01*
X17431325Y-12060650D02*
X17469420Y-12060650D01*
X17469420Y-12060650D02*
X17488468Y-12070174D01*
X17488468Y-12070174D02*
X17497992Y-12089222D01*
X17497992Y-12089222D02*
X17497992Y-12108269D01*
X17497992Y-12108269D02*
X17402753Y-12127317D01*
X17574182Y-12184460D02*
X17593230Y-12193984D01*
X17593230Y-12193984D02*
X17631325Y-12193984D01*
X17631325Y-12193984D02*
X17650373Y-12184460D01*
X17650373Y-12184460D02*
X17659896Y-12165412D01*
X17659896Y-12165412D02*
X17659896Y-12155888D01*
X17659896Y-12155888D02*
X17650373Y-12136841D01*
X17650373Y-12136841D02*
X17631325Y-12127317D01*
X17631325Y-12127317D02*
X17602753Y-12127317D01*
X17602753Y-12127317D02*
X17583706Y-12117793D01*
X17583706Y-12117793D02*
X17574182Y-12098746D01*
X17574182Y-12098746D02*
X17574182Y-12089222D01*
X17574182Y-12089222D02*
X17583706Y-12070174D01*
X17583706Y-12070174D02*
X17602753Y-12060650D01*
X17602753Y-12060650D02*
X17631325Y-12060650D01*
X17631325Y-12060650D02*
X17650373Y-12070174D01*
X17897992Y-12117793D02*
X18050373Y-12117793D01*
X17974182Y-12193984D02*
X17974182Y-12041603D01*
X18402754Y-12193984D02*
X18288468Y-12193984D01*
X18345611Y-12193984D02*
X18345611Y-11993984D01*
X18345611Y-11993984D02*
X18326563Y-12022555D01*
X18326563Y-12022555D02*
X18307515Y-12041603D01*
X18307515Y-12041603D02*
X18288468Y-12051127D01*
X18517039Y-12079698D02*
X18497992Y-12070174D01*
X18497992Y-12070174D02*
X18488468Y-12060650D01*
X18488468Y-12060650D02*
X18478944Y-12041603D01*
X18478944Y-12041603D02*
X18478944Y-12032079D01*
X18478944Y-12032079D02*
X18488468Y-12013031D01*
X18488468Y-12013031D02*
X18497992Y-12003508D01*
X18497992Y-12003508D02*
X18517039Y-11993984D01*
X18517039Y-11993984D02*
X18555135Y-11993984D01*
X18555135Y-11993984D02*
X18574182Y-12003508D01*
X18574182Y-12003508D02*
X18583706Y-12013031D01*
X18583706Y-12013031D02*
X18593230Y-12032079D01*
X18593230Y-12032079D02*
X18593230Y-12041603D01*
X18593230Y-12041603D02*
X18583706Y-12060650D01*
X18583706Y-12060650D02*
X18574182Y-12070174D01*
X18574182Y-12070174D02*
X18555135Y-12079698D01*
X18555135Y-12079698D02*
X18517039Y-12079698D01*
X18517039Y-12079698D02*
X18497992Y-12089222D01*
X18497992Y-12089222D02*
X18488468Y-12098746D01*
X18488468Y-12098746D02*
X18478944Y-12117793D01*
X18478944Y-12117793D02*
X18478944Y-12155888D01*
X18478944Y-12155888D02*
X18488468Y-12174936D01*
X18488468Y-12174936D02*
X18497992Y-12184460D01*
X18497992Y-12184460D02*
X18517039Y-12193984D01*
X18517039Y-12193984D02*
X18555135Y-12193984D01*
X18555135Y-12193984D02*
X18574182Y-12184460D01*
X18574182Y-12184460D02*
X18583706Y-12174936D01*
X18583706Y-12174936D02*
X18593230Y-12155888D01*
X18593230Y-12155888D02*
X18593230Y-12117793D01*
X18593230Y-12117793D02*
X18583706Y-12098746D01*
X18583706Y-12098746D02*
X18574182Y-12089222D01*
X18574182Y-12089222D02*
X18555135Y-12079698D01*
X18821801Y-12184460D02*
X18840849Y-12193984D01*
X18840849Y-12193984D02*
X18878944Y-12193984D01*
X18878944Y-12193984D02*
X18897992Y-12184460D01*
X18897992Y-12184460D02*
X18907516Y-12165412D01*
X18907516Y-12165412D02*
X18907516Y-12155888D01*
X18907516Y-12155888D02*
X18897992Y-12136841D01*
X18897992Y-12136841D02*
X18878944Y-12127317D01*
X18878944Y-12127317D02*
X18850373Y-12127317D01*
X18850373Y-12127317D02*
X18831325Y-12117793D01*
X18831325Y-12117793D02*
X18821801Y-12098746D01*
X18821801Y-12098746D02*
X18821801Y-12089222D01*
X18821801Y-12089222D02*
X18831325Y-12070174D01*
X18831325Y-12070174D02*
X18850373Y-12060650D01*
X18850373Y-12060650D02*
X18878944Y-12060650D01*
X18878944Y-12060650D02*
X18897992Y-12070174D01*
X19021801Y-12193984D02*
X19002754Y-12184460D01*
X19002754Y-12184460D02*
X18993230Y-12165412D01*
X18993230Y-12165412D02*
X18993230Y-11993984D01*
X19126563Y-12193984D02*
X19107516Y-12184460D01*
X19107516Y-12184460D02*
X19097992Y-12174936D01*
X19097992Y-12174936D02*
X19088468Y-12155888D01*
X19088468Y-12155888D02*
X19088468Y-12098746D01*
X19088468Y-12098746D02*
X19097992Y-12079698D01*
X19097992Y-12079698D02*
X19107516Y-12070174D01*
X19107516Y-12070174D02*
X19126563Y-12060650D01*
X19126563Y-12060650D02*
X19155135Y-12060650D01*
X19155135Y-12060650D02*
X19174182Y-12070174D01*
X19174182Y-12070174D02*
X19183706Y-12079698D01*
X19183706Y-12079698D02*
X19193230Y-12098746D01*
X19193230Y-12098746D02*
X19193230Y-12155888D01*
X19193230Y-12155888D02*
X19183706Y-12174936D01*
X19183706Y-12174936D02*
X19174182Y-12184460D01*
X19174182Y-12184460D02*
X19155135Y-12193984D01*
X19155135Y-12193984D02*
X19126563Y-12193984D01*
X19250373Y-12060650D02*
X19326563Y-12060650D01*
X19278944Y-11993984D02*
X19278944Y-12165412D01*
X19278944Y-12165412D02*
X19288468Y-12184460D01*
X19288468Y-12184460D02*
X19307516Y-12193984D01*
X19307516Y-12193984D02*
X19326563Y-12193984D01*
X19383706Y-12184460D02*
X19402754Y-12193984D01*
X19402754Y-12193984D02*
X19440849Y-12193984D01*
X19440849Y-12193984D02*
X19459897Y-12184460D01*
X19459897Y-12184460D02*
X19469420Y-12165412D01*
X19469420Y-12165412D02*
X19469420Y-12155888D01*
X19469420Y-12155888D02*
X19459897Y-12136841D01*
X19459897Y-12136841D02*
X19440849Y-12127317D01*
X19440849Y-12127317D02*
X19412277Y-12127317D01*
X19412277Y-12127317D02*
X19393230Y-12117793D01*
X19393230Y-12117793D02*
X19383706Y-12098746D01*
X19383706Y-12098746D02*
X19383706Y-12089222D01*
X19383706Y-12089222D02*
X19393230Y-12070174D01*
X19393230Y-12070174D02*
X19412277Y-12060650D01*
X19412277Y-12060650D02*
X19440849Y-12060650D01*
X19440849Y-12060650D02*
X19459897Y-12070174D01*
X19536087Y-12270174D02*
X19545611Y-12260650D01*
X19545611Y-12260650D02*
X19564658Y-12232079D01*
X19564658Y-12232079D02*
X19574182Y-12213031D01*
X19574182Y-12213031D02*
X19583706Y-12184460D01*
X19583706Y-12184460D02*
X19593230Y-12136841D01*
X19593230Y-12136841D02*
X19593230Y-12098746D01*
X19593230Y-12098746D02*
X19583706Y-12051127D01*
X19583706Y-12051127D02*
X19574182Y-12022555D01*
X19574182Y-12022555D02*
X19564658Y-12003508D01*
X19564658Y-12003508D02*
X19545611Y-11974936D01*
X19545611Y-11974936D02*
X19536087Y-11965412D01*
D12*
X12901500Y-12416500D02*
X12951500Y-12366500D01*
X12901500Y-12316500D01*
X12851500Y-12366500D01*
X12901500Y-12416500D01*
D11*
X13317039Y-12457984D02*
X13202753Y-12457984D01*
X13259896Y-12457984D02*
X13259896Y-12257984D01*
X13259896Y-12257984D02*
X13240848Y-12286555D01*
X13240848Y-12286555D02*
X13221801Y-12305603D01*
X13221801Y-12305603D02*
X13202753Y-12315127D01*
X13402753Y-12438936D02*
X13412277Y-12448460D01*
X13412277Y-12448460D02*
X13402753Y-12457984D01*
X13402753Y-12457984D02*
X13393229Y-12448460D01*
X13393229Y-12448460D02*
X13402753Y-12438936D01*
X13402753Y-12438936D02*
X13402753Y-12457984D01*
X13536086Y-12257984D02*
X13555134Y-12257984D01*
X13555134Y-12257984D02*
X13574182Y-12267508D01*
X13574182Y-12267508D02*
X13583705Y-12277031D01*
X13583705Y-12277031D02*
X13593229Y-12296079D01*
X13593229Y-12296079D02*
X13602753Y-12334174D01*
X13602753Y-12334174D02*
X13602753Y-12381793D01*
X13602753Y-12381793D02*
X13593229Y-12419888D01*
X13593229Y-12419888D02*
X13583705Y-12438936D01*
X13583705Y-12438936D02*
X13574182Y-12448460D01*
X13574182Y-12448460D02*
X13555134Y-12457984D01*
X13555134Y-12457984D02*
X13536086Y-12457984D01*
X13536086Y-12457984D02*
X13517039Y-12448460D01*
X13517039Y-12448460D02*
X13507515Y-12438936D01*
X13507515Y-12438936D02*
X13497991Y-12419888D01*
X13497991Y-12419888D02*
X13488467Y-12381793D01*
X13488467Y-12381793D02*
X13488467Y-12334174D01*
X13488467Y-12334174D02*
X13497991Y-12296079D01*
X13497991Y-12296079D02*
X13507515Y-12277031D01*
X13507515Y-12277031D02*
X13517039Y-12267508D01*
X13517039Y-12267508D02*
X13536086Y-12257984D01*
X13726562Y-12257984D02*
X13745610Y-12257984D01*
X13745610Y-12257984D02*
X13764658Y-12267508D01*
X13764658Y-12267508D02*
X13774182Y-12277031D01*
X13774182Y-12277031D02*
X13783705Y-12296079D01*
X13783705Y-12296079D02*
X13793229Y-12334174D01*
X13793229Y-12334174D02*
X13793229Y-12381793D01*
X13793229Y-12381793D02*
X13783705Y-12419888D01*
X13783705Y-12419888D02*
X13774182Y-12438936D01*
X13774182Y-12438936D02*
X13764658Y-12448460D01*
X13764658Y-12448460D02*
X13745610Y-12457984D01*
X13745610Y-12457984D02*
X13726562Y-12457984D01*
X13726562Y-12457984D02*
X13707515Y-12448460D01*
X13707515Y-12448460D02*
X13697991Y-12438936D01*
X13697991Y-12438936D02*
X13688467Y-12419888D01*
X13688467Y-12419888D02*
X13678943Y-12381793D01*
X13678943Y-12381793D02*
X13678943Y-12334174D01*
X13678943Y-12334174D02*
X13688467Y-12296079D01*
X13688467Y-12296079D02*
X13697991Y-12277031D01*
X13697991Y-12277031D02*
X13707515Y-12267508D01*
X13707515Y-12267508D02*
X13726562Y-12257984D01*
X13917039Y-12257984D02*
X13936086Y-12257984D01*
X13936086Y-12257984D02*
X13955134Y-12267508D01*
X13955134Y-12267508D02*
X13964658Y-12277031D01*
X13964658Y-12277031D02*
X13974182Y-12296079D01*
X13974182Y-12296079D02*
X13983705Y-12334174D01*
X13983705Y-12334174D02*
X13983705Y-12381793D01*
X13983705Y-12381793D02*
X13974182Y-12419888D01*
X13974182Y-12419888D02*
X13964658Y-12438936D01*
X13964658Y-12438936D02*
X13955134Y-12448460D01*
X13955134Y-12448460D02*
X13936086Y-12457984D01*
X13936086Y-12457984D02*
X13917039Y-12457984D01*
X13917039Y-12457984D02*
X13897991Y-12448460D01*
X13897991Y-12448460D02*
X13888467Y-12438936D01*
X13888467Y-12438936D02*
X13878943Y-12419888D01*
X13878943Y-12419888D02*
X13869420Y-12381793D01*
X13869420Y-12381793D02*
X13869420Y-12334174D01*
X13869420Y-12334174D02*
X13878943Y-12296079D01*
X13878943Y-12296079D02*
X13888467Y-12277031D01*
X13888467Y-12277031D02*
X13897991Y-12267508D01*
X13897991Y-12267508D02*
X13917039Y-12257984D01*
X14069420Y-12457984D02*
X14069420Y-12324650D01*
X14069420Y-12343698D02*
X14078943Y-12334174D01*
X14078943Y-12334174D02*
X14097991Y-12324650D01*
X14097991Y-12324650D02*
X14126563Y-12324650D01*
X14126563Y-12324650D02*
X14145610Y-12334174D01*
X14145610Y-12334174D02*
X14155134Y-12353222D01*
X14155134Y-12353222D02*
X14155134Y-12457984D01*
X14155134Y-12353222D02*
X14164658Y-12334174D01*
X14164658Y-12334174D02*
X14183705Y-12324650D01*
X14183705Y-12324650D02*
X14212277Y-12324650D01*
X14212277Y-12324650D02*
X14231324Y-12334174D01*
X14231324Y-12334174D02*
X14240848Y-12353222D01*
X14240848Y-12353222D02*
X14240848Y-12457984D01*
X14336086Y-12457984D02*
X14336086Y-12324650D01*
X14336086Y-12343698D02*
X14345610Y-12334174D01*
X14345610Y-12334174D02*
X14364658Y-12324650D01*
X14364658Y-12324650D02*
X14393229Y-12324650D01*
X14393229Y-12324650D02*
X14412277Y-12334174D01*
X14412277Y-12334174D02*
X14421801Y-12353222D01*
X14421801Y-12353222D02*
X14421801Y-12457984D01*
X14421801Y-12353222D02*
X14431324Y-12334174D01*
X14431324Y-12334174D02*
X14450372Y-12324650D01*
X14450372Y-12324650D02*
X14478943Y-12324650D01*
X14478943Y-12324650D02*
X14497991Y-12334174D01*
X14497991Y-12334174D02*
X14507515Y-12353222D01*
X14507515Y-12353222D02*
X14507515Y-12457984D01*
X14897991Y-12248460D02*
X14726563Y-12505603D01*
X15155134Y-12257984D02*
X15174182Y-12257984D01*
X15174182Y-12257984D02*
X15193229Y-12267508D01*
X15193229Y-12267508D02*
X15202753Y-12277031D01*
X15202753Y-12277031D02*
X15212277Y-12296079D01*
X15212277Y-12296079D02*
X15221801Y-12334174D01*
X15221801Y-12334174D02*
X15221801Y-12381793D01*
X15221801Y-12381793D02*
X15212277Y-12419888D01*
X15212277Y-12419888D02*
X15202753Y-12438936D01*
X15202753Y-12438936D02*
X15193229Y-12448460D01*
X15193229Y-12448460D02*
X15174182Y-12457984D01*
X15174182Y-12457984D02*
X15155134Y-12457984D01*
X15155134Y-12457984D02*
X15136086Y-12448460D01*
X15136086Y-12448460D02*
X15126563Y-12438936D01*
X15126563Y-12438936D02*
X15117039Y-12419888D01*
X15117039Y-12419888D02*
X15107515Y-12381793D01*
X15107515Y-12381793D02*
X15107515Y-12334174D01*
X15107515Y-12334174D02*
X15117039Y-12296079D01*
X15117039Y-12296079D02*
X15126563Y-12277031D01*
X15126563Y-12277031D02*
X15136086Y-12267508D01*
X15136086Y-12267508D02*
X15155134Y-12257984D01*
X15307515Y-12438936D02*
X15317039Y-12448460D01*
X15317039Y-12448460D02*
X15307515Y-12457984D01*
X15307515Y-12457984D02*
X15297991Y-12448460D01*
X15297991Y-12448460D02*
X15307515Y-12438936D01*
X15307515Y-12438936D02*
X15307515Y-12457984D01*
X15440848Y-12257984D02*
X15459896Y-12257984D01*
X15459896Y-12257984D02*
X15478944Y-12267508D01*
X15478944Y-12267508D02*
X15488467Y-12277031D01*
X15488467Y-12277031D02*
X15497991Y-12296079D01*
X15497991Y-12296079D02*
X15507515Y-12334174D01*
X15507515Y-12334174D02*
X15507515Y-12381793D01*
X15507515Y-12381793D02*
X15497991Y-12419888D01*
X15497991Y-12419888D02*
X15488467Y-12438936D01*
X15488467Y-12438936D02*
X15478944Y-12448460D01*
X15478944Y-12448460D02*
X15459896Y-12457984D01*
X15459896Y-12457984D02*
X15440848Y-12457984D01*
X15440848Y-12457984D02*
X15421801Y-12448460D01*
X15421801Y-12448460D02*
X15412277Y-12438936D01*
X15412277Y-12438936D02*
X15402753Y-12419888D01*
X15402753Y-12419888D02*
X15393229Y-12381793D01*
X15393229Y-12381793D02*
X15393229Y-12334174D01*
X15393229Y-12334174D02*
X15402753Y-12296079D01*
X15402753Y-12296079D02*
X15412277Y-12277031D01*
X15412277Y-12277031D02*
X15421801Y-12267508D01*
X15421801Y-12267508D02*
X15440848Y-12257984D01*
X15574182Y-12257984D02*
X15697991Y-12257984D01*
X15697991Y-12257984D02*
X15631325Y-12334174D01*
X15631325Y-12334174D02*
X15659896Y-12334174D01*
X15659896Y-12334174D02*
X15678944Y-12343698D01*
X15678944Y-12343698D02*
X15688467Y-12353222D01*
X15688467Y-12353222D02*
X15697991Y-12372269D01*
X15697991Y-12372269D02*
X15697991Y-12419888D01*
X15697991Y-12419888D02*
X15688467Y-12438936D01*
X15688467Y-12438936D02*
X15678944Y-12448460D01*
X15678944Y-12448460D02*
X15659896Y-12457984D01*
X15659896Y-12457984D02*
X15602753Y-12457984D01*
X15602753Y-12457984D02*
X15583706Y-12448460D01*
X15583706Y-12448460D02*
X15574182Y-12438936D01*
X15793229Y-12457984D02*
X15831325Y-12457984D01*
X15831325Y-12457984D02*
X15850372Y-12448460D01*
X15850372Y-12448460D02*
X15859896Y-12438936D01*
X15859896Y-12438936D02*
X15878944Y-12410365D01*
X15878944Y-12410365D02*
X15888467Y-12372269D01*
X15888467Y-12372269D02*
X15888467Y-12296079D01*
X15888467Y-12296079D02*
X15878944Y-12277031D01*
X15878944Y-12277031D02*
X15869420Y-12267508D01*
X15869420Y-12267508D02*
X15850372Y-12257984D01*
X15850372Y-12257984D02*
X15812277Y-12257984D01*
X15812277Y-12257984D02*
X15793229Y-12267508D01*
X15793229Y-12267508D02*
X15783706Y-12277031D01*
X15783706Y-12277031D02*
X15774182Y-12296079D01*
X15774182Y-12296079D02*
X15774182Y-12343698D01*
X15774182Y-12343698D02*
X15783706Y-12362746D01*
X15783706Y-12362746D02*
X15793229Y-12372269D01*
X15793229Y-12372269D02*
X15812277Y-12381793D01*
X15812277Y-12381793D02*
X15850372Y-12381793D01*
X15850372Y-12381793D02*
X15869420Y-12372269D01*
X15869420Y-12372269D02*
X15878944Y-12362746D01*
X15878944Y-12362746D02*
X15888467Y-12343698D01*
X16059896Y-12324650D02*
X16059896Y-12457984D01*
X16012277Y-12248460D02*
X15964658Y-12391317D01*
X15964658Y-12391317D02*
X16088467Y-12391317D01*
X16155134Y-12257984D02*
X16155134Y-12296079D01*
X16231325Y-12257984D02*
X16231325Y-12296079D01*
X16526563Y-12534174D02*
X16517039Y-12524650D01*
X16517039Y-12524650D02*
X16497991Y-12496079D01*
X16497991Y-12496079D02*
X16488468Y-12477031D01*
X16488468Y-12477031D02*
X16478944Y-12448460D01*
X16478944Y-12448460D02*
X16469420Y-12400841D01*
X16469420Y-12400841D02*
X16469420Y-12362746D01*
X16469420Y-12362746D02*
X16478944Y-12315127D01*
X16478944Y-12315127D02*
X16488468Y-12286555D01*
X16488468Y-12286555D02*
X16497991Y-12267508D01*
X16497991Y-12267508D02*
X16517039Y-12238936D01*
X16517039Y-12238936D02*
X16526563Y-12229412D01*
X16593229Y-12277031D02*
X16602753Y-12267508D01*
X16602753Y-12267508D02*
X16621801Y-12257984D01*
X16621801Y-12257984D02*
X16669420Y-12257984D01*
X16669420Y-12257984D02*
X16688468Y-12267508D01*
X16688468Y-12267508D02*
X16697991Y-12277031D01*
X16697991Y-12277031D02*
X16707515Y-12296079D01*
X16707515Y-12296079D02*
X16707515Y-12315127D01*
X16707515Y-12315127D02*
X16697991Y-12343698D01*
X16697991Y-12343698D02*
X16583706Y-12457984D01*
X16583706Y-12457984D02*
X16707515Y-12457984D01*
X16774182Y-12257984D02*
X16897991Y-12257984D01*
X16897991Y-12257984D02*
X16831325Y-12334174D01*
X16831325Y-12334174D02*
X16859896Y-12334174D01*
X16859896Y-12334174D02*
X16878944Y-12343698D01*
X16878944Y-12343698D02*
X16888468Y-12353222D01*
X16888468Y-12353222D02*
X16897991Y-12372269D01*
X16897991Y-12372269D02*
X16897991Y-12419888D01*
X16897991Y-12419888D02*
X16888468Y-12438936D01*
X16888468Y-12438936D02*
X16878944Y-12448460D01*
X16878944Y-12448460D02*
X16859896Y-12457984D01*
X16859896Y-12457984D02*
X16802753Y-12457984D01*
X16802753Y-12457984D02*
X16783706Y-12448460D01*
X16783706Y-12448460D02*
X16774182Y-12438936D01*
X17136087Y-12457984D02*
X17136087Y-12257984D01*
X17221801Y-12457984D02*
X17221801Y-12353222D01*
X17221801Y-12353222D02*
X17212277Y-12334174D01*
X17212277Y-12334174D02*
X17193230Y-12324650D01*
X17193230Y-12324650D02*
X17164658Y-12324650D01*
X17164658Y-12324650D02*
X17145611Y-12334174D01*
X17145611Y-12334174D02*
X17136087Y-12343698D01*
X17345611Y-12457984D02*
X17326563Y-12448460D01*
X17326563Y-12448460D02*
X17317039Y-12438936D01*
X17317039Y-12438936D02*
X17307515Y-12419888D01*
X17307515Y-12419888D02*
X17307515Y-12362746D01*
X17307515Y-12362746D02*
X17317039Y-12343698D01*
X17317039Y-12343698D02*
X17326563Y-12334174D01*
X17326563Y-12334174D02*
X17345611Y-12324650D01*
X17345611Y-12324650D02*
X17374182Y-12324650D01*
X17374182Y-12324650D02*
X17393230Y-12334174D01*
X17393230Y-12334174D02*
X17402753Y-12343698D01*
X17402753Y-12343698D02*
X17412277Y-12362746D01*
X17412277Y-12362746D02*
X17412277Y-12419888D01*
X17412277Y-12419888D02*
X17402753Y-12438936D01*
X17402753Y-12438936D02*
X17393230Y-12448460D01*
X17393230Y-12448460D02*
X17374182Y-12457984D01*
X17374182Y-12457984D02*
X17345611Y-12457984D01*
X17526563Y-12457984D02*
X17507515Y-12448460D01*
X17507515Y-12448460D02*
X17497992Y-12429412D01*
X17497992Y-12429412D02*
X17497992Y-12257984D01*
X17678944Y-12448460D02*
X17659896Y-12457984D01*
X17659896Y-12457984D02*
X17621801Y-12457984D01*
X17621801Y-12457984D02*
X17602753Y-12448460D01*
X17602753Y-12448460D02*
X17593230Y-12429412D01*
X17593230Y-12429412D02*
X17593230Y-12353222D01*
X17593230Y-12353222D02*
X17602753Y-12334174D01*
X17602753Y-12334174D02*
X17621801Y-12324650D01*
X17621801Y-12324650D02*
X17659896Y-12324650D01*
X17659896Y-12324650D02*
X17678944Y-12334174D01*
X17678944Y-12334174D02*
X17688468Y-12353222D01*
X17688468Y-12353222D02*
X17688468Y-12372269D01*
X17688468Y-12372269D02*
X17593230Y-12391317D01*
X17764658Y-12448460D02*
X17783706Y-12457984D01*
X17783706Y-12457984D02*
X17821801Y-12457984D01*
X17821801Y-12457984D02*
X17840849Y-12448460D01*
X17840849Y-12448460D02*
X17850373Y-12429412D01*
X17850373Y-12429412D02*
X17850373Y-12419888D01*
X17850373Y-12419888D02*
X17840849Y-12400841D01*
X17840849Y-12400841D02*
X17821801Y-12391317D01*
X17821801Y-12391317D02*
X17793230Y-12391317D01*
X17793230Y-12391317D02*
X17774182Y-12381793D01*
X17774182Y-12381793D02*
X17764658Y-12362746D01*
X17764658Y-12362746D02*
X17764658Y-12353222D01*
X17764658Y-12353222D02*
X17774182Y-12334174D01*
X17774182Y-12334174D02*
X17793230Y-12324650D01*
X17793230Y-12324650D02*
X17821801Y-12324650D01*
X17821801Y-12324650D02*
X17840849Y-12334174D01*
X17917039Y-12534174D02*
X17926563Y-12524650D01*
X17926563Y-12524650D02*
X17945611Y-12496079D01*
X17945611Y-12496079D02*
X17955134Y-12477031D01*
X17955134Y-12477031D02*
X17964658Y-12448460D01*
X17964658Y-12448460D02*
X17974182Y-12400841D01*
X17974182Y-12400841D02*
X17974182Y-12362746D01*
X17974182Y-12362746D02*
X17964658Y-12315127D01*
X17964658Y-12315127D02*
X17955134Y-12286555D01*
X17955134Y-12286555D02*
X17945611Y-12267508D01*
X17945611Y-12267508D02*
X17926563Y-12238936D01*
X17926563Y-12238936D02*
X17917039Y-12229412D01*
X12751500Y-12530500D02*
X12951500Y-12730500D01*
X12951500Y-12530500D02*
X12751500Y-12730500D01*
X12951500Y-12630500D02*
G75*
G02*
X12751500Y-12630500I-100000J0D01*
G01*
X12751500Y-12630500D02*
G75*
G02*
X12951500Y-12630500I100000J0D01*
G01*
X13202753Y-12541031D02*
X13212277Y-12531508D01*
X13212277Y-12531508D02*
X13231324Y-12521984D01*
X13231324Y-12521984D02*
X13278943Y-12521984D01*
X13278943Y-12521984D02*
X13297991Y-12531508D01*
X13297991Y-12531508D02*
X13307515Y-12541031D01*
X13307515Y-12541031D02*
X13317039Y-12560079D01*
X13317039Y-12560079D02*
X13317039Y-12579127D01*
X13317039Y-12579127D02*
X13307515Y-12607698D01*
X13307515Y-12607698D02*
X13193229Y-12721984D01*
X13193229Y-12721984D02*
X13317039Y-12721984D01*
X13402753Y-12702936D02*
X13412277Y-12712460D01*
X13412277Y-12712460D02*
X13402753Y-12721984D01*
X13402753Y-12721984D02*
X13393229Y-12712460D01*
X13393229Y-12712460D02*
X13402753Y-12702936D01*
X13402753Y-12702936D02*
X13402753Y-12721984D01*
X13488467Y-12541031D02*
X13497991Y-12531508D01*
X13497991Y-12531508D02*
X13517039Y-12521984D01*
X13517039Y-12521984D02*
X13564658Y-12521984D01*
X13564658Y-12521984D02*
X13583705Y-12531508D01*
X13583705Y-12531508D02*
X13593229Y-12541031D01*
X13593229Y-12541031D02*
X13602753Y-12560079D01*
X13602753Y-12560079D02*
X13602753Y-12579127D01*
X13602753Y-12579127D02*
X13593229Y-12607698D01*
X13593229Y-12607698D02*
X13478943Y-12721984D01*
X13478943Y-12721984D02*
X13602753Y-12721984D01*
X13726562Y-12521984D02*
X13745610Y-12521984D01*
X13745610Y-12521984D02*
X13764658Y-12531508D01*
X13764658Y-12531508D02*
X13774182Y-12541031D01*
X13774182Y-12541031D02*
X13783705Y-12560079D01*
X13783705Y-12560079D02*
X13793229Y-12598174D01*
X13793229Y-12598174D02*
X13793229Y-12645793D01*
X13793229Y-12645793D02*
X13783705Y-12683888D01*
X13783705Y-12683888D02*
X13774182Y-12702936D01*
X13774182Y-12702936D02*
X13764658Y-12712460D01*
X13764658Y-12712460D02*
X13745610Y-12721984D01*
X13745610Y-12721984D02*
X13726562Y-12721984D01*
X13726562Y-12721984D02*
X13707515Y-12712460D01*
X13707515Y-12712460D02*
X13697991Y-12702936D01*
X13697991Y-12702936D02*
X13688467Y-12683888D01*
X13688467Y-12683888D02*
X13678943Y-12645793D01*
X13678943Y-12645793D02*
X13678943Y-12598174D01*
X13678943Y-12598174D02*
X13688467Y-12560079D01*
X13688467Y-12560079D02*
X13697991Y-12541031D01*
X13697991Y-12541031D02*
X13707515Y-12531508D01*
X13707515Y-12531508D02*
X13726562Y-12521984D01*
X13917039Y-12521984D02*
X13936086Y-12521984D01*
X13936086Y-12521984D02*
X13955134Y-12531508D01*
X13955134Y-12531508D02*
X13964658Y-12541031D01*
X13964658Y-12541031D02*
X13974182Y-12560079D01*
X13974182Y-12560079D02*
X13983705Y-12598174D01*
X13983705Y-12598174D02*
X13983705Y-12645793D01*
X13983705Y-12645793D02*
X13974182Y-12683888D01*
X13974182Y-12683888D02*
X13964658Y-12702936D01*
X13964658Y-12702936D02*
X13955134Y-12712460D01*
X13955134Y-12712460D02*
X13936086Y-12721984D01*
X13936086Y-12721984D02*
X13917039Y-12721984D01*
X13917039Y-12721984D02*
X13897991Y-12712460D01*
X13897991Y-12712460D02*
X13888467Y-12702936D01*
X13888467Y-12702936D02*
X13878943Y-12683888D01*
X13878943Y-12683888D02*
X13869420Y-12645793D01*
X13869420Y-12645793D02*
X13869420Y-12598174D01*
X13869420Y-12598174D02*
X13878943Y-12560079D01*
X13878943Y-12560079D02*
X13888467Y-12541031D01*
X13888467Y-12541031D02*
X13897991Y-12531508D01*
X13897991Y-12531508D02*
X13917039Y-12521984D01*
X14069420Y-12721984D02*
X14069420Y-12588650D01*
X14069420Y-12607698D02*
X14078943Y-12598174D01*
X14078943Y-12598174D02*
X14097991Y-12588650D01*
X14097991Y-12588650D02*
X14126563Y-12588650D01*
X14126563Y-12588650D02*
X14145610Y-12598174D01*
X14145610Y-12598174D02*
X14155134Y-12617222D01*
X14155134Y-12617222D02*
X14155134Y-12721984D01*
X14155134Y-12617222D02*
X14164658Y-12598174D01*
X14164658Y-12598174D02*
X14183705Y-12588650D01*
X14183705Y-12588650D02*
X14212277Y-12588650D01*
X14212277Y-12588650D02*
X14231324Y-12598174D01*
X14231324Y-12598174D02*
X14240848Y-12617222D01*
X14240848Y-12617222D02*
X14240848Y-12721984D01*
X14336086Y-12721984D02*
X14336086Y-12588650D01*
X14336086Y-12607698D02*
X14345610Y-12598174D01*
X14345610Y-12598174D02*
X14364658Y-12588650D01*
X14364658Y-12588650D02*
X14393229Y-12588650D01*
X14393229Y-12588650D02*
X14412277Y-12598174D01*
X14412277Y-12598174D02*
X14421801Y-12617222D01*
X14421801Y-12617222D02*
X14421801Y-12721984D01*
X14421801Y-12617222D02*
X14431324Y-12598174D01*
X14431324Y-12598174D02*
X14450372Y-12588650D01*
X14450372Y-12588650D02*
X14478943Y-12588650D01*
X14478943Y-12588650D02*
X14497991Y-12598174D01*
X14497991Y-12598174D02*
X14507515Y-12617222D01*
X14507515Y-12617222D02*
X14507515Y-12721984D01*
X14897991Y-12512460D02*
X14726563Y-12769603D01*
X15155134Y-12521984D02*
X15174182Y-12521984D01*
X15174182Y-12521984D02*
X15193229Y-12531508D01*
X15193229Y-12531508D02*
X15202753Y-12541031D01*
X15202753Y-12541031D02*
X15212277Y-12560079D01*
X15212277Y-12560079D02*
X15221801Y-12598174D01*
X15221801Y-12598174D02*
X15221801Y-12645793D01*
X15221801Y-12645793D02*
X15212277Y-12683888D01*
X15212277Y-12683888D02*
X15202753Y-12702936D01*
X15202753Y-12702936D02*
X15193229Y-12712460D01*
X15193229Y-12712460D02*
X15174182Y-12721984D01*
X15174182Y-12721984D02*
X15155134Y-12721984D01*
X15155134Y-12721984D02*
X15136086Y-12712460D01*
X15136086Y-12712460D02*
X15126563Y-12702936D01*
X15126563Y-12702936D02*
X15117039Y-12683888D01*
X15117039Y-12683888D02*
X15107515Y-12645793D01*
X15107515Y-12645793D02*
X15107515Y-12598174D01*
X15107515Y-12598174D02*
X15117039Y-12560079D01*
X15117039Y-12560079D02*
X15126563Y-12541031D01*
X15126563Y-12541031D02*
X15136086Y-12531508D01*
X15136086Y-12531508D02*
X15155134Y-12521984D01*
X15307515Y-12702936D02*
X15317039Y-12712460D01*
X15317039Y-12712460D02*
X15307515Y-12721984D01*
X15307515Y-12721984D02*
X15297991Y-12712460D01*
X15297991Y-12712460D02*
X15307515Y-12702936D01*
X15307515Y-12702936D02*
X15307515Y-12721984D01*
X15440848Y-12521984D02*
X15459896Y-12521984D01*
X15459896Y-12521984D02*
X15478944Y-12531508D01*
X15478944Y-12531508D02*
X15488467Y-12541031D01*
X15488467Y-12541031D02*
X15497991Y-12560079D01*
X15497991Y-12560079D02*
X15507515Y-12598174D01*
X15507515Y-12598174D02*
X15507515Y-12645793D01*
X15507515Y-12645793D02*
X15497991Y-12683888D01*
X15497991Y-12683888D02*
X15488467Y-12702936D01*
X15488467Y-12702936D02*
X15478944Y-12712460D01*
X15478944Y-12712460D02*
X15459896Y-12721984D01*
X15459896Y-12721984D02*
X15440848Y-12721984D01*
X15440848Y-12721984D02*
X15421801Y-12712460D01*
X15421801Y-12712460D02*
X15412277Y-12702936D01*
X15412277Y-12702936D02*
X15402753Y-12683888D01*
X15402753Y-12683888D02*
X15393229Y-12645793D01*
X15393229Y-12645793D02*
X15393229Y-12598174D01*
X15393229Y-12598174D02*
X15402753Y-12560079D01*
X15402753Y-12560079D02*
X15412277Y-12541031D01*
X15412277Y-12541031D02*
X15421801Y-12531508D01*
X15421801Y-12531508D02*
X15440848Y-12521984D01*
X15621801Y-12607698D02*
X15602753Y-12598174D01*
X15602753Y-12598174D02*
X15593229Y-12588650D01*
X15593229Y-12588650D02*
X15583706Y-12569603D01*
X15583706Y-12569603D02*
X15583706Y-12560079D01*
X15583706Y-12560079D02*
X15593229Y-12541031D01*
X15593229Y-12541031D02*
X15602753Y-12531508D01*
X15602753Y-12531508D02*
X15621801Y-12521984D01*
X15621801Y-12521984D02*
X15659896Y-12521984D01*
X15659896Y-12521984D02*
X15678944Y-12531508D01*
X15678944Y-12531508D02*
X15688467Y-12541031D01*
X15688467Y-12541031D02*
X15697991Y-12560079D01*
X15697991Y-12560079D02*
X15697991Y-12569603D01*
X15697991Y-12569603D02*
X15688467Y-12588650D01*
X15688467Y-12588650D02*
X15678944Y-12598174D01*
X15678944Y-12598174D02*
X15659896Y-12607698D01*
X15659896Y-12607698D02*
X15621801Y-12607698D01*
X15621801Y-12607698D02*
X15602753Y-12617222D01*
X15602753Y-12617222D02*
X15593229Y-12626746D01*
X15593229Y-12626746D02*
X15583706Y-12645793D01*
X15583706Y-12645793D02*
X15583706Y-12683888D01*
X15583706Y-12683888D02*
X15593229Y-12702936D01*
X15593229Y-12702936D02*
X15602753Y-12712460D01*
X15602753Y-12712460D02*
X15621801Y-12721984D01*
X15621801Y-12721984D02*
X15659896Y-12721984D01*
X15659896Y-12721984D02*
X15678944Y-12712460D01*
X15678944Y-12712460D02*
X15688467Y-12702936D01*
X15688467Y-12702936D02*
X15697991Y-12683888D01*
X15697991Y-12683888D02*
X15697991Y-12645793D01*
X15697991Y-12645793D02*
X15688467Y-12626746D01*
X15688467Y-12626746D02*
X15678944Y-12617222D01*
X15678944Y-12617222D02*
X15659896Y-12607698D01*
X15869420Y-12521984D02*
X15831325Y-12521984D01*
X15831325Y-12521984D02*
X15812277Y-12531508D01*
X15812277Y-12531508D02*
X15802753Y-12541031D01*
X15802753Y-12541031D02*
X15783706Y-12569603D01*
X15783706Y-12569603D02*
X15774182Y-12607698D01*
X15774182Y-12607698D02*
X15774182Y-12683888D01*
X15774182Y-12683888D02*
X15783706Y-12702936D01*
X15783706Y-12702936D02*
X15793229Y-12712460D01*
X15793229Y-12712460D02*
X15812277Y-12721984D01*
X15812277Y-12721984D02*
X15850372Y-12721984D01*
X15850372Y-12721984D02*
X15869420Y-12712460D01*
X15869420Y-12712460D02*
X15878944Y-12702936D01*
X15878944Y-12702936D02*
X15888467Y-12683888D01*
X15888467Y-12683888D02*
X15888467Y-12636269D01*
X15888467Y-12636269D02*
X15878944Y-12617222D01*
X15878944Y-12617222D02*
X15869420Y-12607698D01*
X15869420Y-12607698D02*
X15850372Y-12598174D01*
X15850372Y-12598174D02*
X15812277Y-12598174D01*
X15812277Y-12598174D02*
X15793229Y-12607698D01*
X15793229Y-12607698D02*
X15783706Y-12617222D01*
X15783706Y-12617222D02*
X15774182Y-12636269D01*
X16059896Y-12521984D02*
X16021801Y-12521984D01*
X16021801Y-12521984D02*
X16002753Y-12531508D01*
X16002753Y-12531508D02*
X15993229Y-12541031D01*
X15993229Y-12541031D02*
X15974182Y-12569603D01*
X15974182Y-12569603D02*
X15964658Y-12607698D01*
X15964658Y-12607698D02*
X15964658Y-12683888D01*
X15964658Y-12683888D02*
X15974182Y-12702936D01*
X15974182Y-12702936D02*
X15983706Y-12712460D01*
X15983706Y-12712460D02*
X16002753Y-12721984D01*
X16002753Y-12721984D02*
X16040848Y-12721984D01*
X16040848Y-12721984D02*
X16059896Y-12712460D01*
X16059896Y-12712460D02*
X16069420Y-12702936D01*
X16069420Y-12702936D02*
X16078944Y-12683888D01*
X16078944Y-12683888D02*
X16078944Y-12636269D01*
X16078944Y-12636269D02*
X16069420Y-12617222D01*
X16069420Y-12617222D02*
X16059896Y-12607698D01*
X16059896Y-12607698D02*
X16040848Y-12598174D01*
X16040848Y-12598174D02*
X16002753Y-12598174D01*
X16002753Y-12598174D02*
X15983706Y-12607698D01*
X15983706Y-12607698D02*
X15974182Y-12617222D01*
X15974182Y-12617222D02*
X15964658Y-12636269D01*
X16155134Y-12521984D02*
X16155134Y-12560079D01*
X16231325Y-12521984D02*
X16231325Y-12560079D01*
X16526563Y-12798174D02*
X16517039Y-12788650D01*
X16517039Y-12788650D02*
X16497991Y-12760079D01*
X16497991Y-12760079D02*
X16488468Y-12741031D01*
X16488468Y-12741031D02*
X16478944Y-12712460D01*
X16478944Y-12712460D02*
X16469420Y-12664841D01*
X16469420Y-12664841D02*
X16469420Y-12626746D01*
X16469420Y-12626746D02*
X16478944Y-12579127D01*
X16478944Y-12579127D02*
X16488468Y-12550555D01*
X16488468Y-12550555D02*
X16497991Y-12531508D01*
X16497991Y-12531508D02*
X16517039Y-12502936D01*
X16517039Y-12502936D02*
X16526563Y-12493412D01*
X16688468Y-12588650D02*
X16688468Y-12721984D01*
X16640848Y-12512460D02*
X16593229Y-12655317D01*
X16593229Y-12655317D02*
X16717039Y-12655317D01*
X16945611Y-12721984D02*
X16945611Y-12521984D01*
X17031325Y-12721984D02*
X17031325Y-12617222D01*
X17031325Y-12617222D02*
X17021801Y-12598174D01*
X17021801Y-12598174D02*
X17002753Y-12588650D01*
X17002753Y-12588650D02*
X16974182Y-12588650D01*
X16974182Y-12588650D02*
X16955134Y-12598174D01*
X16955134Y-12598174D02*
X16945611Y-12607698D01*
X17155134Y-12721984D02*
X17136087Y-12712460D01*
X17136087Y-12712460D02*
X17126563Y-12702936D01*
X17126563Y-12702936D02*
X17117039Y-12683888D01*
X17117039Y-12683888D02*
X17117039Y-12626746D01*
X17117039Y-12626746D02*
X17126563Y-12607698D01*
X17126563Y-12607698D02*
X17136087Y-12598174D01*
X17136087Y-12598174D02*
X17155134Y-12588650D01*
X17155134Y-12588650D02*
X17183706Y-12588650D01*
X17183706Y-12588650D02*
X17202753Y-12598174D01*
X17202753Y-12598174D02*
X17212277Y-12607698D01*
X17212277Y-12607698D02*
X17221801Y-12626746D01*
X17221801Y-12626746D02*
X17221801Y-12683888D01*
X17221801Y-12683888D02*
X17212277Y-12702936D01*
X17212277Y-12702936D02*
X17202753Y-12712460D01*
X17202753Y-12712460D02*
X17183706Y-12721984D01*
X17183706Y-12721984D02*
X17155134Y-12721984D01*
X17336087Y-12721984D02*
X17317039Y-12712460D01*
X17317039Y-12712460D02*
X17307515Y-12693412D01*
X17307515Y-12693412D02*
X17307515Y-12521984D01*
X17488468Y-12712460D02*
X17469420Y-12721984D01*
X17469420Y-12721984D02*
X17431325Y-12721984D01*
X17431325Y-12721984D02*
X17412277Y-12712460D01*
X17412277Y-12712460D02*
X17402753Y-12693412D01*
X17402753Y-12693412D02*
X17402753Y-12617222D01*
X17402753Y-12617222D02*
X17412277Y-12598174D01*
X17412277Y-12598174D02*
X17431325Y-12588650D01*
X17431325Y-12588650D02*
X17469420Y-12588650D01*
X17469420Y-12588650D02*
X17488468Y-12598174D01*
X17488468Y-12598174D02*
X17497992Y-12617222D01*
X17497992Y-12617222D02*
X17497992Y-12636269D01*
X17497992Y-12636269D02*
X17402753Y-12655317D01*
X17574182Y-12712460D02*
X17593230Y-12721984D01*
X17593230Y-12721984D02*
X17631325Y-12721984D01*
X17631325Y-12721984D02*
X17650373Y-12712460D01*
X17650373Y-12712460D02*
X17659896Y-12693412D01*
X17659896Y-12693412D02*
X17659896Y-12683888D01*
X17659896Y-12683888D02*
X17650373Y-12664841D01*
X17650373Y-12664841D02*
X17631325Y-12655317D01*
X17631325Y-12655317D02*
X17602753Y-12655317D01*
X17602753Y-12655317D02*
X17583706Y-12645793D01*
X17583706Y-12645793D02*
X17574182Y-12626746D01*
X17574182Y-12626746D02*
X17574182Y-12617222D01*
X17574182Y-12617222D02*
X17583706Y-12598174D01*
X17583706Y-12598174D02*
X17602753Y-12588650D01*
X17602753Y-12588650D02*
X17631325Y-12588650D01*
X17631325Y-12588650D02*
X17650373Y-12598174D01*
X17726563Y-12798174D02*
X17736087Y-12788650D01*
X17736087Y-12788650D02*
X17755134Y-12760079D01*
X17755134Y-12760079D02*
X17764658Y-12741031D01*
X17764658Y-12741031D02*
X17774182Y-12712460D01*
X17774182Y-12712460D02*
X17783706Y-12664841D01*
X17783706Y-12664841D02*
X17783706Y-12626746D01*
X17783706Y-12626746D02*
X17774182Y-12579127D01*
X17774182Y-12579127D02*
X17764658Y-12550555D01*
X17764658Y-12550555D02*
X17755134Y-12531508D01*
X17755134Y-12531508D02*
X17736087Y-12502936D01*
X17736087Y-12502936D02*
X17726563Y-12493412D01*
M02*
