%TF.GenerationSoftware,KiCad,Pcbnew,8.0.4*%
%TF.CreationDate,2024-07-23T12:10:32-05:00*%
%TF.ProjectId,sa8x8-breakout,73613878-382d-4627-9265-616b6f75742e,rev?*%
%TF.SameCoordinates,Original*%
%TF.FileFunction,Legend,Top*%
%TF.FilePolarity,Positive*%
%FSLAX46Y46*%
G04 Gerber Fmt 4.6, Leading zero omitted, Abs format (unit mm)*
G04 Created by KiCad (PCBNEW 8.0.4) date 2024-07-23 12:10:32*
%MOMM*%
%LPD*%
G01*
G04 APERTURE LIST*
%ADD10C,0.187500*%
%ADD11C,0.300000*%
%ADD12C,0.150000*%
%ADD13C,0.120000*%
G04 APERTURE END LIST*
D10*
G36*
X138257977Y-75594181D02*
G01*
X138300285Y-75636490D01*
X138326903Y-75742959D01*
X138326903Y-75969876D01*
X138300285Y-76076345D01*
X138257976Y-76118654D01*
X138219950Y-76137668D01*
X138121357Y-76137668D01*
X138083330Y-76118654D01*
X138041020Y-76076345D01*
X138014403Y-75969875D01*
X138014403Y-75742960D01*
X138041021Y-75636490D01*
X138083331Y-75594180D01*
X138121356Y-75575168D01*
X138219951Y-75575168D01*
X138257977Y-75594181D01*
G37*
G36*
X139615120Y-75594181D02*
G01*
X139657428Y-75636490D01*
X139684046Y-75742959D01*
X139684046Y-75969876D01*
X139657428Y-76076345D01*
X139615119Y-76118654D01*
X139577093Y-76137668D01*
X139478500Y-76137668D01*
X139440473Y-76118654D01*
X139398163Y-76076345D01*
X139371546Y-75969875D01*
X139371546Y-75742960D01*
X139398164Y-75636490D01*
X139440474Y-75594180D01*
X139478499Y-75575168D01*
X139577094Y-75575168D01*
X139615120Y-75594181D01*
G37*
G36*
X140755475Y-76137668D02*
G01*
X140685868Y-76137668D01*
X140614152Y-76113763D01*
X140569132Y-76068743D01*
X140544822Y-76020124D01*
X140514404Y-75898448D01*
X140514404Y-75814388D01*
X140544822Y-75692712D01*
X140569131Y-75644095D01*
X140614153Y-75599073D01*
X140685868Y-75575168D01*
X140755475Y-75575168D01*
X140755475Y-76137668D01*
G37*
G36*
X142134939Y-75934954D02*
G01*
X142086439Y-75789454D01*
X142183439Y-75789454D01*
X142134939Y-75934954D01*
G37*
G36*
X142571703Y-76627133D02*
G01*
X136881384Y-76627133D01*
X136881384Y-76421343D01*
X136975134Y-76421343D01*
X136975134Y-76457923D01*
X136989133Y-76491718D01*
X137014998Y-76517583D01*
X137048793Y-76531582D01*
X137067083Y-76533383D01*
X142381368Y-76533383D01*
X142399658Y-76531582D01*
X142433453Y-76517583D01*
X142459318Y-76491718D01*
X142473317Y-76457923D01*
X142473317Y-76421343D01*
X142459318Y-76387548D01*
X142433453Y-76361683D01*
X142399658Y-76347684D01*
X142381368Y-76345883D01*
X137067083Y-76345883D01*
X137048793Y-76347684D01*
X137014998Y-76361683D01*
X136989133Y-76387548D01*
X136975134Y-76421343D01*
X136881384Y-76421343D01*
X136881384Y-75481418D01*
X137076904Y-75481418D01*
X137076904Y-76231418D01*
X137078705Y-76249708D01*
X137092704Y-76283503D01*
X137118569Y-76309368D01*
X137152364Y-76323367D01*
X137188944Y-76323367D01*
X137222739Y-76309368D01*
X137248604Y-76283503D01*
X137262603Y-76249708D01*
X137264404Y-76231418D01*
X137264404Y-75834440D01*
X137517827Y-76277931D01*
X137520564Y-76281787D01*
X137521275Y-76283503D01*
X137523022Y-76285250D01*
X137528465Y-76292918D01*
X137538325Y-76300553D01*
X137547140Y-76309368D01*
X137552662Y-76311655D01*
X137557387Y-76315314D01*
X137569411Y-76318593D01*
X137580935Y-76323367D01*
X137586912Y-76323367D01*
X137592676Y-76324939D01*
X137605042Y-76323367D01*
X137617515Y-76323367D01*
X137623037Y-76321079D01*
X137628964Y-76320326D01*
X137639790Y-76314139D01*
X137651310Y-76309368D01*
X137655533Y-76305144D01*
X137660725Y-76302178D01*
X137668360Y-76292317D01*
X137677175Y-76283503D01*
X137679462Y-76277980D01*
X137683121Y-76273256D01*
X137686400Y-76261231D01*
X137691174Y-76249708D01*
X137692095Y-76240351D01*
X137692746Y-76237966D01*
X137692511Y-76236122D01*
X137692975Y-76231418D01*
X137692975Y-75731418D01*
X137826903Y-75731418D01*
X137826903Y-75981418D01*
X137827216Y-75984605D01*
X137827013Y-75985975D01*
X137828026Y-75992827D01*
X137828704Y-75999708D01*
X137829233Y-76000985D01*
X137829702Y-76004156D01*
X137865417Y-76147013D01*
X137871601Y-76164320D01*
X137875749Y-76169919D01*
X137878417Y-76176359D01*
X137890076Y-76190566D01*
X137961504Y-76261995D01*
X137968693Y-76267894D01*
X137970316Y-76269766D01*
X137973137Y-76271542D01*
X137975711Y-76273654D01*
X137977996Y-76274600D01*
X137985870Y-76279557D01*
X138057299Y-76315271D01*
X138074464Y-76321839D01*
X138077822Y-76322077D01*
X138080935Y-76323367D01*
X138099225Y-76325168D01*
X138242082Y-76325168D01*
X138260372Y-76323367D01*
X138263484Y-76322077D01*
X138266843Y-76321839D01*
X138284008Y-76315271D01*
X138355437Y-76279557D01*
X138363310Y-76274600D01*
X138365596Y-76273654D01*
X138368169Y-76271542D01*
X138370991Y-76269766D01*
X138372613Y-76267894D01*
X138379803Y-76261995D01*
X138451231Y-76190566D01*
X138462890Y-76176359D01*
X138465556Y-76169921D01*
X138469707Y-76164320D01*
X138475890Y-76147013D01*
X138511604Y-76004155D01*
X138512072Y-76000985D01*
X138512602Y-75999708D01*
X138513279Y-75992824D01*
X138514293Y-75985974D01*
X138514089Y-75984604D01*
X138514403Y-75981418D01*
X138514403Y-75731418D01*
X139184046Y-75731418D01*
X139184046Y-75981418D01*
X139184359Y-75984605D01*
X139184156Y-75985975D01*
X139185169Y-75992827D01*
X139185847Y-75999708D01*
X139186376Y-76000985D01*
X139186845Y-76004156D01*
X139222560Y-76147013D01*
X139228744Y-76164320D01*
X139232892Y-76169919D01*
X139235560Y-76176359D01*
X139247219Y-76190566D01*
X139318647Y-76261995D01*
X139325836Y-76267894D01*
X139327459Y-76269766D01*
X139330280Y-76271542D01*
X139332854Y-76273654D01*
X139335139Y-76274600D01*
X139343013Y-76279557D01*
X139414442Y-76315271D01*
X139431607Y-76321839D01*
X139434965Y-76322077D01*
X139438078Y-76323367D01*
X139456368Y-76325168D01*
X139599225Y-76325168D01*
X139617515Y-76323367D01*
X139620627Y-76322077D01*
X139623986Y-76321839D01*
X139641151Y-76315271D01*
X139712580Y-76279557D01*
X139720453Y-76274600D01*
X139722739Y-76273654D01*
X139725312Y-76271542D01*
X139728134Y-76269766D01*
X139729756Y-76267894D01*
X139736946Y-76261995D01*
X139808374Y-76190566D01*
X139820033Y-76176359D01*
X139822699Y-76169921D01*
X139826850Y-76164320D01*
X139833033Y-76147013D01*
X139868747Y-76004155D01*
X139869215Y-76000985D01*
X139869745Y-75999708D01*
X139870422Y-75992824D01*
X139871436Y-75985974D01*
X139871232Y-75984604D01*
X139871546Y-75981418D01*
X139871546Y-75731418D01*
X139871232Y-75728231D01*
X139871436Y-75726862D01*
X139870422Y-75720011D01*
X139869745Y-75713128D01*
X139869215Y-75711850D01*
X139868747Y-75708681D01*
X139833033Y-75565823D01*
X139826850Y-75548516D01*
X139822698Y-75542913D01*
X139820032Y-75536476D01*
X139808373Y-75522269D01*
X139767521Y-75481418D01*
X140005475Y-75481418D01*
X140005475Y-76231418D01*
X140007276Y-76249708D01*
X140021275Y-76283503D01*
X140047140Y-76309368D01*
X140080935Y-76323367D01*
X140117515Y-76323367D01*
X140151310Y-76309368D01*
X140177175Y-76283503D01*
X140191174Y-76249708D01*
X140192975Y-76231418D01*
X140192975Y-75802847D01*
X140326904Y-75802847D01*
X140326904Y-75909990D01*
X140327217Y-75913177D01*
X140327014Y-75914547D01*
X140328027Y-75921399D01*
X140328705Y-75928280D01*
X140329234Y-75929557D01*
X140329703Y-75932728D01*
X140365417Y-76075585D01*
X140365899Y-76076934D01*
X140365947Y-76077609D01*
X140368855Y-76085208D01*
X140371600Y-76092892D01*
X140372003Y-76093436D01*
X140372515Y-76094773D01*
X140408229Y-76166201D01*
X140413182Y-76174070D01*
X140414131Y-76176360D01*
X140416245Y-76178936D01*
X140418020Y-76181755D01*
X140419890Y-76183377D01*
X140425791Y-76190566D01*
X140497220Y-76261995D01*
X140511426Y-76273655D01*
X140514538Y-76274944D01*
X140517083Y-76277151D01*
X140533865Y-76284643D01*
X140641008Y-76320357D01*
X140650074Y-76322418D01*
X140652364Y-76323367D01*
X140655682Y-76323693D01*
X140658929Y-76324432D01*
X140661397Y-76324256D01*
X140670654Y-76325168D01*
X140849225Y-76325168D01*
X140867515Y-76323367D01*
X140901310Y-76309368D01*
X140927175Y-76283503D01*
X140941174Y-76249708D01*
X140942975Y-76231418D01*
X140942975Y-75624275D01*
X141112618Y-75624275D01*
X141112618Y-76231418D01*
X141114419Y-76249708D01*
X141128418Y-76283503D01*
X141154283Y-76309368D01*
X141188078Y-76323367D01*
X141224658Y-76323367D01*
X141258453Y-76309368D01*
X141284318Y-76283503D01*
X141298317Y-76249708D01*
X141300118Y-76231418D01*
X141300118Y-75646407D01*
X141319132Y-75608379D01*
X141333329Y-75594181D01*
X141371356Y-75575168D01*
X141469951Y-75575168D01*
X141507977Y-75594181D01*
X141522175Y-75608379D01*
X141541189Y-75646407D01*
X141541189Y-76231418D01*
X141542990Y-76249708D01*
X141556989Y-76283503D01*
X141582854Y-76309368D01*
X141616649Y-76323367D01*
X141653229Y-76323367D01*
X141687024Y-76309368D01*
X141712889Y-76283503D01*
X141726888Y-76249708D01*
X141728689Y-76231418D01*
X141728689Y-75624275D01*
X141726888Y-75605985D01*
X141725598Y-75602872D01*
X141725360Y-75599513D01*
X141718792Y-75582349D01*
X141683078Y-75510921D01*
X141678124Y-75503051D01*
X141677176Y-75500762D01*
X141675061Y-75498185D01*
X141673287Y-75495367D01*
X141671416Y-75493744D01*
X141670923Y-75493143D01*
X141791925Y-75493143D01*
X141796000Y-75511064D01*
X142046000Y-76261064D01*
X142053492Y-76277846D01*
X142057882Y-76282907D01*
X142060877Y-76288897D01*
X142069757Y-76296599D01*
X142077460Y-76305480D01*
X142083448Y-76308474D01*
X142088511Y-76312865D01*
X142099668Y-76316584D01*
X142110177Y-76321838D01*
X142116856Y-76322312D01*
X142123214Y-76324432D01*
X142134941Y-76323598D01*
X142146664Y-76324432D01*
X142153018Y-76322313D01*
X142159701Y-76321839D01*
X142170217Y-76316580D01*
X142181367Y-76312864D01*
X142186426Y-76308475D01*
X142192418Y-76305480D01*
X142200121Y-76296598D01*
X142209001Y-76288897D01*
X142211995Y-76282908D01*
X142216386Y-76277846D01*
X142223878Y-76261064D01*
X142473878Y-75511065D01*
X142477953Y-75493144D01*
X142475359Y-75456656D01*
X142459001Y-75423939D01*
X142431367Y-75399972D01*
X142396664Y-75388404D01*
X142360177Y-75390998D01*
X142327460Y-75407356D01*
X142303492Y-75434990D01*
X142296000Y-75451772D01*
X142245939Y-75601954D01*
X142023939Y-75601954D01*
X141973878Y-75451772D01*
X141966386Y-75434990D01*
X141942418Y-75407356D01*
X141909701Y-75390997D01*
X141873214Y-75388404D01*
X141838511Y-75399971D01*
X141810877Y-75423939D01*
X141794518Y-75456656D01*
X141791925Y-75493143D01*
X141670923Y-75493143D01*
X141665516Y-75486556D01*
X141629802Y-75450842D01*
X141622613Y-75444941D01*
X141620991Y-75443071D01*
X141618173Y-75441297D01*
X141615596Y-75439182D01*
X141613304Y-75438232D01*
X141605437Y-75433281D01*
X141534009Y-75397566D01*
X141516844Y-75390997D01*
X141513484Y-75390758D01*
X141510372Y-75389469D01*
X141492082Y-75387668D01*
X141349225Y-75387668D01*
X141330935Y-75389469D01*
X141327822Y-75390758D01*
X141324462Y-75390997D01*
X141307298Y-75397566D01*
X141235869Y-75433281D01*
X141228001Y-75438233D01*
X141225711Y-75439182D01*
X141223133Y-75441297D01*
X141220316Y-75443071D01*
X141218693Y-75444941D01*
X141211505Y-75450842D01*
X141175791Y-75486556D01*
X141169890Y-75493744D01*
X141168020Y-75495367D01*
X141166245Y-75498185D01*
X141164131Y-75500762D01*
X141163182Y-75503051D01*
X141158229Y-75510921D01*
X141122515Y-75582349D01*
X141115947Y-75599513D01*
X141115708Y-75602872D01*
X141114419Y-75605985D01*
X141112618Y-75624275D01*
X140942975Y-75624275D01*
X140942975Y-75481418D01*
X140941174Y-75463128D01*
X140927175Y-75429333D01*
X140901310Y-75403468D01*
X140867515Y-75389469D01*
X140849225Y-75387668D01*
X140670654Y-75387668D01*
X140661397Y-75388579D01*
X140658928Y-75388404D01*
X140655680Y-75389142D01*
X140652364Y-75389469D01*
X140650075Y-75390416D01*
X140641007Y-75392479D01*
X140533864Y-75428194D01*
X140517082Y-75435687D01*
X140514538Y-75437893D01*
X140511427Y-75439182D01*
X140497220Y-75450841D01*
X140425791Y-75522269D01*
X140419891Y-75529458D01*
X140418020Y-75531081D01*
X140416243Y-75533902D01*
X140414132Y-75536476D01*
X140413185Y-75538761D01*
X140408229Y-75546635D01*
X140372515Y-75618064D01*
X140372003Y-75619400D01*
X140371600Y-75619945D01*
X140368852Y-75627636D01*
X140365947Y-75635229D01*
X140365899Y-75635902D01*
X140365417Y-75637252D01*
X140329703Y-75780109D01*
X140329234Y-75783279D01*
X140328705Y-75784557D01*
X140328027Y-75791437D01*
X140327014Y-75798290D01*
X140327217Y-75799659D01*
X140326904Y-75802847D01*
X140192975Y-75802847D01*
X140192975Y-75481418D01*
X140191174Y-75463128D01*
X140177175Y-75429333D01*
X140151310Y-75403468D01*
X140117515Y-75389469D01*
X140080935Y-75389469D01*
X140047140Y-75403468D01*
X140021275Y-75429333D01*
X140007276Y-75463128D01*
X140005475Y-75481418D01*
X139767521Y-75481418D01*
X139736945Y-75450842D01*
X139729756Y-75444941D01*
X139728134Y-75443071D01*
X139725316Y-75441297D01*
X139722739Y-75439182D01*
X139720447Y-75438232D01*
X139712580Y-75433281D01*
X139641152Y-75397566D01*
X139623987Y-75390997D01*
X139620627Y-75390758D01*
X139617515Y-75389469D01*
X139599225Y-75387668D01*
X139456368Y-75387668D01*
X139438078Y-75389469D01*
X139434965Y-75390758D01*
X139431605Y-75390997D01*
X139414441Y-75397566D01*
X139343012Y-75433281D01*
X139335139Y-75438236D01*
X139332854Y-75439183D01*
X139330280Y-75441295D01*
X139327459Y-75443071D01*
X139325836Y-75444942D01*
X139318647Y-75450842D01*
X139247220Y-75522270D01*
X139235560Y-75536476D01*
X139232891Y-75542918D01*
X139228744Y-75548516D01*
X139222560Y-75565823D01*
X139186845Y-75708680D01*
X139186376Y-75711850D01*
X139185847Y-75713128D01*
X139185169Y-75720008D01*
X139184156Y-75726861D01*
X139184359Y-75728230D01*
X139184046Y-75731418D01*
X138514403Y-75731418D01*
X138514089Y-75728231D01*
X138514293Y-75726862D01*
X138513279Y-75720011D01*
X138512602Y-75713128D01*
X138512072Y-75711850D01*
X138511604Y-75708681D01*
X138475890Y-75565823D01*
X138469707Y-75548516D01*
X138465555Y-75542913D01*
X138462889Y-75536476D01*
X138451230Y-75522269D01*
X138379802Y-75450842D01*
X138372613Y-75444941D01*
X138370991Y-75443071D01*
X138368173Y-75441297D01*
X138365596Y-75439182D01*
X138363304Y-75438232D01*
X138355437Y-75433281D01*
X138284009Y-75397566D01*
X138268681Y-75391700D01*
X138471562Y-75391700D01*
X138471562Y-75428280D01*
X138485561Y-75462075D01*
X138511426Y-75487940D01*
X138545221Y-75501939D01*
X138563511Y-75503740D01*
X139134940Y-75503740D01*
X139153230Y-75501939D01*
X139187025Y-75487940D01*
X139212890Y-75462075D01*
X139226889Y-75428280D01*
X139226889Y-75391700D01*
X139212890Y-75357905D01*
X139187025Y-75332040D01*
X139153230Y-75318041D01*
X139134940Y-75316240D01*
X138563511Y-75316240D01*
X138545221Y-75318041D01*
X138511426Y-75332040D01*
X138485561Y-75357905D01*
X138471562Y-75391700D01*
X138268681Y-75391700D01*
X138266844Y-75390997D01*
X138263484Y-75390758D01*
X138260372Y-75389469D01*
X138242082Y-75387668D01*
X138099225Y-75387668D01*
X138080935Y-75389469D01*
X138077822Y-75390758D01*
X138074462Y-75390997D01*
X138057298Y-75397566D01*
X137985869Y-75433281D01*
X137977996Y-75438236D01*
X137975711Y-75439183D01*
X137973137Y-75441295D01*
X137970316Y-75443071D01*
X137968693Y-75444942D01*
X137961504Y-75450842D01*
X137890077Y-75522270D01*
X137878417Y-75536476D01*
X137875748Y-75542918D01*
X137871601Y-75548516D01*
X137865417Y-75565823D01*
X137829702Y-75708680D01*
X137829233Y-75711850D01*
X137828704Y-75713128D01*
X137828026Y-75720008D01*
X137827013Y-75726861D01*
X137827216Y-75728230D01*
X137826903Y-75731418D01*
X137692975Y-75731418D01*
X137692975Y-75481418D01*
X137691174Y-75463128D01*
X137677175Y-75429333D01*
X137651310Y-75403468D01*
X137617515Y-75389469D01*
X137580935Y-75389469D01*
X137547140Y-75403468D01*
X137521275Y-75429333D01*
X137507276Y-75463128D01*
X137505475Y-75481418D01*
X137505475Y-75878395D01*
X137252052Y-75434905D01*
X137249314Y-75431048D01*
X137248604Y-75429333D01*
X137246856Y-75427585D01*
X137241414Y-75419918D01*
X137231553Y-75412282D01*
X137222739Y-75403468D01*
X137217216Y-75401180D01*
X137212492Y-75397522D01*
X137200467Y-75394242D01*
X137188944Y-75389469D01*
X137182966Y-75389469D01*
X137177202Y-75387897D01*
X137164836Y-75389469D01*
X137152364Y-75389469D01*
X137146841Y-75391756D01*
X137140915Y-75392510D01*
X137130088Y-75398696D01*
X137118569Y-75403468D01*
X137114345Y-75407691D01*
X137109154Y-75410658D01*
X137101518Y-75420518D01*
X137092704Y-75429333D01*
X137090416Y-75434855D01*
X137086758Y-75439580D01*
X137083478Y-75451604D01*
X137078705Y-75463128D01*
X137077783Y-75472484D01*
X137077133Y-75474870D01*
X137077367Y-75476713D01*
X137076904Y-75481418D01*
X136881384Y-75481418D01*
X136881384Y-75222490D01*
X142571703Y-75222490D01*
X142571703Y-76627133D01*
G37*
G36*
X155685007Y-75973644D02*
G01*
X155515175Y-75973644D01*
X155477145Y-75954629D01*
X155462950Y-75940434D01*
X155443936Y-75902405D01*
X155443936Y-75839526D01*
X155462950Y-75801497D01*
X155477146Y-75787300D01*
X155515175Y-75768287D01*
X155685007Y-75768287D01*
X155685007Y-75973644D01*
G37*
G36*
X156068028Y-76463109D02*
G01*
X153950201Y-76463109D01*
X153950201Y-76257319D01*
X154047522Y-76257319D01*
X154047522Y-76293899D01*
X154061521Y-76327694D01*
X154087386Y-76353559D01*
X154121181Y-76367558D01*
X154139471Y-76369359D01*
X155882329Y-76369359D01*
X155900619Y-76367558D01*
X155934414Y-76353559D01*
X155960279Y-76327694D01*
X155974278Y-76293899D01*
X155974278Y-76257319D01*
X155960279Y-76223524D01*
X155934414Y-76197659D01*
X155900619Y-76183660D01*
X155882329Y-76181859D01*
X154139471Y-76181859D01*
X154121181Y-76183660D01*
X154087386Y-76197659D01*
X154061521Y-76223524D01*
X154047522Y-76257319D01*
X153950201Y-76257319D01*
X153950201Y-76049104D01*
X154043951Y-76049104D01*
X154043951Y-76085684D01*
X154057950Y-76119479D01*
X154083815Y-76145344D01*
X154117610Y-76159343D01*
X154135900Y-76161144D01*
X154564471Y-76161144D01*
X154582761Y-76159343D01*
X154616556Y-76145344D01*
X154635900Y-76126000D01*
X154655244Y-76145344D01*
X154689039Y-76159343D01*
X154707329Y-76161144D01*
X155135900Y-76161144D01*
X155154190Y-76159343D01*
X155187985Y-76145344D01*
X155213850Y-76119479D01*
X155227849Y-76085684D01*
X155227849Y-76049104D01*
X155213850Y-76015309D01*
X155187985Y-75989444D01*
X155154190Y-75975445D01*
X155135900Y-75973644D01*
X155015364Y-75973644D01*
X155015364Y-75817394D01*
X155256436Y-75817394D01*
X155256436Y-75924537D01*
X155258237Y-75942827D01*
X155259526Y-75945939D01*
X155259765Y-75949298D01*
X155266333Y-75966463D01*
X155302047Y-76037892D01*
X155307000Y-76045761D01*
X155307949Y-76048051D01*
X155310063Y-76050627D01*
X155311838Y-76053446D01*
X155313708Y-76055068D01*
X155319609Y-76062257D01*
X155355323Y-76097971D01*
X155362511Y-76103871D01*
X155364134Y-76105742D01*
X155366952Y-76107516D01*
X155369529Y-76109631D01*
X155371818Y-76110579D01*
X155379688Y-76115533D01*
X155451117Y-76151247D01*
X155468282Y-76157815D01*
X155471640Y-76158053D01*
X155474753Y-76159343D01*
X155493043Y-76161144D01*
X155778757Y-76161144D01*
X155797047Y-76159343D01*
X155830842Y-76145344D01*
X155856707Y-76119479D01*
X155870706Y-76085684D01*
X155872507Y-76067394D01*
X155872507Y-75317394D01*
X155870706Y-75299104D01*
X155856707Y-75265309D01*
X155830842Y-75239444D01*
X155797047Y-75225445D01*
X155760467Y-75225445D01*
X155726672Y-75239444D01*
X155700807Y-75265309D01*
X155686808Y-75299104D01*
X155685007Y-75317394D01*
X155685007Y-75580787D01*
X155493043Y-75580787D01*
X155474753Y-75582588D01*
X155471640Y-75583877D01*
X155468282Y-75584116D01*
X155451117Y-75590684D01*
X155379688Y-75626398D01*
X155371815Y-75631353D01*
X155369528Y-75632301D01*
X155366953Y-75634414D01*
X155364134Y-75636189D01*
X155362510Y-75638060D01*
X155355322Y-75643961D01*
X155319608Y-75679676D01*
X155313709Y-75686862D01*
X155311838Y-75688486D01*
X155310061Y-75691307D01*
X155307949Y-75693882D01*
X155307001Y-75696168D01*
X155302047Y-75704040D01*
X155266333Y-75775468D01*
X155259765Y-75792632D01*
X155259526Y-75795991D01*
X155258237Y-75799104D01*
X155256436Y-75817394D01*
X155015364Y-75817394D01*
X155015364Y-75317394D01*
X155013563Y-75299104D01*
X154999564Y-75265309D01*
X154973699Y-75239444D01*
X154939904Y-75225445D01*
X154903324Y-75225445D01*
X154869529Y-75239444D01*
X154843664Y-75265309D01*
X154829665Y-75299104D01*
X154827864Y-75317394D01*
X154827864Y-75973644D01*
X154707329Y-75973644D01*
X154689039Y-75975445D01*
X154655244Y-75989444D01*
X154635900Y-76008788D01*
X154616556Y-75989444D01*
X154582761Y-75975445D01*
X154564471Y-75973644D01*
X154443935Y-75973644D01*
X154443935Y-75317394D01*
X154442134Y-75299104D01*
X154428135Y-75265309D01*
X154402270Y-75239444D01*
X154368475Y-75225445D01*
X154331895Y-75225445D01*
X154298100Y-75239444D01*
X154272235Y-75265309D01*
X154258236Y-75299104D01*
X154256435Y-75317394D01*
X154256435Y-75973644D01*
X154135900Y-75973644D01*
X154117610Y-75975445D01*
X154083815Y-75989444D01*
X154057950Y-76015309D01*
X154043951Y-76049104D01*
X153950201Y-76049104D01*
X153950201Y-75131695D01*
X156068028Y-75131695D01*
X156068028Y-76463109D01*
G37*
G36*
X161142836Y-76448072D02*
G01*
X158841066Y-76448072D01*
X158841066Y-75456567D01*
X158934816Y-75456567D01*
X158934816Y-75493147D01*
X158948815Y-75526942D01*
X158974680Y-75552807D01*
X159008475Y-75566806D01*
X159026765Y-75568607D01*
X159290158Y-75568607D01*
X159290158Y-76224857D01*
X159291959Y-76243147D01*
X159305958Y-76276942D01*
X159331823Y-76302807D01*
X159365618Y-76316806D01*
X159402198Y-76316806D01*
X159435993Y-76302807D01*
X159461858Y-76276942D01*
X159468598Y-76260670D01*
X159540158Y-76260670D01*
X159547332Y-76296539D01*
X159567686Y-76326933D01*
X159598122Y-76347224D01*
X159634006Y-76354322D01*
X159669875Y-76347148D01*
X159700269Y-76326794D01*
X159711913Y-76312575D01*
X160270391Y-75474857D01*
X160433015Y-75474857D01*
X160433015Y-76224857D01*
X160434816Y-76243147D01*
X160448815Y-76276942D01*
X160474680Y-76302807D01*
X160508475Y-76316806D01*
X160545055Y-76316806D01*
X160578850Y-76302807D01*
X160604715Y-76276942D01*
X160618714Y-76243147D01*
X160620515Y-76224857D01*
X160620515Y-75961464D01*
X160861586Y-75961464D01*
X160861586Y-76224857D01*
X160863387Y-76243147D01*
X160877386Y-76276942D01*
X160903251Y-76302807D01*
X160937046Y-76316806D01*
X160973626Y-76316806D01*
X161007421Y-76302807D01*
X161033286Y-76276942D01*
X161047285Y-76243147D01*
X161049086Y-76224857D01*
X161049086Y-75474857D01*
X161047285Y-75456567D01*
X161033286Y-75422772D01*
X161007421Y-75396907D01*
X160973626Y-75382908D01*
X160937046Y-75382908D01*
X160903251Y-75396907D01*
X160877386Y-75422772D01*
X160863387Y-75456567D01*
X160861586Y-75474857D01*
X160861586Y-75773964D01*
X160620515Y-75773964D01*
X160620515Y-75474857D01*
X160618714Y-75456567D01*
X160604715Y-75422772D01*
X160578850Y-75396907D01*
X160545055Y-75382908D01*
X160508475Y-75382908D01*
X160474680Y-75396907D01*
X160448815Y-75422772D01*
X160434816Y-75456567D01*
X160433015Y-75474857D01*
X160270391Y-75474857D01*
X160354770Y-75348289D01*
X160363416Y-75332072D01*
X160370515Y-75296188D01*
X160363341Y-75260320D01*
X160342987Y-75229926D01*
X160312551Y-75209635D01*
X160276666Y-75202536D01*
X160240798Y-75209710D01*
X160210404Y-75230064D01*
X160198760Y-75244283D01*
X159555903Y-76208569D01*
X159547256Y-76224786D01*
X159540158Y-76260670D01*
X159468598Y-76260670D01*
X159475857Y-76243147D01*
X159477658Y-76224857D01*
X159477658Y-75474857D01*
X159475857Y-75456567D01*
X159461858Y-75422772D01*
X159435993Y-75396907D01*
X159402198Y-75382908D01*
X159383908Y-75381107D01*
X159026765Y-75381107D01*
X159008475Y-75382908D01*
X158974680Y-75396907D01*
X158948815Y-75422772D01*
X158934816Y-75456567D01*
X158841066Y-75456567D01*
X158841066Y-75108786D01*
X161142836Y-75108786D01*
X161142836Y-76448072D01*
G37*
G36*
X153167206Y-102163370D02*
G01*
X153212227Y-102208391D01*
X153236535Y-102257008D01*
X153266955Y-102378685D01*
X153266955Y-102462745D01*
X153236535Y-102584422D01*
X153212226Y-102633041D01*
X153167206Y-102678061D01*
X153095492Y-102701966D01*
X153025884Y-102701966D01*
X153025884Y-102139466D01*
X153095492Y-102139466D01*
X153167206Y-102163370D01*
G37*
G36*
X151769459Y-102158480D02*
G01*
X151783654Y-102172675D01*
X151802669Y-102210704D01*
X151802669Y-102273584D01*
X151783654Y-102311612D01*
X151769458Y-102325809D01*
X151731430Y-102344823D01*
X151561598Y-102344823D01*
X151561598Y-102139466D01*
X151731430Y-102139466D01*
X151769459Y-102158480D01*
G37*
G36*
X153548205Y-102983216D02*
G01*
X151280348Y-102983216D01*
X151280348Y-102045716D01*
X151374098Y-102045716D01*
X151374098Y-102795716D01*
X151375899Y-102814006D01*
X151389898Y-102847801D01*
X151415763Y-102873666D01*
X151449558Y-102887665D01*
X151486138Y-102887665D01*
X151519933Y-102873666D01*
X151545798Y-102847801D01*
X151559797Y-102814006D01*
X151561598Y-102795716D01*
X151561598Y-102532323D01*
X151597608Y-102532323D01*
X151819616Y-102849478D01*
X151831580Y-102863429D01*
X151862429Y-102883087D01*
X151898451Y-102889444D01*
X151934165Y-102881533D01*
X151964132Y-102860555D01*
X151983790Y-102829707D01*
X151990147Y-102793685D01*
X151982235Y-102757971D01*
X151973222Y-102741954D01*
X151813313Y-102513513D01*
X151866917Y-102486712D01*
X151874789Y-102481756D01*
X151877077Y-102480809D01*
X151879651Y-102478695D01*
X151882471Y-102476921D01*
X151884094Y-102475049D01*
X151891283Y-102469149D01*
X151926997Y-102433434D01*
X151932896Y-102426245D01*
X151934767Y-102424624D01*
X151936540Y-102421806D01*
X151938657Y-102419228D01*
X151939605Y-102416937D01*
X151944558Y-102409070D01*
X151980272Y-102337642D01*
X151986840Y-102320478D01*
X151987078Y-102317118D01*
X151988368Y-102314006D01*
X151990169Y-102295716D01*
X151990169Y-102188573D01*
X151988368Y-102170283D01*
X151987078Y-102167170D01*
X151986840Y-102163812D01*
X151980272Y-102146647D01*
X151944558Y-102075218D01*
X151939604Y-102067348D01*
X151938656Y-102065059D01*
X151936541Y-102062482D01*
X151934767Y-102059664D01*
X151932896Y-102058041D01*
X151926996Y-102050853D01*
X151921761Y-102045618D01*
X152052669Y-102045618D01*
X152059767Y-102081502D01*
X152068414Y-102097719D01*
X152283745Y-102420716D01*
X152068414Y-102743713D01*
X152059767Y-102759930D01*
X152052669Y-102795814D01*
X152059843Y-102831683D01*
X152080197Y-102862077D01*
X152110633Y-102882368D01*
X152146517Y-102889466D01*
X152182386Y-102882292D01*
X152212780Y-102861938D01*
X152224424Y-102847719D01*
X152396419Y-102589726D01*
X152568414Y-102847719D01*
X152580058Y-102861938D01*
X152610452Y-102882292D01*
X152646321Y-102889466D01*
X152682205Y-102882368D01*
X152712641Y-102862077D01*
X152732995Y-102831683D01*
X152740169Y-102795815D01*
X152733071Y-102759930D01*
X152724424Y-102743713D01*
X152509092Y-102420716D01*
X152724424Y-102097719D01*
X152733071Y-102081502D01*
X152740149Y-102045716D01*
X152838384Y-102045716D01*
X152838384Y-102795716D01*
X152840185Y-102814006D01*
X152854184Y-102847801D01*
X152880049Y-102873666D01*
X152913844Y-102887665D01*
X152932134Y-102889466D01*
X153110705Y-102889466D01*
X153119961Y-102888554D01*
X153122430Y-102888730D01*
X153125676Y-102887991D01*
X153128995Y-102887665D01*
X153131284Y-102886716D01*
X153140351Y-102884655D01*
X153247495Y-102848941D01*
X153264276Y-102841449D01*
X153266820Y-102839242D01*
X153269933Y-102837953D01*
X153284139Y-102826293D01*
X153355568Y-102754864D01*
X153361468Y-102747675D01*
X153363339Y-102746053D01*
X153365113Y-102743234D01*
X153367228Y-102740658D01*
X153368176Y-102738368D01*
X153373130Y-102730499D01*
X153408844Y-102659070D01*
X153409355Y-102657733D01*
X153409759Y-102657189D01*
X153412506Y-102649497D01*
X153415412Y-102641905D01*
X153415459Y-102641231D01*
X153415942Y-102639882D01*
X153451656Y-102497024D01*
X153452124Y-102493854D01*
X153452654Y-102492577D01*
X153453331Y-102485693D01*
X153454345Y-102478843D01*
X153454141Y-102477473D01*
X153454455Y-102474287D01*
X153454455Y-102367144D01*
X153454141Y-102363957D01*
X153454345Y-102362588D01*
X153453331Y-102355737D01*
X153452654Y-102348854D01*
X153452124Y-102347576D01*
X153451656Y-102344407D01*
X153415942Y-102201549D01*
X153415459Y-102200199D01*
X153415412Y-102199525D01*
X153412503Y-102191925D01*
X153409759Y-102184242D01*
X153409355Y-102183697D01*
X153408844Y-102182361D01*
X153373130Y-102110933D01*
X153368176Y-102103063D01*
X153367228Y-102100774D01*
X153365113Y-102098197D01*
X153363339Y-102095379D01*
X153361468Y-102093756D01*
X153355568Y-102086568D01*
X153284139Y-102015139D01*
X153269933Y-102003479D01*
X153266820Y-102002189D01*
X153264276Y-101999983D01*
X153247495Y-101992491D01*
X153140351Y-101956777D01*
X153131284Y-101954715D01*
X153128995Y-101953767D01*
X153125676Y-101953440D01*
X153122430Y-101952702D01*
X153119961Y-101952877D01*
X153110705Y-101951966D01*
X152932134Y-101951966D01*
X152913844Y-101953767D01*
X152880049Y-101967766D01*
X152854184Y-101993631D01*
X152840185Y-102027426D01*
X152838384Y-102045716D01*
X152740149Y-102045716D01*
X152740169Y-102045617D01*
X152732995Y-102009749D01*
X152712641Y-101979355D01*
X152682205Y-101959064D01*
X152646321Y-101951966D01*
X152610452Y-101959140D01*
X152580058Y-101979494D01*
X152568414Y-101993713D01*
X152396419Y-102251705D01*
X152224424Y-101993713D01*
X152212780Y-101979494D01*
X152182386Y-101959140D01*
X152146517Y-101951966D01*
X152110633Y-101959064D01*
X152080197Y-101979355D01*
X152059843Y-102009749D01*
X152052669Y-102045618D01*
X151921761Y-102045618D01*
X151891282Y-102015139D01*
X151884093Y-102009238D01*
X151882471Y-102007368D01*
X151879652Y-102005593D01*
X151877076Y-102003479D01*
X151874786Y-102002530D01*
X151866917Y-101997577D01*
X151795488Y-101961863D01*
X151778323Y-101955295D01*
X151774964Y-101955056D01*
X151771852Y-101953767D01*
X151753562Y-101951966D01*
X151467848Y-101951966D01*
X151449558Y-101953767D01*
X151415763Y-101967766D01*
X151389898Y-101993631D01*
X151375899Y-102027426D01*
X151374098Y-102045716D01*
X151280348Y-102045716D01*
X151280348Y-101858216D01*
X153548205Y-101858216D01*
X153548205Y-102983216D01*
G37*
G36*
X150626698Y-102163370D02*
G01*
X150671719Y-102208391D01*
X150696027Y-102257008D01*
X150726447Y-102378685D01*
X150726447Y-102462745D01*
X150696027Y-102584422D01*
X150671718Y-102633041D01*
X150626698Y-102678061D01*
X150554984Y-102701966D01*
X150485376Y-102701966D01*
X150485376Y-102139466D01*
X150554984Y-102139466D01*
X150626698Y-102163370D01*
G37*
G36*
X151007697Y-102983216D02*
G01*
X148813069Y-102983216D01*
X148813069Y-102027426D01*
X148906819Y-102027426D01*
X148906819Y-102064006D01*
X148920818Y-102097801D01*
X148946683Y-102123666D01*
X148980478Y-102137665D01*
X148998768Y-102139466D01*
X149119304Y-102139466D01*
X149119304Y-102795716D01*
X149121105Y-102814006D01*
X149135104Y-102847801D01*
X149160969Y-102873666D01*
X149194764Y-102887665D01*
X149231344Y-102887665D01*
X149265139Y-102873666D01*
X149291004Y-102847801D01*
X149305003Y-102814006D01*
X149306804Y-102795716D01*
X149306804Y-102139466D01*
X149427340Y-102139466D01*
X149445630Y-102137665D01*
X149479425Y-102123666D01*
X149505290Y-102097801D01*
X149516926Y-102069709D01*
X149519259Y-102081502D01*
X149527906Y-102097719D01*
X149743237Y-102420716D01*
X149527906Y-102743713D01*
X149519259Y-102759930D01*
X149512161Y-102795814D01*
X149519335Y-102831683D01*
X149539689Y-102862077D01*
X149570125Y-102882368D01*
X149606009Y-102889466D01*
X149641878Y-102882292D01*
X149672272Y-102861938D01*
X149683916Y-102847719D01*
X149855911Y-102589726D01*
X150027906Y-102847719D01*
X150039550Y-102861938D01*
X150069944Y-102882292D01*
X150105813Y-102889466D01*
X150141697Y-102882368D01*
X150172133Y-102862077D01*
X150192487Y-102831683D01*
X150199661Y-102795815D01*
X150192563Y-102759930D01*
X150183916Y-102743713D01*
X149968584Y-102420716D01*
X150183916Y-102097719D01*
X150192563Y-102081502D01*
X150199641Y-102045716D01*
X150297876Y-102045716D01*
X150297876Y-102795716D01*
X150299677Y-102814006D01*
X150313676Y-102847801D01*
X150339541Y-102873666D01*
X150373336Y-102887665D01*
X150391626Y-102889466D01*
X150570197Y-102889466D01*
X150579453Y-102888554D01*
X150581922Y-102888730D01*
X150585168Y-102887991D01*
X150588487Y-102887665D01*
X150590776Y-102886716D01*
X150599843Y-102884655D01*
X150706987Y-102848941D01*
X150723768Y-102841449D01*
X150726312Y-102839242D01*
X150729425Y-102837953D01*
X150743631Y-102826293D01*
X150815060Y-102754864D01*
X150820960Y-102747675D01*
X150822831Y-102746053D01*
X150824605Y-102743234D01*
X150826720Y-102740658D01*
X150827668Y-102738368D01*
X150832622Y-102730499D01*
X150868336Y-102659070D01*
X150868847Y-102657733D01*
X150869251Y-102657189D01*
X150871998Y-102649497D01*
X150874904Y-102641905D01*
X150874951Y-102641231D01*
X150875434Y-102639882D01*
X150911148Y-102497024D01*
X150911616Y-102493854D01*
X150912146Y-102492577D01*
X150912823Y-102485693D01*
X150913837Y-102478843D01*
X150913633Y-102477473D01*
X150913947Y-102474287D01*
X150913947Y-102367144D01*
X150913633Y-102363957D01*
X150913837Y-102362588D01*
X150912823Y-102355737D01*
X150912146Y-102348854D01*
X150911616Y-102347576D01*
X150911148Y-102344407D01*
X150875434Y-102201549D01*
X150874951Y-102200199D01*
X150874904Y-102199525D01*
X150871995Y-102191925D01*
X150869251Y-102184242D01*
X150868847Y-102183697D01*
X150868336Y-102182361D01*
X150832622Y-102110933D01*
X150827668Y-102103063D01*
X150826720Y-102100774D01*
X150824605Y-102098197D01*
X150822831Y-102095379D01*
X150820960Y-102093756D01*
X150815060Y-102086568D01*
X150743631Y-102015139D01*
X150729425Y-102003479D01*
X150726312Y-102002189D01*
X150723768Y-101999983D01*
X150706987Y-101992491D01*
X150599843Y-101956777D01*
X150590776Y-101954715D01*
X150588487Y-101953767D01*
X150585168Y-101953440D01*
X150581922Y-101952702D01*
X150579453Y-101952877D01*
X150570197Y-101951966D01*
X150391626Y-101951966D01*
X150373336Y-101953767D01*
X150339541Y-101967766D01*
X150313676Y-101993631D01*
X150299677Y-102027426D01*
X150297876Y-102045716D01*
X150199641Y-102045716D01*
X150199661Y-102045617D01*
X150192487Y-102009749D01*
X150172133Y-101979355D01*
X150141697Y-101959064D01*
X150105813Y-101951966D01*
X150069944Y-101959140D01*
X150039550Y-101979494D01*
X150027906Y-101993713D01*
X149855911Y-102251705D01*
X149683916Y-101993713D01*
X149672272Y-101979494D01*
X149641878Y-101959140D01*
X149606009Y-101951966D01*
X149570125Y-101959064D01*
X149539689Y-101979355D01*
X149519335Y-102009749D01*
X149516935Y-102021744D01*
X149505290Y-101993631D01*
X149479425Y-101967766D01*
X149445630Y-101953767D01*
X149427340Y-101951966D01*
X148998768Y-101951966D01*
X148980478Y-101953767D01*
X148946683Y-101967766D01*
X148920818Y-101993631D01*
X148906819Y-102027426D01*
X148813069Y-102027426D01*
X148813069Y-101858216D01*
X151007697Y-101858216D01*
X151007697Y-102983216D01*
G37*
G36*
X149154938Y-76072058D02*
G01*
X149085331Y-76072058D01*
X149013615Y-76048153D01*
X148968595Y-76003133D01*
X148944285Y-75954514D01*
X148913867Y-75832838D01*
X148913867Y-75748778D01*
X148944285Y-75627102D01*
X148968594Y-75578485D01*
X149013616Y-75533463D01*
X149085331Y-75509558D01*
X149154938Y-75509558D01*
X149154938Y-76072058D01*
G37*
G36*
X149904938Y-76072058D02*
G01*
X149835331Y-76072058D01*
X149763615Y-76048153D01*
X149718595Y-76003133D01*
X149694285Y-75954514D01*
X149663867Y-75832838D01*
X149663867Y-75748778D01*
X149694285Y-75627102D01*
X149718594Y-75578485D01*
X149763616Y-75533463D01*
X149835331Y-75509558D01*
X149904938Y-75509558D01*
X149904938Y-76072058D01*
G37*
G36*
X150935452Y-76353308D02*
G01*
X148632617Y-76353308D01*
X148632617Y-75737237D01*
X148726367Y-75737237D01*
X148726367Y-75844380D01*
X148726680Y-75847567D01*
X148726477Y-75848937D01*
X148727490Y-75855789D01*
X148728168Y-75862670D01*
X148728697Y-75863947D01*
X148729166Y-75867118D01*
X148764880Y-76009975D01*
X148765362Y-76011324D01*
X148765410Y-76011999D01*
X148768318Y-76019598D01*
X148771063Y-76027282D01*
X148771466Y-76027826D01*
X148771978Y-76029163D01*
X148807692Y-76100591D01*
X148812645Y-76108460D01*
X148813594Y-76110750D01*
X148815708Y-76113326D01*
X148817483Y-76116145D01*
X148819353Y-76117767D01*
X148825254Y-76124956D01*
X148896683Y-76196385D01*
X148910889Y-76208045D01*
X148914001Y-76209334D01*
X148916546Y-76211541D01*
X148933328Y-76219033D01*
X149040471Y-76254747D01*
X149049537Y-76256808D01*
X149051827Y-76257757D01*
X149055145Y-76258083D01*
X149058392Y-76258822D01*
X149060860Y-76258646D01*
X149070117Y-76259558D01*
X149248688Y-76259558D01*
X149266978Y-76257757D01*
X149300773Y-76243758D01*
X149326638Y-76217893D01*
X149340637Y-76184098D01*
X149342438Y-76165808D01*
X149342438Y-75737237D01*
X149476367Y-75737237D01*
X149476367Y-75844380D01*
X149476680Y-75847567D01*
X149476477Y-75848937D01*
X149477490Y-75855789D01*
X149478168Y-75862670D01*
X149478697Y-75863947D01*
X149479166Y-75867118D01*
X149514880Y-76009975D01*
X149515362Y-76011324D01*
X149515410Y-76011999D01*
X149518318Y-76019598D01*
X149521063Y-76027282D01*
X149521466Y-76027826D01*
X149521978Y-76029163D01*
X149557692Y-76100591D01*
X149562645Y-76108460D01*
X149563594Y-76110750D01*
X149565708Y-76113326D01*
X149567483Y-76116145D01*
X149569353Y-76117767D01*
X149575254Y-76124956D01*
X149646683Y-76196385D01*
X149660889Y-76208045D01*
X149664001Y-76209334D01*
X149666546Y-76211541D01*
X149683328Y-76219033D01*
X149790471Y-76254747D01*
X149799537Y-76256808D01*
X149801827Y-76257757D01*
X149805145Y-76258083D01*
X149808392Y-76258822D01*
X149810860Y-76258646D01*
X149820117Y-76259558D01*
X149998688Y-76259558D01*
X150016978Y-76257757D01*
X150050773Y-76243758D01*
X150076638Y-76217893D01*
X150090637Y-76184098D01*
X150092438Y-76165808D01*
X150092438Y-76154083D01*
X150155674Y-76154083D01*
X150158267Y-76190570D01*
X150174626Y-76223287D01*
X150202260Y-76247255D01*
X150236963Y-76258822D01*
X150273450Y-76256229D01*
X150306167Y-76239870D01*
X150330135Y-76212236D01*
X150337627Y-76195454D01*
X150498688Y-75712271D01*
X150659749Y-76195454D01*
X150667241Y-76212236D01*
X150691209Y-76239870D01*
X150723926Y-76256228D01*
X150760413Y-76258822D01*
X150795116Y-76247254D01*
X150822750Y-76223287D01*
X150839108Y-76190570D01*
X150841702Y-76154082D01*
X150837627Y-76136161D01*
X150587627Y-75386162D01*
X150580135Y-75369380D01*
X150575744Y-75364317D01*
X150572750Y-75358329D01*
X150563870Y-75350627D01*
X150556167Y-75341746D01*
X150550175Y-75338750D01*
X150545116Y-75334362D01*
X150533966Y-75330645D01*
X150523450Y-75325387D01*
X150516767Y-75324912D01*
X150510413Y-75322794D01*
X150498690Y-75323627D01*
X150486963Y-75322794D01*
X150480605Y-75324913D01*
X150473926Y-75325388D01*
X150463417Y-75330641D01*
X150452260Y-75334361D01*
X150447197Y-75338751D01*
X150441209Y-75341746D01*
X150433506Y-75350626D01*
X150424626Y-75358329D01*
X150421631Y-75364318D01*
X150417241Y-75369380D01*
X150409749Y-75386162D01*
X150159749Y-76136162D01*
X150155674Y-76154083D01*
X150092438Y-76154083D01*
X150092438Y-75415808D01*
X150090637Y-75397518D01*
X150076638Y-75363723D01*
X150050773Y-75337858D01*
X150016978Y-75323859D01*
X149998688Y-75322058D01*
X149820117Y-75322058D01*
X149810860Y-75322969D01*
X149808391Y-75322794D01*
X149805143Y-75323532D01*
X149801827Y-75323859D01*
X149799538Y-75324806D01*
X149790470Y-75326869D01*
X149683327Y-75362584D01*
X149666545Y-75370077D01*
X149664001Y-75372283D01*
X149660890Y-75373572D01*
X149646683Y-75385231D01*
X149575254Y-75456659D01*
X149569354Y-75463848D01*
X149567483Y-75465471D01*
X149565706Y-75468292D01*
X149563595Y-75470866D01*
X149562648Y-75473151D01*
X149557692Y-75481025D01*
X149521978Y-75552454D01*
X149521466Y-75553790D01*
X149521063Y-75554335D01*
X149518315Y-75562026D01*
X149515410Y-75569619D01*
X149515362Y-75570292D01*
X149514880Y-75571642D01*
X149479166Y-75714499D01*
X149478697Y-75717669D01*
X149478168Y-75718947D01*
X149477490Y-75725827D01*
X149476477Y-75732680D01*
X149476680Y-75734049D01*
X149476367Y-75737237D01*
X149342438Y-75737237D01*
X149342438Y-75415808D01*
X149340637Y-75397518D01*
X149326638Y-75363723D01*
X149300773Y-75337858D01*
X149266978Y-75323859D01*
X149248688Y-75322058D01*
X149070117Y-75322058D01*
X149060860Y-75322969D01*
X149058391Y-75322794D01*
X149055143Y-75323532D01*
X149051827Y-75323859D01*
X149049538Y-75324806D01*
X149040470Y-75326869D01*
X148933327Y-75362584D01*
X148916545Y-75370077D01*
X148914001Y-75372283D01*
X148910890Y-75373572D01*
X148896683Y-75385231D01*
X148825254Y-75456659D01*
X148819354Y-75463848D01*
X148817483Y-75465471D01*
X148815706Y-75468292D01*
X148813595Y-75470866D01*
X148812648Y-75473151D01*
X148807692Y-75481025D01*
X148771978Y-75552454D01*
X148771466Y-75553790D01*
X148771063Y-75554335D01*
X148768315Y-75562026D01*
X148765410Y-75569619D01*
X148765362Y-75570292D01*
X148764880Y-75571642D01*
X148729166Y-75714499D01*
X148728697Y-75717669D01*
X148728168Y-75718947D01*
X148727490Y-75725827D01*
X148726477Y-75732680D01*
X148726680Y-75734049D01*
X148726367Y-75737237D01*
X148632617Y-75737237D01*
X148632617Y-75228308D01*
X150935452Y-75228308D01*
X150935452Y-76353308D01*
G37*
G36*
X137933877Y-102163370D02*
G01*
X137978898Y-102208391D01*
X138003206Y-102257008D01*
X138033626Y-102378685D01*
X138033626Y-102462745D01*
X138003206Y-102584422D01*
X137978897Y-102633041D01*
X137933877Y-102678061D01*
X137862163Y-102701966D01*
X137792555Y-102701966D01*
X137792555Y-102139466D01*
X137862163Y-102139466D01*
X137933877Y-102163370D01*
G37*
G36*
X138314876Y-102983216D02*
G01*
X135939877Y-102983216D01*
X135939877Y-102367144D01*
X136033627Y-102367144D01*
X136033627Y-102474287D01*
X136033940Y-102477474D01*
X136033737Y-102478844D01*
X136034750Y-102485696D01*
X136035428Y-102492577D01*
X136035957Y-102493854D01*
X136036426Y-102497025D01*
X136072140Y-102639882D01*
X136072622Y-102641231D01*
X136072670Y-102641905D01*
X136075575Y-102649497D01*
X136078323Y-102657189D01*
X136078726Y-102657733D01*
X136079238Y-102659070D01*
X136114952Y-102730499D01*
X136119905Y-102738368D01*
X136120854Y-102740658D01*
X136122968Y-102743234D01*
X136124743Y-102746053D01*
X136126613Y-102747675D01*
X136132514Y-102754864D01*
X136203943Y-102826293D01*
X136218149Y-102837953D01*
X136221261Y-102839242D01*
X136223806Y-102841449D01*
X136240588Y-102848941D01*
X136347731Y-102884655D01*
X136356797Y-102886716D01*
X136359087Y-102887665D01*
X136362405Y-102887991D01*
X136365652Y-102888730D01*
X136368120Y-102888554D01*
X136377377Y-102889466D01*
X136448805Y-102889466D01*
X136458061Y-102888554D01*
X136460530Y-102888730D01*
X136463776Y-102887991D01*
X136467095Y-102887665D01*
X136469384Y-102886716D01*
X136478451Y-102884655D01*
X136585595Y-102848941D01*
X136602376Y-102841449D01*
X136604921Y-102839241D01*
X136608034Y-102837952D01*
X136622240Y-102826292D01*
X136657954Y-102790577D01*
X136669614Y-102776371D01*
X136680866Y-102749203D01*
X136683611Y-102742577D01*
X136685412Y-102724287D01*
X136685412Y-102474287D01*
X136683611Y-102455997D01*
X136669612Y-102422202D01*
X136643747Y-102396337D01*
X136609952Y-102382338D01*
X136591662Y-102380537D01*
X136448805Y-102380537D01*
X136430515Y-102382338D01*
X136396720Y-102396337D01*
X136370855Y-102422202D01*
X136356856Y-102455997D01*
X136356856Y-102492577D01*
X136370855Y-102526372D01*
X136396720Y-102552237D01*
X136430515Y-102566236D01*
X136448805Y-102568037D01*
X136497912Y-102568037D01*
X136497912Y-102680526D01*
X136433592Y-102701966D01*
X136392591Y-102701966D01*
X136320875Y-102678061D01*
X136275855Y-102633041D01*
X136251545Y-102584421D01*
X136221127Y-102462745D01*
X136221127Y-102378685D01*
X136251545Y-102257009D01*
X136275855Y-102208391D01*
X136320875Y-102163370D01*
X136392591Y-102139466D01*
X136462388Y-102139466D01*
X136514022Y-102165283D01*
X136531186Y-102171851D01*
X136567674Y-102174444D01*
X136602376Y-102162877D01*
X136630010Y-102138910D01*
X136646369Y-102106192D01*
X136648962Y-102069704D01*
X136640966Y-102045716D01*
X136819341Y-102045716D01*
X136819341Y-102795716D01*
X136821142Y-102814006D01*
X136835141Y-102847801D01*
X136861006Y-102873666D01*
X136894801Y-102887665D01*
X136931381Y-102887665D01*
X136965176Y-102873666D01*
X136991041Y-102847801D01*
X137005040Y-102814006D01*
X137006841Y-102795716D01*
X137006841Y-102398738D01*
X137260264Y-102842229D01*
X137263001Y-102846085D01*
X137263712Y-102847801D01*
X137265459Y-102849548D01*
X137270902Y-102857216D01*
X137280762Y-102864851D01*
X137289577Y-102873666D01*
X137295099Y-102875953D01*
X137299824Y-102879612D01*
X137311848Y-102882891D01*
X137323372Y-102887665D01*
X137329349Y-102887665D01*
X137335113Y-102889237D01*
X137347479Y-102887665D01*
X137359952Y-102887665D01*
X137365474Y-102885377D01*
X137371401Y-102884624D01*
X137382227Y-102878437D01*
X137393747Y-102873666D01*
X137397970Y-102869442D01*
X137403162Y-102866476D01*
X137410797Y-102856615D01*
X137419612Y-102847801D01*
X137421899Y-102842278D01*
X137425558Y-102837554D01*
X137428837Y-102825529D01*
X137433611Y-102814006D01*
X137434532Y-102804649D01*
X137435183Y-102802264D01*
X137434948Y-102800420D01*
X137435412Y-102795716D01*
X137435412Y-102045716D01*
X137605055Y-102045716D01*
X137605055Y-102795716D01*
X137606856Y-102814006D01*
X137620855Y-102847801D01*
X137646720Y-102873666D01*
X137680515Y-102887665D01*
X137698805Y-102889466D01*
X137877376Y-102889466D01*
X137886632Y-102888554D01*
X137889101Y-102888730D01*
X137892347Y-102887991D01*
X137895666Y-102887665D01*
X137897955Y-102886716D01*
X137907022Y-102884655D01*
X138014166Y-102848941D01*
X138030947Y-102841449D01*
X138033491Y-102839242D01*
X138036604Y-102837953D01*
X138050810Y-102826293D01*
X138122239Y-102754864D01*
X138128139Y-102747675D01*
X138130010Y-102746053D01*
X138131784Y-102743234D01*
X138133899Y-102740658D01*
X138134847Y-102738368D01*
X138139801Y-102730499D01*
X138175515Y-102659070D01*
X138176026Y-102657733D01*
X138176430Y-102657189D01*
X138179177Y-102649497D01*
X138182083Y-102641905D01*
X138182130Y-102641231D01*
X138182613Y-102639882D01*
X138218327Y-102497024D01*
X138218795Y-102493854D01*
X138219325Y-102492577D01*
X138220002Y-102485693D01*
X138221016Y-102478843D01*
X138220812Y-102477473D01*
X138221126Y-102474287D01*
X138221126Y-102367144D01*
X138220812Y-102363957D01*
X138221016Y-102362588D01*
X138220002Y-102355737D01*
X138219325Y-102348854D01*
X138218795Y-102347576D01*
X138218327Y-102344407D01*
X138182613Y-102201549D01*
X138182130Y-102200199D01*
X138182083Y-102199525D01*
X138179174Y-102191925D01*
X138176430Y-102184242D01*
X138176026Y-102183697D01*
X138175515Y-102182361D01*
X138139801Y-102110933D01*
X138134847Y-102103063D01*
X138133899Y-102100774D01*
X138131784Y-102098197D01*
X138130010Y-102095379D01*
X138128139Y-102093756D01*
X138122239Y-102086568D01*
X138050810Y-102015139D01*
X138036604Y-102003479D01*
X138033491Y-102002189D01*
X138030947Y-101999983D01*
X138014166Y-101992491D01*
X137907022Y-101956777D01*
X137897955Y-101954715D01*
X137895666Y-101953767D01*
X137892347Y-101953440D01*
X137889101Y-101952702D01*
X137886632Y-101952877D01*
X137877376Y-101951966D01*
X137698805Y-101951966D01*
X137680515Y-101953767D01*
X137646720Y-101967766D01*
X137620855Y-101993631D01*
X137606856Y-102027426D01*
X137605055Y-102045716D01*
X137435412Y-102045716D01*
X137433611Y-102027426D01*
X137419612Y-101993631D01*
X137393747Y-101967766D01*
X137359952Y-101953767D01*
X137323372Y-101953767D01*
X137289577Y-101967766D01*
X137263712Y-101993631D01*
X137249713Y-102027426D01*
X137247912Y-102045716D01*
X137247912Y-102442693D01*
X136994489Y-101999203D01*
X136991751Y-101995346D01*
X136991041Y-101993631D01*
X136989293Y-101991883D01*
X136983851Y-101984216D01*
X136973990Y-101976580D01*
X136965176Y-101967766D01*
X136959653Y-101965478D01*
X136954929Y-101961820D01*
X136942904Y-101958540D01*
X136931381Y-101953767D01*
X136925403Y-101953767D01*
X136919639Y-101952195D01*
X136907273Y-101953767D01*
X136894801Y-101953767D01*
X136889278Y-101956054D01*
X136883352Y-101956808D01*
X136872525Y-101962994D01*
X136861006Y-101967766D01*
X136856782Y-101971989D01*
X136851591Y-101974956D01*
X136843955Y-101984816D01*
X136835141Y-101993631D01*
X136832853Y-101999153D01*
X136829195Y-102003878D01*
X136825915Y-102015902D01*
X136821142Y-102027426D01*
X136820220Y-102036782D01*
X136819570Y-102039168D01*
X136819804Y-102041011D01*
X136819341Y-102045716D01*
X136640966Y-102045716D01*
X136637395Y-102035003D01*
X136613428Y-102007368D01*
X136597874Y-101997577D01*
X136526446Y-101961863D01*
X136509282Y-101955295D01*
X136505922Y-101955056D01*
X136502810Y-101953767D01*
X136484520Y-101951966D01*
X136377377Y-101951966D01*
X136368120Y-101952877D01*
X136365652Y-101952702D01*
X136362405Y-101953440D01*
X136359087Y-101953767D01*
X136356797Y-101954715D01*
X136347731Y-101956777D01*
X136240588Y-101992491D01*
X136223806Y-101999983D01*
X136221261Y-102002189D01*
X136218149Y-102003479D01*
X136203943Y-102015139D01*
X136132514Y-102086568D01*
X136126613Y-102093756D01*
X136124743Y-102095379D01*
X136122968Y-102098197D01*
X136120854Y-102100774D01*
X136119905Y-102103063D01*
X136114952Y-102110933D01*
X136079238Y-102182361D01*
X136078726Y-102183697D01*
X136078323Y-102184242D01*
X136075578Y-102191925D01*
X136072670Y-102199525D01*
X136072622Y-102200199D01*
X136072140Y-102201549D01*
X136036426Y-102344406D01*
X136035957Y-102347576D01*
X136035428Y-102348854D01*
X136034750Y-102355734D01*
X136033737Y-102362587D01*
X136033940Y-102363956D01*
X136033627Y-102367144D01*
X135939877Y-102367144D01*
X135939877Y-101858216D01*
X138314876Y-101858216D01*
X138314876Y-102983216D01*
G37*
G36*
X157218213Y-75973644D02*
G01*
X157148606Y-75973644D01*
X157076890Y-75949739D01*
X157031870Y-75904719D01*
X157007560Y-75856100D01*
X156977142Y-75734424D01*
X156977142Y-75650364D01*
X157007560Y-75528688D01*
X157031869Y-75480071D01*
X157076891Y-75435049D01*
X157148606Y-75411144D01*
X157218213Y-75411144D01*
X157218213Y-75973644D01*
G37*
G36*
X157968213Y-75973644D02*
G01*
X157798381Y-75973644D01*
X157760351Y-75954629D01*
X157746156Y-75940434D01*
X157727142Y-75902405D01*
X157727142Y-75839526D01*
X157746156Y-75801497D01*
X157760352Y-75787300D01*
X157798381Y-75768287D01*
X157968213Y-75768287D01*
X157968213Y-75973644D01*
G37*
G36*
X158351234Y-76463109D02*
G01*
X156629836Y-76463109D01*
X156629836Y-76257319D01*
X156723586Y-76257319D01*
X156723586Y-76293899D01*
X156737585Y-76327694D01*
X156763450Y-76353559D01*
X156797245Y-76367558D01*
X156815535Y-76369359D01*
X158165535Y-76369359D01*
X158183825Y-76367558D01*
X158217620Y-76353559D01*
X158243485Y-76327694D01*
X158257484Y-76293899D01*
X158257484Y-76257319D01*
X158243485Y-76223524D01*
X158217620Y-76197659D01*
X158183825Y-76183660D01*
X158165535Y-76181859D01*
X156815535Y-76181859D01*
X156797245Y-76183660D01*
X156763450Y-76197659D01*
X156737585Y-76223524D01*
X156723586Y-76257319D01*
X156629836Y-76257319D01*
X156629836Y-75638823D01*
X156789642Y-75638823D01*
X156789642Y-75745966D01*
X156789955Y-75749153D01*
X156789752Y-75750523D01*
X156790765Y-75757375D01*
X156791443Y-75764256D01*
X156791972Y-75765533D01*
X156792441Y-75768704D01*
X156828155Y-75911561D01*
X156828637Y-75912910D01*
X156828685Y-75913585D01*
X156831593Y-75921184D01*
X156834338Y-75928868D01*
X156834741Y-75929412D01*
X156835253Y-75930749D01*
X156870967Y-76002177D01*
X156875920Y-76010046D01*
X156876869Y-76012336D01*
X156878983Y-76014912D01*
X156880758Y-76017731D01*
X156882628Y-76019353D01*
X156888529Y-76026542D01*
X156959958Y-76097971D01*
X156974164Y-76109631D01*
X156977276Y-76110920D01*
X156979821Y-76113127D01*
X156996603Y-76120619D01*
X157103746Y-76156333D01*
X157112812Y-76158394D01*
X157115102Y-76159343D01*
X157118420Y-76159669D01*
X157121667Y-76160408D01*
X157124135Y-76160232D01*
X157133392Y-76161144D01*
X157311963Y-76161144D01*
X157330253Y-76159343D01*
X157364048Y-76145344D01*
X157389913Y-76119479D01*
X157403912Y-76085684D01*
X157405713Y-76067394D01*
X157405713Y-75817394D01*
X157539642Y-75817394D01*
X157539642Y-75924537D01*
X157541443Y-75942827D01*
X157542732Y-75945939D01*
X157542971Y-75949298D01*
X157549539Y-75966463D01*
X157585253Y-76037892D01*
X157590206Y-76045761D01*
X157591155Y-76048051D01*
X157593269Y-76050627D01*
X157595044Y-76053446D01*
X157596914Y-76055068D01*
X157602815Y-76062257D01*
X157638529Y-76097971D01*
X157645717Y-76103871D01*
X157647340Y-76105742D01*
X157650158Y-76107516D01*
X157652735Y-76109631D01*
X157655024Y-76110579D01*
X157662894Y-76115533D01*
X157734323Y-76151247D01*
X157751488Y-76157815D01*
X157754846Y-76158053D01*
X157757959Y-76159343D01*
X157776249Y-76161144D01*
X158061963Y-76161144D01*
X158080253Y-76159343D01*
X158114048Y-76145344D01*
X158139913Y-76119479D01*
X158153912Y-76085684D01*
X158155713Y-76067394D01*
X158155713Y-75317394D01*
X158153912Y-75299104D01*
X158139913Y-75265309D01*
X158114048Y-75239444D01*
X158080253Y-75225445D01*
X158043673Y-75225445D01*
X158009878Y-75239444D01*
X157984013Y-75265309D01*
X157970014Y-75299104D01*
X157968213Y-75317394D01*
X157968213Y-75580787D01*
X157776249Y-75580787D01*
X157757959Y-75582588D01*
X157754846Y-75583877D01*
X157751488Y-75584116D01*
X157734323Y-75590684D01*
X157662894Y-75626398D01*
X157655021Y-75631353D01*
X157652734Y-75632301D01*
X157650159Y-75634414D01*
X157647340Y-75636189D01*
X157645716Y-75638060D01*
X157638528Y-75643961D01*
X157602814Y-75679676D01*
X157596915Y-75686862D01*
X157595044Y-75688486D01*
X157593267Y-75691307D01*
X157591155Y-75693882D01*
X157590207Y-75696168D01*
X157585253Y-75704040D01*
X157549539Y-75775468D01*
X157542971Y-75792632D01*
X157542732Y-75795991D01*
X157541443Y-75799104D01*
X157539642Y-75817394D01*
X157405713Y-75817394D01*
X157405713Y-75317394D01*
X157403912Y-75299104D01*
X157389913Y-75265309D01*
X157364048Y-75239444D01*
X157330253Y-75225445D01*
X157311963Y-75223644D01*
X157133392Y-75223644D01*
X157124135Y-75224555D01*
X157121666Y-75224380D01*
X157118418Y-75225118D01*
X157115102Y-75225445D01*
X157112813Y-75226392D01*
X157103745Y-75228455D01*
X156996602Y-75264170D01*
X156979820Y-75271663D01*
X156977276Y-75273869D01*
X156974165Y-75275158D01*
X156959958Y-75286817D01*
X156888529Y-75358245D01*
X156882629Y-75365434D01*
X156880758Y-75367057D01*
X156878981Y-75369878D01*
X156876870Y-75372452D01*
X156875923Y-75374737D01*
X156870967Y-75382611D01*
X156835253Y-75454040D01*
X156834741Y-75455376D01*
X156834338Y-75455921D01*
X156831590Y-75463612D01*
X156828685Y-75471205D01*
X156828637Y-75471878D01*
X156828155Y-75473228D01*
X156792441Y-75616085D01*
X156791972Y-75619255D01*
X156791443Y-75620533D01*
X156790765Y-75627413D01*
X156789752Y-75634266D01*
X156789955Y-75635635D01*
X156789642Y-75638823D01*
X156629836Y-75638823D01*
X156629836Y-75129894D01*
X158351234Y-75129894D01*
X158351234Y-76463109D01*
G37*
G36*
X146692598Y-103054644D02*
G01*
X142996169Y-103054644D01*
X142996169Y-102045716D01*
X143089919Y-102045716D01*
X143089919Y-102795716D01*
X143091720Y-102814006D01*
X143105719Y-102847801D01*
X143131584Y-102873666D01*
X143165379Y-102887665D01*
X143201959Y-102887665D01*
X143235754Y-102873666D01*
X143261619Y-102847801D01*
X143275618Y-102814006D01*
X143277419Y-102795716D01*
X143277419Y-102468300D01*
X143348714Y-102621075D01*
X143352683Y-102627775D01*
X143353507Y-102630041D01*
X143354974Y-102631643D01*
X143358081Y-102636888D01*
X143368588Y-102646510D01*
X143378211Y-102657018D01*
X143381987Y-102658780D01*
X143385058Y-102661592D01*
X143398442Y-102666459D01*
X143411359Y-102672487D01*
X143415520Y-102672669D01*
X143419434Y-102674093D01*
X143433669Y-102673467D01*
X143447904Y-102674093D01*
X143451817Y-102672669D01*
X143455979Y-102672487D01*
X143468895Y-102666459D01*
X143482280Y-102661592D01*
X143485350Y-102658780D01*
X143489127Y-102657018D01*
X143498749Y-102646510D01*
X143509257Y-102636888D01*
X143512364Y-102631642D01*
X143513831Y-102630041D01*
X143514654Y-102627777D01*
X143518624Y-102621076D01*
X143589919Y-102468301D01*
X143589919Y-102795716D01*
X143591720Y-102814006D01*
X143605719Y-102847801D01*
X143631584Y-102873666D01*
X143665379Y-102887665D01*
X143701959Y-102887665D01*
X143735754Y-102873666D01*
X143761619Y-102847801D01*
X143775618Y-102814006D01*
X143777419Y-102795716D01*
X143777419Y-102045716D01*
X143947062Y-102045716D01*
X143947062Y-102795716D01*
X143948863Y-102814006D01*
X143962862Y-102847801D01*
X143988727Y-102873666D01*
X144022522Y-102887665D01*
X144059102Y-102887665D01*
X144092897Y-102873666D01*
X144118762Y-102847801D01*
X144132761Y-102814006D01*
X144134562Y-102795716D01*
X144134562Y-102367144D01*
X144268491Y-102367144D01*
X144268491Y-102474287D01*
X144268804Y-102477474D01*
X144268601Y-102478844D01*
X144269614Y-102485696D01*
X144270292Y-102492577D01*
X144270821Y-102493854D01*
X144271290Y-102497025D01*
X144307004Y-102639882D01*
X144307486Y-102641231D01*
X144307534Y-102641905D01*
X144310439Y-102649497D01*
X144313187Y-102657189D01*
X144313590Y-102657733D01*
X144314102Y-102659070D01*
X144349816Y-102730499D01*
X144354769Y-102738368D01*
X144355718Y-102740658D01*
X144357832Y-102743234D01*
X144359607Y-102746053D01*
X144361477Y-102747675D01*
X144367378Y-102754864D01*
X144438807Y-102826293D01*
X144453013Y-102837953D01*
X144456125Y-102839242D01*
X144458670Y-102841449D01*
X144475452Y-102848941D01*
X144582595Y-102884655D01*
X144591661Y-102886716D01*
X144593951Y-102887665D01*
X144597269Y-102887991D01*
X144600516Y-102888730D01*
X144602984Y-102888554D01*
X144612241Y-102889466D01*
X144683669Y-102889466D01*
X144692925Y-102888554D01*
X144695394Y-102888730D01*
X144698640Y-102887991D01*
X144701959Y-102887665D01*
X144704248Y-102886716D01*
X144713315Y-102884655D01*
X144820459Y-102848941D01*
X144820654Y-102848854D01*
X144877435Y-102848854D01*
X144877435Y-102885434D01*
X144891434Y-102919229D01*
X144917299Y-102945094D01*
X144951094Y-102959093D01*
X144969384Y-102960894D01*
X145540812Y-102960894D01*
X145559102Y-102959093D01*
X145592897Y-102945094D01*
X145618762Y-102919229D01*
X145632761Y-102885434D01*
X145632761Y-102848854D01*
X145618762Y-102815059D01*
X145592897Y-102789194D01*
X145559102Y-102775195D01*
X145540812Y-102773394D01*
X144969384Y-102773394D01*
X144951094Y-102775195D01*
X144917299Y-102789194D01*
X144891434Y-102815059D01*
X144877435Y-102848854D01*
X144820654Y-102848854D01*
X144837240Y-102841449D01*
X144839785Y-102839241D01*
X144842898Y-102837952D01*
X144857104Y-102826292D01*
X144892818Y-102790577D01*
X144904478Y-102776371D01*
X144918475Y-102742575D01*
X144918474Y-102705996D01*
X144904476Y-102672201D01*
X144878610Y-102646335D01*
X144844814Y-102632338D01*
X144808235Y-102632339D01*
X144774440Y-102646337D01*
X144760234Y-102657997D01*
X144740169Y-102678061D01*
X144668456Y-102701966D01*
X144627455Y-102701966D01*
X144555739Y-102678061D01*
X144510719Y-102633041D01*
X144486409Y-102584421D01*
X144455991Y-102462745D01*
X144455991Y-102378685D01*
X144486409Y-102257009D01*
X144510719Y-102208391D01*
X144555739Y-102163370D01*
X144627455Y-102139466D01*
X144668456Y-102139466D01*
X144740170Y-102163370D01*
X144760235Y-102183435D01*
X144774441Y-102195095D01*
X144808237Y-102209092D01*
X144844815Y-102209092D01*
X144878611Y-102195095D01*
X144904477Y-102169229D01*
X144918474Y-102135433D01*
X144918474Y-102098855D01*
X144904477Y-102065059D01*
X144892817Y-102050853D01*
X144887680Y-102045716D01*
X145625634Y-102045716D01*
X145625634Y-102795716D01*
X145627435Y-102814006D01*
X145641434Y-102847801D01*
X145667299Y-102873666D01*
X145701094Y-102887665D01*
X145737674Y-102887665D01*
X145771469Y-102873666D01*
X145797334Y-102847801D01*
X145811333Y-102814006D01*
X145813134Y-102795716D01*
X145813134Y-102045716D01*
X145982777Y-102045716D01*
X145982777Y-102795716D01*
X145984578Y-102814006D01*
X145998577Y-102847801D01*
X146024442Y-102873666D01*
X146058237Y-102887665D01*
X146094817Y-102887665D01*
X146128612Y-102873666D01*
X146154477Y-102847801D01*
X146168476Y-102814006D01*
X146170277Y-102795716D01*
X146170277Y-102398738D01*
X146423700Y-102842229D01*
X146426437Y-102846085D01*
X146427148Y-102847801D01*
X146428895Y-102849548D01*
X146434338Y-102857216D01*
X146444198Y-102864851D01*
X146453013Y-102873666D01*
X146458535Y-102875953D01*
X146463260Y-102879612D01*
X146475284Y-102882891D01*
X146486808Y-102887665D01*
X146492785Y-102887665D01*
X146498549Y-102889237D01*
X146510915Y-102887665D01*
X146523388Y-102887665D01*
X146528910Y-102885377D01*
X146534837Y-102884624D01*
X146545663Y-102878437D01*
X146557183Y-102873666D01*
X146561406Y-102869442D01*
X146566598Y-102866476D01*
X146574233Y-102856615D01*
X146583048Y-102847801D01*
X146585335Y-102842278D01*
X146588994Y-102837554D01*
X146592273Y-102825529D01*
X146597047Y-102814006D01*
X146597968Y-102804649D01*
X146598619Y-102802264D01*
X146598384Y-102800420D01*
X146598848Y-102795716D01*
X146598848Y-102045716D01*
X146597047Y-102027426D01*
X146583048Y-101993631D01*
X146557183Y-101967766D01*
X146523388Y-101953767D01*
X146486808Y-101953767D01*
X146453013Y-101967766D01*
X146427148Y-101993631D01*
X146413149Y-102027426D01*
X146411348Y-102045716D01*
X146411348Y-102442693D01*
X146157925Y-101999203D01*
X146155187Y-101995346D01*
X146154477Y-101993631D01*
X146152729Y-101991883D01*
X146147287Y-101984216D01*
X146137426Y-101976580D01*
X146128612Y-101967766D01*
X146123089Y-101965478D01*
X146118365Y-101961820D01*
X146106340Y-101958540D01*
X146094817Y-101953767D01*
X146088839Y-101953767D01*
X146083075Y-101952195D01*
X146070709Y-101953767D01*
X146058237Y-101953767D01*
X146052714Y-101956054D01*
X146046788Y-101956808D01*
X146035961Y-101962994D01*
X146024442Y-101967766D01*
X146020218Y-101971989D01*
X146015027Y-101974956D01*
X146007391Y-101984816D01*
X145998577Y-101993631D01*
X145996289Y-101999153D01*
X145992631Y-102003878D01*
X145989351Y-102015902D01*
X145984578Y-102027426D01*
X145983656Y-102036782D01*
X145983006Y-102039168D01*
X145983240Y-102041011D01*
X145982777Y-102045716D01*
X145813134Y-102045716D01*
X145811333Y-102027426D01*
X145797334Y-101993631D01*
X145771469Y-101967766D01*
X145737674Y-101953767D01*
X145701094Y-101953767D01*
X145667299Y-101967766D01*
X145641434Y-101993631D01*
X145627435Y-102027426D01*
X145625634Y-102045716D01*
X144887680Y-102045716D01*
X144857103Y-102015139D01*
X144842897Y-102003479D01*
X144839784Y-102002189D01*
X144837240Y-101999983D01*
X144820459Y-101992491D01*
X144713315Y-101956777D01*
X144704248Y-101954715D01*
X144701959Y-101953767D01*
X144698640Y-101953440D01*
X144695394Y-101952702D01*
X144692925Y-101952877D01*
X144683669Y-101951966D01*
X144612241Y-101951966D01*
X144602984Y-101952877D01*
X144600516Y-101952702D01*
X144597269Y-101953440D01*
X144593951Y-101953767D01*
X144591661Y-101954715D01*
X144582595Y-101956777D01*
X144475452Y-101992491D01*
X144458670Y-101999983D01*
X144456125Y-102002189D01*
X144453013Y-102003479D01*
X144438807Y-102015139D01*
X144367378Y-102086568D01*
X144361477Y-102093756D01*
X144359607Y-102095379D01*
X144357832Y-102098197D01*
X144355718Y-102100774D01*
X144354769Y-102103063D01*
X144349816Y-102110933D01*
X144314102Y-102182361D01*
X144313590Y-102183697D01*
X144313187Y-102184242D01*
X144310442Y-102191925D01*
X144307534Y-102199525D01*
X144307486Y-102200199D01*
X144307004Y-102201549D01*
X144271290Y-102344406D01*
X144270821Y-102347576D01*
X144270292Y-102348854D01*
X144269614Y-102355734D01*
X144268601Y-102362587D01*
X144268804Y-102363956D01*
X144268491Y-102367144D01*
X144134562Y-102367144D01*
X144134562Y-102045716D01*
X144132761Y-102027426D01*
X144118762Y-101993631D01*
X144092897Y-101967766D01*
X144059102Y-101953767D01*
X144022522Y-101953767D01*
X143988727Y-101967766D01*
X143962862Y-101993631D01*
X143948863Y-102027426D01*
X143947062Y-102045716D01*
X143777419Y-102045716D01*
X143776234Y-102033691D01*
X143776332Y-102031482D01*
X143775900Y-102030295D01*
X143775618Y-102027426D01*
X143769387Y-102012384D01*
X143763831Y-101997105D01*
X143762419Y-101995563D01*
X143761619Y-101993631D01*
X143750115Y-101982127D01*
X143739127Y-101970128D01*
X143737231Y-101969243D01*
X143735754Y-101967766D01*
X143720726Y-101961540D01*
X143705979Y-101954659D01*
X143703890Y-101954567D01*
X143701959Y-101953767D01*
X143685681Y-101953767D01*
X143669434Y-101953053D01*
X143667471Y-101953767D01*
X143665379Y-101953767D01*
X143650340Y-101959996D01*
X143635058Y-101965554D01*
X143633516Y-101966965D01*
X143631584Y-101967766D01*
X143620080Y-101979269D01*
X143608081Y-101990258D01*
X143606611Y-101992738D01*
X143605719Y-101993631D01*
X143604872Y-101995674D01*
X143598714Y-102006071D01*
X143433669Y-102359737D01*
X143268624Y-102006070D01*
X143262464Y-101995673D01*
X143261619Y-101993631D01*
X143260726Y-101992738D01*
X143259257Y-101990258D01*
X143247257Y-101979269D01*
X143235754Y-101967766D01*
X143233821Y-101966965D01*
X143232280Y-101965554D01*
X143216997Y-101959996D01*
X143201959Y-101953767D01*
X143199867Y-101953767D01*
X143197904Y-101953053D01*
X143181657Y-101953767D01*
X143165379Y-101953767D01*
X143163447Y-101954567D01*
X143161359Y-101954659D01*
X143146611Y-101961540D01*
X143131584Y-101967766D01*
X143130106Y-101969243D01*
X143128211Y-101970128D01*
X143117222Y-101982127D01*
X143105719Y-101993631D01*
X143104918Y-101995563D01*
X143103507Y-101997105D01*
X143097949Y-102012387D01*
X143091720Y-102027426D01*
X143091437Y-102030294D01*
X143091006Y-102031481D01*
X143091103Y-102033690D01*
X143089919Y-102045716D01*
X142996169Y-102045716D01*
X142996169Y-101858216D01*
X146692598Y-101858216D01*
X146692598Y-103054644D01*
G37*
G36*
X140515009Y-102163370D02*
G01*
X140560030Y-102208391D01*
X140584338Y-102257008D01*
X140614758Y-102378685D01*
X140614758Y-102462745D01*
X140584338Y-102584422D01*
X140560029Y-102633041D01*
X140515009Y-102678061D01*
X140443295Y-102701966D01*
X140373687Y-102701966D01*
X140373687Y-102139466D01*
X140443295Y-102139466D01*
X140515009Y-102163370D01*
G37*
G36*
X140896008Y-102983216D02*
G01*
X138521009Y-102983216D01*
X138521009Y-102367144D01*
X138614759Y-102367144D01*
X138614759Y-102474287D01*
X138615072Y-102477474D01*
X138614869Y-102478844D01*
X138615882Y-102485696D01*
X138616560Y-102492577D01*
X138617089Y-102493854D01*
X138617558Y-102497025D01*
X138653272Y-102639882D01*
X138653754Y-102641231D01*
X138653802Y-102641905D01*
X138656707Y-102649497D01*
X138659455Y-102657189D01*
X138659858Y-102657733D01*
X138660370Y-102659070D01*
X138696084Y-102730499D01*
X138701037Y-102738368D01*
X138701986Y-102740658D01*
X138704100Y-102743234D01*
X138705875Y-102746053D01*
X138707745Y-102747675D01*
X138713646Y-102754864D01*
X138785075Y-102826293D01*
X138799281Y-102837953D01*
X138802393Y-102839242D01*
X138804938Y-102841449D01*
X138821720Y-102848941D01*
X138928863Y-102884655D01*
X138937929Y-102886716D01*
X138940219Y-102887665D01*
X138943537Y-102887991D01*
X138946784Y-102888730D01*
X138949252Y-102888554D01*
X138958509Y-102889466D01*
X139029937Y-102889466D01*
X139039193Y-102888554D01*
X139041662Y-102888730D01*
X139044908Y-102887991D01*
X139048227Y-102887665D01*
X139050516Y-102886716D01*
X139059583Y-102884655D01*
X139166727Y-102848941D01*
X139183508Y-102841449D01*
X139186053Y-102839241D01*
X139189166Y-102837952D01*
X139203372Y-102826292D01*
X139239086Y-102790577D01*
X139250746Y-102776371D01*
X139261998Y-102749203D01*
X139264743Y-102742577D01*
X139266544Y-102724287D01*
X139266544Y-102474287D01*
X139264743Y-102455997D01*
X139250744Y-102422202D01*
X139224879Y-102396337D01*
X139191084Y-102382338D01*
X139172794Y-102380537D01*
X139029937Y-102380537D01*
X139011647Y-102382338D01*
X138977852Y-102396337D01*
X138951987Y-102422202D01*
X138937988Y-102455997D01*
X138937988Y-102492577D01*
X138951987Y-102526372D01*
X138977852Y-102552237D01*
X139011647Y-102566236D01*
X139029937Y-102568037D01*
X139079044Y-102568037D01*
X139079044Y-102680526D01*
X139014724Y-102701966D01*
X138973723Y-102701966D01*
X138902007Y-102678061D01*
X138856987Y-102633041D01*
X138832677Y-102584421D01*
X138802259Y-102462745D01*
X138802259Y-102378685D01*
X138832677Y-102257009D01*
X138856987Y-102208391D01*
X138902007Y-102163370D01*
X138973723Y-102139466D01*
X139043520Y-102139466D01*
X139095154Y-102165283D01*
X139112318Y-102171851D01*
X139148806Y-102174444D01*
X139183508Y-102162877D01*
X139211142Y-102138910D01*
X139227501Y-102106192D01*
X139230094Y-102069704D01*
X139222098Y-102045716D01*
X139400473Y-102045716D01*
X139400473Y-102795716D01*
X139402274Y-102814006D01*
X139416273Y-102847801D01*
X139442138Y-102873666D01*
X139475933Y-102887665D01*
X139512513Y-102887665D01*
X139546308Y-102873666D01*
X139572173Y-102847801D01*
X139586172Y-102814006D01*
X139587973Y-102795716D01*
X139587973Y-102398738D01*
X139841396Y-102842229D01*
X139844133Y-102846085D01*
X139844844Y-102847801D01*
X139846591Y-102849548D01*
X139852034Y-102857216D01*
X139861894Y-102864851D01*
X139870709Y-102873666D01*
X139876231Y-102875953D01*
X139880956Y-102879612D01*
X139892980Y-102882891D01*
X139904504Y-102887665D01*
X139910481Y-102887665D01*
X139916245Y-102889237D01*
X139928611Y-102887665D01*
X139941084Y-102887665D01*
X139946606Y-102885377D01*
X139952533Y-102884624D01*
X139963359Y-102878437D01*
X139974879Y-102873666D01*
X139979102Y-102869442D01*
X139984294Y-102866476D01*
X139991929Y-102856615D01*
X140000744Y-102847801D01*
X140003031Y-102842278D01*
X140006690Y-102837554D01*
X140009969Y-102825529D01*
X140014743Y-102814006D01*
X140015664Y-102804649D01*
X140016315Y-102802264D01*
X140016080Y-102800420D01*
X140016544Y-102795716D01*
X140016544Y-102045716D01*
X140186187Y-102045716D01*
X140186187Y-102795716D01*
X140187988Y-102814006D01*
X140201987Y-102847801D01*
X140227852Y-102873666D01*
X140261647Y-102887665D01*
X140279937Y-102889466D01*
X140458508Y-102889466D01*
X140467764Y-102888554D01*
X140470233Y-102888730D01*
X140473479Y-102887991D01*
X140476798Y-102887665D01*
X140479087Y-102886716D01*
X140488154Y-102884655D01*
X140595298Y-102848941D01*
X140612079Y-102841449D01*
X140614623Y-102839242D01*
X140617736Y-102837953D01*
X140631942Y-102826293D01*
X140703371Y-102754864D01*
X140709271Y-102747675D01*
X140711142Y-102746053D01*
X140712916Y-102743234D01*
X140715031Y-102740658D01*
X140715979Y-102738368D01*
X140720933Y-102730499D01*
X140756647Y-102659070D01*
X140757158Y-102657733D01*
X140757562Y-102657189D01*
X140760309Y-102649497D01*
X140763215Y-102641905D01*
X140763262Y-102641231D01*
X140763745Y-102639882D01*
X140799459Y-102497024D01*
X140799927Y-102493854D01*
X140800457Y-102492577D01*
X140801134Y-102485693D01*
X140802148Y-102478843D01*
X140801944Y-102477473D01*
X140802258Y-102474287D01*
X140802258Y-102367144D01*
X140801944Y-102363957D01*
X140802148Y-102362588D01*
X140801134Y-102355737D01*
X140800457Y-102348854D01*
X140799927Y-102347576D01*
X140799459Y-102344407D01*
X140763745Y-102201549D01*
X140763262Y-102200199D01*
X140763215Y-102199525D01*
X140760306Y-102191925D01*
X140757562Y-102184242D01*
X140757158Y-102183697D01*
X140756647Y-102182361D01*
X140720933Y-102110933D01*
X140715979Y-102103063D01*
X140715031Y-102100774D01*
X140712916Y-102098197D01*
X140711142Y-102095379D01*
X140709271Y-102093756D01*
X140703371Y-102086568D01*
X140631942Y-102015139D01*
X140617736Y-102003479D01*
X140614623Y-102002189D01*
X140612079Y-101999983D01*
X140595298Y-101992491D01*
X140488154Y-101956777D01*
X140479087Y-101954715D01*
X140476798Y-101953767D01*
X140473479Y-101953440D01*
X140470233Y-101952702D01*
X140467764Y-101952877D01*
X140458508Y-101951966D01*
X140279937Y-101951966D01*
X140261647Y-101953767D01*
X140227852Y-101967766D01*
X140201987Y-101993631D01*
X140187988Y-102027426D01*
X140186187Y-102045716D01*
X140016544Y-102045716D01*
X140014743Y-102027426D01*
X140000744Y-101993631D01*
X139974879Y-101967766D01*
X139941084Y-101953767D01*
X139904504Y-101953767D01*
X139870709Y-101967766D01*
X139844844Y-101993631D01*
X139830845Y-102027426D01*
X139829044Y-102045716D01*
X139829044Y-102442693D01*
X139575621Y-101999203D01*
X139572883Y-101995346D01*
X139572173Y-101993631D01*
X139570425Y-101991883D01*
X139564983Y-101984216D01*
X139555122Y-101976580D01*
X139546308Y-101967766D01*
X139540785Y-101965478D01*
X139536061Y-101961820D01*
X139524036Y-101958540D01*
X139512513Y-101953767D01*
X139506535Y-101953767D01*
X139500771Y-101952195D01*
X139488405Y-101953767D01*
X139475933Y-101953767D01*
X139470410Y-101956054D01*
X139464484Y-101956808D01*
X139453657Y-101962994D01*
X139442138Y-101967766D01*
X139437914Y-101971989D01*
X139432723Y-101974956D01*
X139425087Y-101984816D01*
X139416273Y-101993631D01*
X139413985Y-101999153D01*
X139410327Y-102003878D01*
X139407047Y-102015902D01*
X139402274Y-102027426D01*
X139401352Y-102036782D01*
X139400702Y-102039168D01*
X139400936Y-102041011D01*
X139400473Y-102045716D01*
X139222098Y-102045716D01*
X139218527Y-102035003D01*
X139194560Y-102007368D01*
X139179006Y-101997577D01*
X139107578Y-101961863D01*
X139090414Y-101955295D01*
X139087054Y-101955056D01*
X139083942Y-101953767D01*
X139065652Y-101951966D01*
X138958509Y-101951966D01*
X138949252Y-101952877D01*
X138946784Y-101952702D01*
X138943537Y-101953440D01*
X138940219Y-101953767D01*
X138937929Y-101954715D01*
X138928863Y-101956777D01*
X138821720Y-101992491D01*
X138804938Y-101999983D01*
X138802393Y-102002189D01*
X138799281Y-102003479D01*
X138785075Y-102015139D01*
X138713646Y-102086568D01*
X138707745Y-102093756D01*
X138705875Y-102095379D01*
X138704100Y-102098197D01*
X138701986Y-102100774D01*
X138701037Y-102103063D01*
X138696084Y-102110933D01*
X138660370Y-102182361D01*
X138659858Y-102183697D01*
X138659455Y-102184242D01*
X138656710Y-102191925D01*
X138653802Y-102199525D01*
X138653754Y-102200199D01*
X138653272Y-102201549D01*
X138617558Y-102344406D01*
X138617089Y-102347576D01*
X138616560Y-102348854D01*
X138615882Y-102355734D01*
X138614869Y-102362587D01*
X138615072Y-102363956D01*
X138614759Y-102367144D01*
X138521009Y-102367144D01*
X138521009Y-101858216D01*
X140896008Y-101858216D01*
X140896008Y-102983216D01*
G37*
D11*
G36*
X174189559Y-80967153D02*
G01*
X171627653Y-80967153D01*
X171627653Y-79939082D01*
X172151463Y-79939082D01*
X172151463Y-80653368D01*
X172154345Y-80682632D01*
X172176743Y-80736704D01*
X172218127Y-80778088D01*
X172272199Y-80800486D01*
X172330727Y-80800486D01*
X172384799Y-80778088D01*
X172426183Y-80736704D01*
X172448581Y-80682632D01*
X172451463Y-80653368D01*
X172451463Y-80089082D01*
X173801463Y-80089082D01*
X173830727Y-80086200D01*
X173884799Y-80063802D01*
X173926183Y-80022418D01*
X173948581Y-79968346D01*
X173948581Y-79909818D01*
X173926183Y-79855746D01*
X173884799Y-79814362D01*
X173830727Y-79791964D01*
X173801463Y-79789082D01*
X172301463Y-79789082D01*
X172272199Y-79791964D01*
X172218127Y-79814362D01*
X172176743Y-79855746D01*
X172154345Y-79909818D01*
X172151463Y-79939082D01*
X171627653Y-79939082D01*
X171627653Y-78153526D01*
X171794320Y-78153526D01*
X171805798Y-78210915D01*
X171838365Y-78259545D01*
X171861115Y-78278176D01*
X173789687Y-79563890D01*
X173815635Y-79577724D01*
X173873050Y-79589082D01*
X173930439Y-79577604D01*
X173979069Y-79545038D01*
X174011535Y-79496339D01*
X174022892Y-79438925D01*
X174011414Y-79381535D01*
X173978848Y-79332905D01*
X173956097Y-79314275D01*
X172027525Y-78028560D01*
X172001577Y-78014726D01*
X171944162Y-78003368D01*
X171886773Y-78014846D01*
X171838143Y-78047413D01*
X171805678Y-78096111D01*
X171794320Y-78153526D01*
X171627653Y-78153526D01*
X171627653Y-76766960D01*
X172154345Y-76766960D01*
X172154345Y-76825488D01*
X172176743Y-76879560D01*
X172218127Y-76920944D01*
X172272199Y-76943342D01*
X172301463Y-76946224D01*
X172937177Y-76946224D01*
X172937177Y-77503367D01*
X172301463Y-77503367D01*
X172272199Y-77506249D01*
X172218127Y-77528647D01*
X172176743Y-77570031D01*
X172154345Y-77624103D01*
X172154345Y-77682631D01*
X172176743Y-77736703D01*
X172218127Y-77778087D01*
X172272199Y-77800485D01*
X172301463Y-77803367D01*
X173801463Y-77803367D01*
X173830727Y-77800485D01*
X173884799Y-77778087D01*
X173926183Y-77736703D01*
X173948581Y-77682631D01*
X173948581Y-77624103D01*
X173926183Y-77570031D01*
X173884799Y-77528647D01*
X173830727Y-77506249D01*
X173801463Y-77503367D01*
X173237177Y-77503367D01*
X173237177Y-76946224D01*
X173801463Y-76946224D01*
X173830727Y-76943342D01*
X173884799Y-76920944D01*
X173926183Y-76879560D01*
X173948581Y-76825488D01*
X173948581Y-76766960D01*
X173926183Y-76712888D01*
X173884799Y-76671504D01*
X173830727Y-76649106D01*
X173801463Y-76646224D01*
X172301463Y-76646224D01*
X172272199Y-76649106D01*
X172218127Y-76671504D01*
X172176743Y-76712888D01*
X172154345Y-76766960D01*
X171627653Y-76766960D01*
X171627653Y-76479557D01*
X174189559Y-76479557D01*
X174189559Y-80967153D01*
G37*
D10*
G36*
X144701196Y-75607302D02*
G01*
X144743504Y-75649611D01*
X144770122Y-75756080D01*
X144770122Y-75982997D01*
X144743504Y-76089466D01*
X144701195Y-76131775D01*
X144663169Y-76150789D01*
X144564576Y-76150789D01*
X144526549Y-76131775D01*
X144484239Y-76089466D01*
X144457622Y-75982996D01*
X144457622Y-75756081D01*
X144484240Y-75649611D01*
X144526550Y-75607301D01*
X144564575Y-75588289D01*
X144663170Y-75588289D01*
X144701196Y-75607302D01*
G37*
G36*
X146542444Y-75948075D02*
G01*
X146493944Y-75802575D01*
X146590944Y-75802575D01*
X146542444Y-75948075D01*
G37*
G36*
X146979208Y-76432039D02*
G01*
X142749603Y-76432039D01*
X142749603Y-76226249D01*
X142843353Y-76226249D01*
X142843353Y-76262829D01*
X142857352Y-76296624D01*
X142883217Y-76322489D01*
X142917012Y-76336488D01*
X142935302Y-76338289D01*
X143363873Y-76338289D01*
X143382163Y-76336488D01*
X143415958Y-76322489D01*
X143441823Y-76296624D01*
X143455822Y-76262829D01*
X143455822Y-76226249D01*
X143441823Y-76192454D01*
X143415958Y-76166589D01*
X143382163Y-76152590D01*
X143363873Y-76150789D01*
X143243337Y-76150789D01*
X143243337Y-75637396D01*
X143520123Y-75637396D01*
X143520123Y-76244539D01*
X143521924Y-76262829D01*
X143535923Y-76296624D01*
X143561788Y-76322489D01*
X143595583Y-76336488D01*
X143632163Y-76336488D01*
X143665958Y-76322489D01*
X143691823Y-76296624D01*
X143705822Y-76262829D01*
X143707623Y-76244539D01*
X143707623Y-75659528D01*
X143726637Y-75621500D01*
X143740834Y-75607302D01*
X143778861Y-75588289D01*
X143877456Y-75588289D01*
X143915482Y-75607302D01*
X143929680Y-75621500D01*
X143948694Y-75659528D01*
X143948694Y-76244539D01*
X143950495Y-76262829D01*
X143964494Y-76296624D01*
X143990359Y-76322489D01*
X144024154Y-76336488D01*
X144060734Y-76336488D01*
X144094529Y-76322489D01*
X144120394Y-76296624D01*
X144134393Y-76262829D01*
X144136194Y-76244539D01*
X144136194Y-75744539D01*
X144270122Y-75744539D01*
X144270122Y-75994539D01*
X144270435Y-75997726D01*
X144270232Y-75999096D01*
X144271245Y-76005948D01*
X144271923Y-76012829D01*
X144272452Y-76014106D01*
X144272921Y-76017277D01*
X144308636Y-76160134D01*
X144314820Y-76177441D01*
X144318968Y-76183040D01*
X144321636Y-76189480D01*
X144333295Y-76203687D01*
X144404723Y-76275116D01*
X144411912Y-76281015D01*
X144413535Y-76282887D01*
X144416356Y-76284663D01*
X144418930Y-76286775D01*
X144421215Y-76287721D01*
X144429089Y-76292678D01*
X144500518Y-76328392D01*
X144517683Y-76334960D01*
X144521041Y-76335198D01*
X144524154Y-76336488D01*
X144542444Y-76338289D01*
X144685301Y-76338289D01*
X144703591Y-76336488D01*
X144706703Y-76335198D01*
X144710062Y-76334960D01*
X144727227Y-76328392D01*
X144798656Y-76292678D01*
X144806529Y-76287721D01*
X144808815Y-76286775D01*
X144811388Y-76284663D01*
X144814210Y-76282887D01*
X144815832Y-76281015D01*
X144823022Y-76275116D01*
X144871888Y-76226249D01*
X145593352Y-76226249D01*
X145593352Y-76262829D01*
X145607351Y-76296624D01*
X145633216Y-76322489D01*
X145667011Y-76336488D01*
X145685301Y-76338289D01*
X146042444Y-76338289D01*
X146060734Y-76336488D01*
X146094529Y-76322489D01*
X146120394Y-76296624D01*
X146134393Y-76262829D01*
X146136194Y-76244539D01*
X146136194Y-75506264D01*
X146199430Y-75506264D01*
X146203505Y-75524185D01*
X146453505Y-76274185D01*
X146460997Y-76290967D01*
X146465387Y-76296028D01*
X146468382Y-76302018D01*
X146477262Y-76309720D01*
X146484965Y-76318601D01*
X146490953Y-76321595D01*
X146496016Y-76325986D01*
X146507173Y-76329705D01*
X146517682Y-76334959D01*
X146524361Y-76335433D01*
X146530719Y-76337553D01*
X146542446Y-76336719D01*
X146554169Y-76337553D01*
X146560523Y-76335434D01*
X146567206Y-76334960D01*
X146577722Y-76329701D01*
X146588872Y-76325985D01*
X146593931Y-76321596D01*
X146599923Y-76318601D01*
X146607626Y-76309719D01*
X146616506Y-76302018D01*
X146619500Y-76296029D01*
X146623891Y-76290967D01*
X146631383Y-76274185D01*
X146881383Y-75524186D01*
X146885458Y-75506265D01*
X146882864Y-75469777D01*
X146866506Y-75437060D01*
X146838872Y-75413093D01*
X146804169Y-75401525D01*
X146767682Y-75404119D01*
X146734965Y-75420477D01*
X146710997Y-75448111D01*
X146703505Y-75464893D01*
X146653444Y-75615075D01*
X146431444Y-75615075D01*
X146381383Y-75464893D01*
X146373891Y-75448111D01*
X146349923Y-75420477D01*
X146317206Y-75404118D01*
X146280719Y-75401525D01*
X146246016Y-75413092D01*
X146218382Y-75437060D01*
X146202023Y-75469777D01*
X146199430Y-75506264D01*
X146136194Y-75506264D01*
X146136194Y-75494539D01*
X146134393Y-75476249D01*
X146120394Y-75442454D01*
X146094529Y-75416589D01*
X146060734Y-75402590D01*
X146024154Y-75402590D01*
X145990359Y-75416589D01*
X145964494Y-75442454D01*
X145950495Y-75476249D01*
X145948694Y-75494539D01*
X145948694Y-75793646D01*
X145792444Y-75793646D01*
X145774154Y-75795447D01*
X145740359Y-75809446D01*
X145714494Y-75835311D01*
X145700495Y-75869106D01*
X145700495Y-75905686D01*
X145714494Y-75939481D01*
X145740359Y-75965346D01*
X145774154Y-75979345D01*
X145792444Y-75981146D01*
X145948694Y-75981146D01*
X145948694Y-76150789D01*
X145685301Y-76150789D01*
X145667011Y-76152590D01*
X145633216Y-76166589D01*
X145607351Y-76192454D01*
X145593352Y-76226249D01*
X144871888Y-76226249D01*
X144894450Y-76203687D01*
X144906109Y-76189480D01*
X144908775Y-76183042D01*
X144912926Y-76177441D01*
X144919109Y-76160134D01*
X144954823Y-76017276D01*
X144955291Y-76014106D01*
X144955821Y-76012829D01*
X144956498Y-76005945D01*
X144957512Y-75999095D01*
X144957308Y-75997725D01*
X144957622Y-75994539D01*
X144957622Y-75744539D01*
X144957308Y-75741352D01*
X144957512Y-75739983D01*
X144956498Y-75733132D01*
X144955821Y-75726249D01*
X144955291Y-75724971D01*
X144954823Y-75721802D01*
X144919109Y-75578944D01*
X144912926Y-75561637D01*
X144908774Y-75556034D01*
X144906108Y-75549597D01*
X144894449Y-75535390D01*
X144823021Y-75463963D01*
X144815832Y-75458062D01*
X144814210Y-75456192D01*
X144811392Y-75454418D01*
X144808815Y-75452303D01*
X144806523Y-75451353D01*
X144798656Y-75446402D01*
X144727228Y-75410687D01*
X144711900Y-75404821D01*
X144914781Y-75404821D01*
X144914781Y-75441401D01*
X144928780Y-75475196D01*
X144954645Y-75501061D01*
X144988440Y-75515060D01*
X145006730Y-75516861D01*
X145578159Y-75516861D01*
X145596449Y-75515060D01*
X145630244Y-75501061D01*
X145656109Y-75475196D01*
X145670108Y-75441401D01*
X145670108Y-75404821D01*
X145656109Y-75371026D01*
X145630244Y-75345161D01*
X145596449Y-75331162D01*
X145578159Y-75329361D01*
X145006730Y-75329361D01*
X144988440Y-75331162D01*
X144954645Y-75345161D01*
X144928780Y-75371026D01*
X144914781Y-75404821D01*
X144711900Y-75404821D01*
X144710063Y-75404118D01*
X144706703Y-75403879D01*
X144703591Y-75402590D01*
X144685301Y-75400789D01*
X144542444Y-75400789D01*
X144524154Y-75402590D01*
X144521041Y-75403879D01*
X144517681Y-75404118D01*
X144500517Y-75410687D01*
X144429088Y-75446402D01*
X144421215Y-75451357D01*
X144418930Y-75452304D01*
X144416356Y-75454416D01*
X144413535Y-75456192D01*
X144411912Y-75458063D01*
X144404723Y-75463963D01*
X144333296Y-75535391D01*
X144321636Y-75549597D01*
X144318967Y-75556039D01*
X144314820Y-75561637D01*
X144308636Y-75578944D01*
X144272921Y-75721801D01*
X144272452Y-75724971D01*
X144271923Y-75726249D01*
X144271245Y-75733129D01*
X144270232Y-75739982D01*
X144270435Y-75741351D01*
X144270122Y-75744539D01*
X144136194Y-75744539D01*
X144136194Y-75637396D01*
X144134393Y-75619106D01*
X144133103Y-75615993D01*
X144132865Y-75612634D01*
X144126297Y-75595470D01*
X144090583Y-75524042D01*
X144085629Y-75516172D01*
X144084681Y-75513883D01*
X144082566Y-75511306D01*
X144080792Y-75508488D01*
X144078921Y-75506865D01*
X144073021Y-75499677D01*
X144037307Y-75463963D01*
X144030118Y-75458062D01*
X144028496Y-75456192D01*
X144025678Y-75454418D01*
X144023101Y-75452303D01*
X144020809Y-75451353D01*
X144012942Y-75446402D01*
X143941514Y-75410687D01*
X143924349Y-75404118D01*
X143920989Y-75403879D01*
X143917877Y-75402590D01*
X143899587Y-75400789D01*
X143756730Y-75400789D01*
X143738440Y-75402590D01*
X143735327Y-75403879D01*
X143731967Y-75404118D01*
X143714803Y-75410687D01*
X143643374Y-75446402D01*
X143635506Y-75451354D01*
X143633216Y-75452303D01*
X143630638Y-75454418D01*
X143627821Y-75456192D01*
X143626198Y-75458062D01*
X143619010Y-75463963D01*
X143583296Y-75499677D01*
X143577395Y-75506865D01*
X143575525Y-75508488D01*
X143573750Y-75511306D01*
X143571636Y-75513883D01*
X143570687Y-75516172D01*
X143565734Y-75524042D01*
X143530020Y-75595470D01*
X143523452Y-75612634D01*
X143523213Y-75615993D01*
X143521924Y-75619106D01*
X143520123Y-75637396D01*
X143243337Y-75637396D01*
X143243337Y-75494539D01*
X143241536Y-75476249D01*
X143227537Y-75442454D01*
X143201672Y-75416589D01*
X143167877Y-75402590D01*
X143131297Y-75402590D01*
X143097502Y-75416589D01*
X143071637Y-75442454D01*
X143057638Y-75476249D01*
X143055837Y-75494539D01*
X143055837Y-76150789D01*
X142935302Y-76150789D01*
X142917012Y-76152590D01*
X142883217Y-76166589D01*
X142857352Y-76192454D01*
X142843353Y-76226249D01*
X142749603Y-76226249D01*
X142749603Y-75235611D01*
X146979208Y-75235611D01*
X146979208Y-76432039D01*
G37*
D12*
X166312941Y-76695532D02*
X165979608Y-76219341D01*
X165741513Y-76695532D02*
X165741513Y-75695532D01*
X165741513Y-75695532D02*
X166122465Y-75695532D01*
X166122465Y-75695532D02*
X166217703Y-75743151D01*
X166217703Y-75743151D02*
X166265322Y-75790770D01*
X166265322Y-75790770D02*
X166312941Y-75886008D01*
X166312941Y-75886008D02*
X166312941Y-76028865D01*
X166312941Y-76028865D02*
X166265322Y-76124103D01*
X166265322Y-76124103D02*
X166217703Y-76171722D01*
X166217703Y-76171722D02*
X166122465Y-76219341D01*
X166122465Y-76219341D02*
X165741513Y-76219341D01*
X167265322Y-76695532D02*
X166693894Y-76695532D01*
X166979608Y-76695532D02*
X166979608Y-75695532D01*
X166979608Y-75695532D02*
X166884370Y-75838389D01*
X166884370Y-75838389D02*
X166789132Y-75933627D01*
X166789132Y-75933627D02*
X166693894Y-75981246D01*
X169750909Y-97878276D02*
X169750909Y-98592561D01*
X169750909Y-98592561D02*
X169703290Y-98735418D01*
X169703290Y-98735418D02*
X169608052Y-98830657D01*
X169608052Y-98830657D02*
X169465195Y-98878276D01*
X169465195Y-98878276D02*
X169369957Y-98878276D01*
X170703290Y-97878276D02*
X170227100Y-97878276D01*
X170227100Y-97878276D02*
X170179481Y-98354466D01*
X170179481Y-98354466D02*
X170227100Y-98306847D01*
X170227100Y-98306847D02*
X170322338Y-98259228D01*
X170322338Y-98259228D02*
X170560433Y-98259228D01*
X170560433Y-98259228D02*
X170655671Y-98306847D01*
X170655671Y-98306847D02*
X170703290Y-98354466D01*
X170703290Y-98354466D02*
X170750909Y-98449704D01*
X170750909Y-98449704D02*
X170750909Y-98687799D01*
X170750909Y-98687799D02*
X170703290Y-98783037D01*
X170703290Y-98783037D02*
X170655671Y-98830657D01*
X170655671Y-98830657D02*
X170560433Y-98878276D01*
X170560433Y-98878276D02*
X170322338Y-98878276D01*
X170322338Y-98878276D02*
X170227100Y-98830657D01*
X170227100Y-98830657D02*
X170179481Y-98783037D01*
X169322719Y-71835903D02*
X169322719Y-72550188D01*
X169322719Y-72550188D02*
X169275100Y-72693045D01*
X169275100Y-72693045D02*
X169179862Y-72788284D01*
X169179862Y-72788284D02*
X169037005Y-72835903D01*
X169037005Y-72835903D02*
X168941767Y-72835903D01*
X169798910Y-72835903D02*
X169798910Y-71835903D01*
X169798910Y-71835903D02*
X170179862Y-71835903D01*
X170179862Y-71835903D02*
X170275100Y-71883522D01*
X170275100Y-71883522D02*
X170322719Y-71931141D01*
X170322719Y-71931141D02*
X170370338Y-72026379D01*
X170370338Y-72026379D02*
X170370338Y-72169236D01*
X170370338Y-72169236D02*
X170322719Y-72264474D01*
X170322719Y-72264474D02*
X170275100Y-72312093D01*
X170275100Y-72312093D02*
X170179862Y-72359712D01*
X170179862Y-72359712D02*
X169798910Y-72359712D01*
X170751291Y-71931141D02*
X170798910Y-71883522D01*
X170798910Y-71883522D02*
X170894148Y-71835903D01*
X170894148Y-71835903D02*
X171132243Y-71835903D01*
X171132243Y-71835903D02*
X171227481Y-71883522D01*
X171227481Y-71883522D02*
X171275100Y-71931141D01*
X171275100Y-71931141D02*
X171322719Y-72026379D01*
X171322719Y-72026379D02*
X171322719Y-72121617D01*
X171322719Y-72121617D02*
X171275100Y-72264474D01*
X171275100Y-72264474D02*
X170703672Y-72835903D01*
X170703672Y-72835903D02*
X171322719Y-72835903D01*
X166494531Y-74143383D02*
X166399293Y-74095764D01*
X166399293Y-74095764D02*
X166304055Y-74000526D01*
X166304055Y-74000526D02*
X166161198Y-73857668D01*
X166161198Y-73857668D02*
X166065960Y-73810049D01*
X166065960Y-73810049D02*
X165970722Y-73810049D01*
X166018341Y-74048145D02*
X165923103Y-74000526D01*
X165923103Y-74000526D02*
X165827865Y-73905287D01*
X165827865Y-73905287D02*
X165780246Y-73714811D01*
X165780246Y-73714811D02*
X165780246Y-73381478D01*
X165780246Y-73381478D02*
X165827865Y-73191002D01*
X165827865Y-73191002D02*
X165923103Y-73095764D01*
X165923103Y-73095764D02*
X166018341Y-73048145D01*
X166018341Y-73048145D02*
X166208817Y-73048145D01*
X166208817Y-73048145D02*
X166304055Y-73095764D01*
X166304055Y-73095764D02*
X166399293Y-73191002D01*
X166399293Y-73191002D02*
X166446912Y-73381478D01*
X166446912Y-73381478D02*
X166446912Y-73714811D01*
X166446912Y-73714811D02*
X166399293Y-73905287D01*
X166399293Y-73905287D02*
X166304055Y-74000526D01*
X166304055Y-74000526D02*
X166208817Y-74048145D01*
X166208817Y-74048145D02*
X166018341Y-74048145D01*
X167399293Y-74048145D02*
X166827865Y-74048145D01*
X167113579Y-74048145D02*
X167113579Y-73048145D01*
X167113579Y-73048145D02*
X167018341Y-73191002D01*
X167018341Y-73191002D02*
X166923103Y-73286240D01*
X166923103Y-73286240D02*
X166827865Y-73333859D01*
X133824210Y-78068793D02*
X133824210Y-78783078D01*
X133824210Y-78783078D02*
X133776591Y-78925935D01*
X133776591Y-78925935D02*
X133681353Y-79021174D01*
X133681353Y-79021174D02*
X133538496Y-79068793D01*
X133538496Y-79068793D02*
X133443258Y-79068793D01*
X134728972Y-78402126D02*
X134728972Y-79068793D01*
X134490877Y-78021174D02*
X134252782Y-78735459D01*
X134252782Y-78735459D02*
X134871829Y-78735459D01*
X175544553Y-81808244D02*
X175544553Y-82522529D01*
X175544553Y-82522529D02*
X175496934Y-82665386D01*
X175496934Y-82665386D02*
X175401696Y-82760625D01*
X175401696Y-82760625D02*
X175258839Y-82808244D01*
X175258839Y-82808244D02*
X175163601Y-82808244D01*
X175925506Y-81808244D02*
X176544553Y-81808244D01*
X176544553Y-81808244D02*
X176211220Y-82189196D01*
X176211220Y-82189196D02*
X176354077Y-82189196D01*
X176354077Y-82189196D02*
X176449315Y-82236815D01*
X176449315Y-82236815D02*
X176496934Y-82284434D01*
X176496934Y-82284434D02*
X176544553Y-82379672D01*
X176544553Y-82379672D02*
X176544553Y-82617767D01*
X176544553Y-82617767D02*
X176496934Y-82713005D01*
X176496934Y-82713005D02*
X176449315Y-82760625D01*
X176449315Y-82760625D02*
X176354077Y-82808244D01*
X176354077Y-82808244D02*
X176068363Y-82808244D01*
X176068363Y-82808244D02*
X175973125Y-82760625D01*
X175973125Y-82760625D02*
X175925506Y-82713005D01*
X133821892Y-99920682D02*
X133821892Y-100634967D01*
X133821892Y-100634967D02*
X133774273Y-100777824D01*
X133774273Y-100777824D02*
X133679035Y-100873063D01*
X133679035Y-100873063D02*
X133536178Y-100920682D01*
X133536178Y-100920682D02*
X133440940Y-100920682D01*
X134726654Y-99920682D02*
X134536178Y-99920682D01*
X134536178Y-99920682D02*
X134440940Y-99968301D01*
X134440940Y-99968301D02*
X134393321Y-100015920D01*
X134393321Y-100015920D02*
X134298083Y-100158777D01*
X134298083Y-100158777D02*
X134250464Y-100349253D01*
X134250464Y-100349253D02*
X134250464Y-100730205D01*
X134250464Y-100730205D02*
X134298083Y-100825443D01*
X134298083Y-100825443D02*
X134345702Y-100873063D01*
X134345702Y-100873063D02*
X134440940Y-100920682D01*
X134440940Y-100920682D02*
X134631416Y-100920682D01*
X134631416Y-100920682D02*
X134726654Y-100873063D01*
X134726654Y-100873063D02*
X134774273Y-100825443D01*
X134774273Y-100825443D02*
X134821892Y-100730205D01*
X134821892Y-100730205D02*
X134821892Y-100492110D01*
X134821892Y-100492110D02*
X134774273Y-100396872D01*
X134774273Y-100396872D02*
X134726654Y-100349253D01*
X134726654Y-100349253D02*
X134631416Y-100301634D01*
X134631416Y-100301634D02*
X134440940Y-100301634D01*
X134440940Y-100301634D02*
X134345702Y-100349253D01*
X134345702Y-100349253D02*
X134298083Y-100396872D01*
X134298083Y-100396872D02*
X134250464Y-100492110D01*
D13*
%TO.C,R1*%
X163554864Y-75697275D02*
X164064312Y-75697275D01*
X163554864Y-76742275D02*
X164064312Y-76742275D01*
%TO.C,JP2*%
X168839246Y-73188430D02*
X170169246Y-73188430D01*
X168839246Y-74518430D02*
X168839246Y-73188430D01*
X168839246Y-75788430D02*
X168839246Y-80928430D01*
X168839246Y-75788430D02*
X171499246Y-75788430D01*
X168839246Y-80928430D02*
X171499246Y-80928430D01*
X171499246Y-75788430D02*
X171499246Y-80928430D01*
%TO.C,Q1*%
X162303021Y-73565397D02*
X162303021Y-72915397D01*
X162303021Y-73565397D02*
X162303021Y-74215397D01*
X165423021Y-73565397D02*
X165423021Y-72915397D01*
X165423021Y-73565397D02*
X165423021Y-74215397D01*
X162353021Y-74727897D02*
X162023021Y-74967897D01*
X162023021Y-74487897D01*
X162353021Y-74727897D01*
G36*
X162353021Y-74727897D02*
G01*
X162023021Y-74967897D01*
X162023021Y-74487897D01*
X162353021Y-74727897D01*
G37*
%TO.C,J3*%
X171877887Y-89103425D02*
X172377887Y-89353425D01*
X171877887Y-89603425D02*
X171877887Y-89103425D01*
X172377887Y-89353425D02*
X171877887Y-89603425D01*
%TD*%
M02*
