%TF.GenerationSoftware,KiCad,Pcbnew,8.0.4*%
%TF.CreationDate,2024-07-23T12:10:32-05:00*%
%TF.ProjectId,sa8x8-breakout,73613878-382d-4627-9265-616b6f75742e,rev?*%
%TF.SameCoordinates,Original*%
%TF.FileFunction,Soldermask,Top*%
%TF.FilePolarity,Negative*%
%FSLAX46Y46*%
G04 Gerber Fmt 4.6, Leading zero omitted, Abs format (unit mm)*
G04 Created by KiCad (PCBNEW 8.0.4) date 2024-07-23 12:10:32*
%MOMM*%
%LPD*%
G01*
G04 APERTURE LIST*
G04 Aperture macros list*
%AMRoundRect*
0 Rectangle with rounded corners*
0 $1 Rounding radius*
0 $2 $3 $4 $5 $6 $7 $8 $9 X,Y pos of 4 corners*
0 Add a 4 corners polygon primitive as box body*
4,1,4,$2,$3,$4,$5,$6,$7,$8,$9,$2,$3,0*
0 Add four circle primitives for the rounded corners*
1,1,$1+$1,$2,$3*
1,1,$1+$1,$4,$5*
1,1,$1+$1,$6,$7*
1,1,$1+$1,$8,$9*
0 Add four rect primitives between the rounded corners*
20,1,$1+$1,$2,$3,$4,$5,0*
20,1,$1+$1,$4,$5,$6,$7,0*
20,1,$1+$1,$6,$7,$8,$9,0*
20,1,$1+$1,$8,$9,$2,$3,0*%
G04 Aperture macros list end*
%ADD10C,0.700000*%
%ADD11C,4.400000*%
%ADD12RoundRect,0.237500X-0.250000X-0.237500X0.250000X-0.237500X0.250000X0.237500X-0.250000X0.237500X0*%
%ADD13O,2.000000X0.950000*%
%ADD14R,1.300000X0.900000*%
%ADD15R,1.700000X1.700000*%
%ADD16O,1.700000X1.700000*%
%ADD17RoundRect,0.150000X0.150000X-0.587500X0.150000X0.587500X-0.150000X0.587500X-0.150000X-0.587500X0*%
%ADD18O,0.950000X2.000000*%
%ADD19R,0.900000X1.300000*%
%ADD20R,5.080000X2.290000*%
%ADD21R,5.080000X2.420000*%
G04 APERTURE END LIST*
D10*
%TO.C,REF3*%
X130637594Y-103879080D03*
X131120868Y-102712354D03*
X131120868Y-105045806D03*
X132287594Y-102229080D03*
D11*
X132287594Y-103879080D03*
D10*
X132287594Y-105529080D03*
X133454320Y-102712354D03*
X133454320Y-105045806D03*
X133937594Y-103879080D03*
%TD*%
D12*
%TO.C,R1*%
X162897088Y-76219775D03*
X164722088Y-76219775D03*
%TD*%
D13*
%TO.C,J5*%
X168500534Y-96401419D03*
X168500534Y-91801419D03*
X168500534Y-87201419D03*
X168500534Y-82601419D03*
D14*
X170350534Y-96401419D03*
X170350534Y-91801419D03*
X170350534Y-87201419D03*
X170350534Y-82601419D03*
%TD*%
D15*
%TO.C,JP2*%
X170169246Y-74518430D03*
D16*
X170169246Y-77058430D03*
X170169246Y-79598430D03*
%TD*%
D17*
%TO.C,Q1*%
X162913021Y-74502897D03*
X164813021Y-74502897D03*
X163863021Y-72627897D03*
%TD*%
D10*
%TO.C,REF2*%
X174606986Y-73972015D03*
X175090260Y-72805289D03*
X175090260Y-75138741D03*
X176256986Y-72322015D03*
D11*
X176256986Y-73972015D03*
D10*
X176256986Y-75622015D03*
X177423712Y-72805289D03*
X177423712Y-75138741D03*
X177906986Y-73972015D03*
%TD*%
D18*
%TO.C,J4*%
X163803844Y-79743255D03*
X159353844Y-79743255D03*
X154903844Y-79743255D03*
X150453844Y-79743255D03*
X146003844Y-79743255D03*
X141553844Y-79743255D03*
X137103844Y-79743255D03*
D19*
X163803844Y-77893255D03*
X159353844Y-77893255D03*
X154903844Y-77893255D03*
X150453844Y-77893255D03*
X146003844Y-77893255D03*
X141553844Y-77893255D03*
X137103844Y-77893255D03*
%TD*%
D20*
%TO.C,J3*%
X176097887Y-89353425D03*
D21*
X176097887Y-93733425D03*
X176097887Y-84973425D03*
%TD*%
D10*
%TO.C,REF1*%
X130615465Y-73869715D03*
X131098739Y-72702989D03*
X131098739Y-75036441D03*
X132265465Y-72219715D03*
D11*
X132265465Y-73869715D03*
D10*
X132265465Y-75519715D03*
X133432191Y-72702989D03*
X133432191Y-75036441D03*
X133915465Y-73869715D03*
%TD*%
D18*
%TO.C,J6*%
X137101526Y-99132648D03*
X141551526Y-99132648D03*
X146001526Y-99132648D03*
X150451526Y-99132648D03*
X154901526Y-99132648D03*
X159351526Y-99132648D03*
X163801526Y-99132648D03*
D19*
X137101526Y-100982648D03*
X141551526Y-100982648D03*
X146001526Y-100982648D03*
X150451526Y-100982648D03*
X154901526Y-100982648D03*
X159351526Y-100982648D03*
X163801526Y-100982648D03*
%TD*%
D10*
%TO.C,REF4*%
X174500000Y-103728194D03*
X174983274Y-102561468D03*
X174983274Y-104894920D03*
X176150000Y-102078194D03*
D11*
X176150000Y-103728194D03*
D10*
X176150000Y-105378194D03*
X177316726Y-102561468D03*
X177316726Y-104894920D03*
X177800000Y-103728194D03*
%TD*%
D15*
%TO.C,J1*%
X137160000Y-73660000D03*
D16*
X139700000Y-73660000D03*
X142240000Y-73660000D03*
X144780000Y-73660000D03*
X147320000Y-73660000D03*
X149860000Y-73660000D03*
X152400000Y-73660000D03*
X154940000Y-73660000D03*
X157480000Y-73660000D03*
X160020000Y-73660000D03*
%TD*%
D15*
%TO.C,J2*%
X137160000Y-104140000D03*
D16*
X139700000Y-104140000D03*
X142240000Y-104140000D03*
X144780000Y-104140000D03*
X147320000Y-104140000D03*
X149860000Y-104140000D03*
X152400000Y-104140000D03*
X154940000Y-104140000D03*
X157480000Y-104140000D03*
X160020000Y-104140000D03*
%TD*%
M02*
