%TF.GenerationSoftware,KiCad,Pcbnew,8.0.4*%
%TF.CreationDate,2024-07-23T12:10:31-05:00*%
%TF.ProjectId,sa8x8-breakout,73613878-382d-4627-9265-616b6f75742e,rev?*%
%TF.SameCoordinates,Original*%
%TF.FileFunction,Copper,L2,Bot*%
%TF.FilePolarity,Positive*%
%FSLAX46Y46*%
G04 Gerber Fmt 4.6, Leading zero omitted, Abs format (unit mm)*
G04 Created by KiCad (PCBNEW 8.0.4) date 2024-07-23 12:10:31*
%MOMM*%
%LPD*%
G01*
G04 APERTURE LIST*
%TA.AperFunction,ComponentPad*%
%ADD10C,0.700000*%
%TD*%
%TA.AperFunction,ComponentPad*%
%ADD11C,4.400000*%
%TD*%
%TA.AperFunction,ComponentPad*%
%ADD12O,2.000000X0.950000*%
%TD*%
%TA.AperFunction,ComponentPad*%
%ADD13R,1.300000X0.900000*%
%TD*%
%TA.AperFunction,ComponentPad*%
%ADD14R,1.700000X1.700000*%
%TD*%
%TA.AperFunction,ComponentPad*%
%ADD15O,1.700000X1.700000*%
%TD*%
%TA.AperFunction,ComponentPad*%
%ADD16O,0.950000X2.000000*%
%TD*%
%TA.AperFunction,ComponentPad*%
%ADD17R,0.900000X1.300000*%
%TD*%
%TA.AperFunction,SMDPad,CuDef*%
%ADD18R,5.080000X2.420000*%
%TD*%
%TA.AperFunction,SMDPad,CuDef*%
%ADD19R,0.950000X0.460000*%
%TD*%
%TA.AperFunction,ComponentPad*%
%ADD20C,0.970000*%
%TD*%
G04 APERTURE END LIST*
D10*
%TO.P,REF3,1,Pin_1*%
%TO.N,GND*%
X130637594Y-103879080D03*
X131120868Y-102712354D03*
X131120868Y-105045806D03*
X132287594Y-102229080D03*
D11*
X132287594Y-103879080D03*
D10*
X132287594Y-105529080D03*
X133454320Y-102712354D03*
X133454320Y-105045806D03*
X133937594Y-103879080D03*
%TD*%
D12*
%TO.P,J5,*%
%TO.N,*%
X168500534Y-96401419D03*
X168500534Y-91801419D03*
X168500534Y-87201419D03*
X168500534Y-82601419D03*
D13*
%TO.P,J5,1,Pin_1*%
%TO.N,/NC11*%
X170350534Y-96401419D03*
%TO.P,J5,2,Pin_2*%
%TO.N,GND*%
X170350534Y-91801419D03*
%TO.P,J5,3,Pin_3*%
X170350534Y-87201419D03*
%TO.P,J5,4,Pin_4*%
%TO.N,VDD*%
X170350534Y-82601419D03*
%TD*%
D14*
%TO.P,JP2,1,A*%
%TO.N,Net-(JP2-A)*%
X170169246Y-74518430D03*
D15*
%TO.P,JP2,2,C*%
%TO.N,/H{slash}L*%
X170169246Y-77058430D03*
%TO.P,JP2,3,B*%
%TO.N,GND*%
X170169246Y-79598430D03*
%TD*%
D10*
%TO.P,REF2,1,Pin_1*%
%TO.N,GND*%
X174606986Y-73972015D03*
X175090260Y-72805289D03*
X175090260Y-75138741D03*
X176256986Y-72322015D03*
D11*
X176256986Y-73972015D03*
D10*
X176256986Y-75622015D03*
X177423712Y-72805289D03*
X177423712Y-75138741D03*
X177906986Y-73972015D03*
%TD*%
D16*
%TO.P,J4,*%
%TO.N,*%
X163803844Y-79743255D03*
X159353844Y-79743255D03*
X154903844Y-79743255D03*
X150453844Y-79743255D03*
X146003844Y-79743255D03*
X141553844Y-79743255D03*
X137103844Y-79743255D03*
D17*
%TO.P,J4,1,Pin_1*%
%TO.N,/H{slash}L*%
X163803844Y-77893255D03*
%TO.P,J4,2,Pin_2*%
%TO.N,/~{PD}*%
X159353844Y-77893255D03*
%TO.P,J4,3,Pin_3*%
%TO.N,/~{PTT}*%
X154903844Y-77893255D03*
%TO.P,J4,4,Pin_4*%
%TO.N,/NC04*%
X150453844Y-77893255D03*
%TO.P,J4,5,Pin_5*%
%TO.N,/AF_OUT*%
X146003844Y-77893255D03*
%TO.P,J4,6,Pin_6*%
%TO.N,/NC02*%
X141553844Y-77893255D03*
%TO.P,J4,7,Pin_7*%
%TO.N,/~{Audio_ON}*%
X137103844Y-77893255D03*
%TD*%
D18*
%TO.P,J3,2,Ext*%
%TO.N,GND*%
X176097887Y-93733425D03*
X176097887Y-84973425D03*
D19*
X173107887Y-93733425D03*
X173107887Y-84973425D03*
D20*
X172657887Y-93733425D03*
X172657887Y-84973425D03*
%TD*%
D10*
%TO.P,REF1,1,Pin_1*%
%TO.N,GND*%
X130615465Y-73869715D03*
X131098739Y-72702989D03*
X131098739Y-75036441D03*
X132265465Y-72219715D03*
D11*
X132265465Y-73869715D03*
D10*
X132265465Y-75519715D03*
X133432191Y-72702989D03*
X133432191Y-75036441D03*
X133915465Y-73869715D03*
%TD*%
D16*
%TO.P,J6,*%
%TO.N,*%
X137101526Y-99132648D03*
X141551526Y-99132648D03*
X146001526Y-99132648D03*
X150451526Y-99132648D03*
X154901526Y-99132648D03*
X159351526Y-99132648D03*
X163801526Y-99132648D03*
D17*
%TO.P,J6,1,Pin_1*%
%TO.N,/MIC_IN*%
X137101526Y-100982648D03*
%TO.P,J6,2,Pin_2*%
%TO.N,/TXD*%
X141551526Y-100982648D03*
%TO.P,J6,3,Pin_3*%
%TO.N,/RXD*%
X146001526Y-100982648D03*
%TO.P,J6,4,Pin_4*%
%TO.N,/NC15*%
X150451526Y-100982648D03*
%TO.P,J6,5,Pin_5*%
%TO.N,/NC14*%
X154901526Y-100982648D03*
%TO.P,J6,6,Pin_6*%
%TO.N,/NC13*%
X159351526Y-100982648D03*
%TO.P,J6,7,Pin_7*%
%TO.N,/ANT*%
X163801526Y-100982648D03*
%TD*%
D10*
%TO.P,REF4,1,Pin_1*%
%TO.N,GND*%
X174500000Y-103728194D03*
X174983274Y-102561468D03*
X174983274Y-104894920D03*
X176150000Y-102078194D03*
D11*
X176150000Y-103728194D03*
D10*
X176150000Y-105378194D03*
X177316726Y-102561468D03*
X177316726Y-104894920D03*
X177800000Y-103728194D03*
%TD*%
D14*
%TO.P,J1,1,Pin_1*%
%TO.N,GND*%
X137160000Y-73660000D03*
D15*
%TO.P,J1,2,Pin_2*%
%TO.N,unconnected-(J1-Pin_2-Pad2)*%
X139700000Y-73660000D03*
%TO.P,J1,3,Pin_3*%
%TO.N,/~{Audio_ON}*%
X142240000Y-73660000D03*
%TO.P,J1,4,Pin_4*%
%TO.N,/AF_OUT*%
X144780000Y-73660000D03*
%TO.P,J1,5,Pin_5*%
%TO.N,unconnected-(J1-Pin_5-Pad5)*%
X147320000Y-73660000D03*
%TO.P,J1,6,Pin_6*%
%TO.N,VDD*%
X149860000Y-73660000D03*
%TO.P,J1,7,Pin_7*%
%TO.N,unconnected-(J1-Pin_7-Pad7)*%
X152400000Y-73660000D03*
%TO.P,J1,8,Pin_8*%
%TO.N,/~{PTT}*%
X154940000Y-73660000D03*
%TO.P,J1,9,Pin_9*%
%TO.N,/~{PD}*%
X157480000Y-73660000D03*
%TO.P,J1,10,Pin_10*%
%TO.N,/OPC*%
X160020000Y-73660000D03*
%TD*%
D14*
%TO.P,J2,1,Pin_1*%
%TO.N,GND*%
X137160000Y-104140000D03*
D15*
%TO.P,J2,2,Pin_2*%
X139700000Y-104140000D03*
%TO.P,J2,3,Pin_3*%
%TO.N,unconnected-(J2-Pin_3-Pad3)*%
X142240000Y-104140000D03*
%TO.P,J2,4,Pin_4*%
%TO.N,/MIC_IN*%
X144780000Y-104140000D03*
%TO.P,J2,5,Pin_5*%
%TO.N,unconnected-(J2-Pin_5-Pad5)*%
X147320000Y-104140000D03*
%TO.P,J2,6,Pin_6*%
%TO.N,/TXD*%
X149860000Y-104140000D03*
%TO.P,J2,7,Pin_7*%
%TO.N,/RXD*%
X152400000Y-104140000D03*
%TO.P,J2,8,Pin_8*%
%TO.N,unconnected-(J2-Pin_8-Pad8)*%
X154940000Y-104140000D03*
%TO.P,J2,9,Pin_9*%
%TO.N,unconnected-(J2-Pin_9-Pad9)*%
X157480000Y-104140000D03*
%TO.P,J2,10,Pin_10*%
%TO.N,unconnected-(J2-Pin_10-Pad10)*%
X160020000Y-104140000D03*
%TD*%
%TA.AperFunction,Conductor*%
%TO.N,GND*%
G36*
X139234075Y-103947007D02*
G01*
X139200000Y-104074174D01*
X139200000Y-104205826D01*
X139234075Y-104332993D01*
X139266988Y-104390000D01*
X137593012Y-104390000D01*
X137625925Y-104332993D01*
X137660000Y-104205826D01*
X137660000Y-104074174D01*
X137625925Y-103947007D01*
X137593012Y-103890000D01*
X139266988Y-103890000D01*
X139234075Y-103947007D01*
G37*
%TD.AperFunction*%
%TA.AperFunction,Conductor*%
G36*
X174588164Y-71640185D02*
G01*
X174633919Y-71692989D01*
X174643863Y-71762147D01*
X174614838Y-71825703D01*
X174597598Y-71842111D01*
X174532016Y-71893490D01*
X174532015Y-71893491D01*
X175674248Y-73035724D01*
X175540384Y-73132982D01*
X175417953Y-73255413D01*
X175320695Y-73389277D01*
X174178462Y-72247044D01*
X174178460Y-72247045D01*
X174030872Y-72435431D01*
X174030867Y-72435437D01*
X173861884Y-72714971D01*
X173861883Y-72714973D01*
X173727825Y-73012839D01*
X173727821Y-73012850D01*
X173630653Y-73324673D01*
X173571772Y-73645976D01*
X173552051Y-73972015D01*
X173571772Y-74298053D01*
X173630653Y-74619356D01*
X173727821Y-74931179D01*
X173727825Y-74931190D01*
X173861883Y-75229056D01*
X173861884Y-75229058D01*
X174030867Y-75508591D01*
X174178462Y-75696983D01*
X175320694Y-74554751D01*
X175417953Y-74688617D01*
X175540384Y-74811048D01*
X175674248Y-74908305D01*
X174532016Y-76050537D01*
X174532016Y-76050538D01*
X174720409Y-76198133D01*
X174999942Y-76367116D01*
X174999944Y-76367117D01*
X175297810Y-76501175D01*
X175297821Y-76501179D01*
X175609644Y-76598347D01*
X175930947Y-76657228D01*
X176256986Y-76676949D01*
X176583024Y-76657228D01*
X176904327Y-76598347D01*
X177216150Y-76501179D01*
X177216161Y-76501175D01*
X177514027Y-76367117D01*
X177514029Y-76367116D01*
X177793572Y-76198127D01*
X177981954Y-76050538D01*
X177981954Y-76050537D01*
X176839723Y-74908305D01*
X176973588Y-74811048D01*
X177096019Y-74688617D01*
X177193276Y-74554752D01*
X178335508Y-75696983D01*
X178335509Y-75696983D01*
X178370952Y-75651744D01*
X178427792Y-75611111D01*
X178497576Y-75607659D01*
X178558149Y-75642483D01*
X178590279Y-75704527D01*
X178592563Y-75728217D01*
X178592563Y-83139425D01*
X178572878Y-83206464D01*
X178520074Y-83252219D01*
X178468563Y-83263425D01*
X176347887Y-83263425D01*
X176347887Y-86683425D01*
X178468563Y-86683425D01*
X178535602Y-86703110D01*
X178581357Y-86755914D01*
X178592563Y-86807425D01*
X178592563Y-91899425D01*
X178572878Y-91966464D01*
X178520074Y-92012219D01*
X178468563Y-92023425D01*
X176347887Y-92023425D01*
X176347887Y-95443425D01*
X178468563Y-95443425D01*
X178535602Y-95463110D01*
X178581357Y-95515914D01*
X178592563Y-95567425D01*
X178592563Y-102108549D01*
X178572878Y-102175588D01*
X178520074Y-102221343D01*
X178450916Y-102231287D01*
X178387360Y-102202262D01*
X178370952Y-102185022D01*
X178228522Y-102003224D01*
X177086290Y-103145455D01*
X176989033Y-103011592D01*
X176866602Y-102889161D01*
X176732736Y-102791903D01*
X177874968Y-101649670D01*
X177686576Y-101502075D01*
X177407043Y-101333092D01*
X177407041Y-101333091D01*
X177109175Y-101199033D01*
X177109164Y-101199029D01*
X176797341Y-101101861D01*
X176476038Y-101042980D01*
X176150000Y-101023259D01*
X175823961Y-101042980D01*
X175502658Y-101101861D01*
X175190835Y-101199029D01*
X175190824Y-101199033D01*
X174892958Y-101333091D01*
X174892956Y-101333092D01*
X174613422Y-101502075D01*
X174613416Y-101502080D01*
X174425030Y-101649668D01*
X174425029Y-101649670D01*
X175567262Y-102791903D01*
X175433398Y-102889161D01*
X175310967Y-103011592D01*
X175213709Y-103145456D01*
X174071476Y-102003223D01*
X174071474Y-102003224D01*
X173923886Y-102191610D01*
X173923881Y-102191616D01*
X173754898Y-102471150D01*
X173754897Y-102471152D01*
X173620839Y-102769018D01*
X173620835Y-102769029D01*
X173523667Y-103080852D01*
X173464786Y-103402155D01*
X173445065Y-103728194D01*
X173464786Y-104054232D01*
X173523667Y-104375535D01*
X173620835Y-104687358D01*
X173620839Y-104687369D01*
X173754897Y-104985235D01*
X173754898Y-104985237D01*
X173923881Y-105264770D01*
X174071476Y-105453162D01*
X175213708Y-104310930D01*
X175310967Y-104444796D01*
X175433398Y-104567227D01*
X175567261Y-104664484D01*
X174425030Y-105806716D01*
X174425030Y-105806717D01*
X174616372Y-105956623D01*
X174615572Y-105957643D01*
X174656165Y-106007736D01*
X174663822Y-106077185D01*
X174632717Y-106139749D01*
X174572725Y-106175564D01*
X174541733Y-106179500D01*
X134088671Y-106179500D01*
X134021632Y-106159815D01*
X133975877Y-106107011D01*
X133965933Y-106037853D01*
X133994958Y-105974297D01*
X134012197Y-105957890D01*
X134012562Y-105957603D01*
X134012562Y-105957602D01*
X132870331Y-104815370D01*
X133004196Y-104718113D01*
X133126627Y-104595682D01*
X133223884Y-104461817D01*
X134366116Y-105604048D01*
X134366117Y-105604048D01*
X134513706Y-105415666D01*
X134682695Y-105136123D01*
X134682696Y-105136121D01*
X134816754Y-104838255D01*
X134816758Y-104838244D01*
X134913926Y-104526421D01*
X134972807Y-104205118D01*
X134992528Y-103879080D01*
X134972807Y-103553041D01*
X134915835Y-103242155D01*
X135810000Y-103242155D01*
X135810000Y-103890000D01*
X136726988Y-103890000D01*
X136694075Y-103947007D01*
X136660000Y-104074174D01*
X136660000Y-104205826D01*
X136694075Y-104332993D01*
X136726988Y-104390000D01*
X135810000Y-104390000D01*
X135810000Y-105037844D01*
X135816401Y-105097372D01*
X135816403Y-105097379D01*
X135866645Y-105232086D01*
X135866649Y-105232093D01*
X135952809Y-105347187D01*
X135952812Y-105347190D01*
X136067906Y-105433350D01*
X136067913Y-105433354D01*
X136202620Y-105483596D01*
X136202627Y-105483598D01*
X136262155Y-105489999D01*
X136262172Y-105490000D01*
X136910000Y-105490000D01*
X136910000Y-104573012D01*
X136967007Y-104605925D01*
X137094174Y-104640000D01*
X137225826Y-104640000D01*
X137352993Y-104605925D01*
X137410000Y-104573012D01*
X137410000Y-105490000D01*
X138057828Y-105490000D01*
X138057844Y-105489999D01*
X138117372Y-105483598D01*
X138117379Y-105483596D01*
X138252086Y-105433354D01*
X138252093Y-105433350D01*
X138367187Y-105347190D01*
X138367190Y-105347187D01*
X138453350Y-105232093D01*
X138453354Y-105232086D01*
X138502614Y-105100013D01*
X138544485Y-105044079D01*
X138609949Y-105019662D01*
X138678222Y-105034513D01*
X138706477Y-105055665D01*
X138828917Y-105178105D01*
X139022421Y-105313600D01*
X139236507Y-105413429D01*
X139236516Y-105413433D01*
X139450000Y-105470634D01*
X139450000Y-104573012D01*
X139507007Y-104605925D01*
X139634174Y-104640000D01*
X139765826Y-104640000D01*
X139892993Y-104605925D01*
X139950000Y-104573012D01*
X139950000Y-105470634D01*
X140163483Y-105413433D01*
X140163492Y-105413429D01*
X140377578Y-105313600D01*
X140571082Y-105178105D01*
X140738105Y-105011082D01*
X140868119Y-104825405D01*
X140922696Y-104781781D01*
X140992195Y-104774588D01*
X141054549Y-104806110D01*
X141071269Y-104825405D01*
X141201505Y-105011401D01*
X141368599Y-105178495D01*
X141443511Y-105230949D01*
X141562165Y-105314032D01*
X141562167Y-105314033D01*
X141562170Y-105314035D01*
X141776337Y-105413903D01*
X141776343Y-105413904D01*
X141776344Y-105413905D01*
X141831285Y-105428626D01*
X142004592Y-105475063D01*
X142175319Y-105490000D01*
X142239999Y-105495659D01*
X142240000Y-105495659D01*
X142240001Y-105495659D01*
X142304681Y-105490000D01*
X142475408Y-105475063D01*
X142703663Y-105413903D01*
X142917830Y-105314035D01*
X143111401Y-105178495D01*
X143278495Y-105011401D01*
X143408425Y-104825842D01*
X143463002Y-104782217D01*
X143532500Y-104775023D01*
X143594855Y-104806546D01*
X143611575Y-104825842D01*
X143741500Y-105011395D01*
X143741505Y-105011401D01*
X143908599Y-105178495D01*
X143983511Y-105230949D01*
X144102165Y-105314032D01*
X144102167Y-105314033D01*
X144102170Y-105314035D01*
X144316337Y-105413903D01*
X144316343Y-105413904D01*
X144316344Y-105413905D01*
X144371285Y-105428626D01*
X144544592Y-105475063D01*
X144715319Y-105490000D01*
X144779999Y-105495659D01*
X144780000Y-105495659D01*
X144780001Y-105495659D01*
X144844681Y-105490000D01*
X145015408Y-105475063D01*
X145243663Y-105413903D01*
X145457830Y-105314035D01*
X145651401Y-105178495D01*
X145818495Y-105011401D01*
X145948425Y-104825842D01*
X146003002Y-104782217D01*
X146072500Y-104775023D01*
X146134855Y-104806546D01*
X146151575Y-104825842D01*
X146281500Y-105011395D01*
X146281505Y-105011401D01*
X146448599Y-105178495D01*
X146523511Y-105230949D01*
X146642165Y-105314032D01*
X146642167Y-105314033D01*
X146642170Y-105314035D01*
X146856337Y-105413903D01*
X146856343Y-105413904D01*
X146856344Y-105413905D01*
X146911285Y-105428626D01*
X147084592Y-105475063D01*
X147255319Y-105490000D01*
X147319999Y-105495659D01*
X147320000Y-105495659D01*
X147320001Y-105495659D01*
X147384681Y-105490000D01*
X147555408Y-105475063D01*
X147783663Y-105413903D01*
X147997830Y-105314035D01*
X148191401Y-105178495D01*
X148358495Y-105011401D01*
X148488425Y-104825842D01*
X148543002Y-104782217D01*
X148612500Y-104775023D01*
X148674855Y-104806546D01*
X148691575Y-104825842D01*
X148821500Y-105011395D01*
X148821505Y-105011401D01*
X148988599Y-105178495D01*
X149063511Y-105230949D01*
X149182165Y-105314032D01*
X149182167Y-105314033D01*
X149182170Y-105314035D01*
X149396337Y-105413903D01*
X149396343Y-105413904D01*
X149396344Y-105413905D01*
X149451285Y-105428626D01*
X149624592Y-105475063D01*
X149795319Y-105490000D01*
X149859999Y-105495659D01*
X149860000Y-105495659D01*
X149860001Y-105495659D01*
X149924681Y-105490000D01*
X150095408Y-105475063D01*
X150323663Y-105413903D01*
X150537830Y-105314035D01*
X150731401Y-105178495D01*
X150898495Y-105011401D01*
X151028425Y-104825842D01*
X151083002Y-104782217D01*
X151152500Y-104775023D01*
X151214855Y-104806546D01*
X151231575Y-104825842D01*
X151361500Y-105011395D01*
X151361505Y-105011401D01*
X151528599Y-105178495D01*
X151603511Y-105230949D01*
X151722165Y-105314032D01*
X151722167Y-105314033D01*
X151722170Y-105314035D01*
X151936337Y-105413903D01*
X151936343Y-105413904D01*
X151936344Y-105413905D01*
X151991285Y-105428626D01*
X152164592Y-105475063D01*
X152335319Y-105490000D01*
X152399999Y-105495659D01*
X152400000Y-105495659D01*
X152400001Y-105495659D01*
X152464681Y-105490000D01*
X152635408Y-105475063D01*
X152863663Y-105413903D01*
X153077830Y-105314035D01*
X153271401Y-105178495D01*
X153438495Y-105011401D01*
X153568425Y-104825842D01*
X153623002Y-104782217D01*
X153692500Y-104775023D01*
X153754855Y-104806546D01*
X153771575Y-104825842D01*
X153901500Y-105011395D01*
X153901505Y-105011401D01*
X154068599Y-105178495D01*
X154143511Y-105230949D01*
X154262165Y-105314032D01*
X154262167Y-105314033D01*
X154262170Y-105314035D01*
X154476337Y-105413903D01*
X154476343Y-105413904D01*
X154476344Y-105413905D01*
X154531285Y-105428626D01*
X154704592Y-105475063D01*
X154875319Y-105490000D01*
X154939999Y-105495659D01*
X154940000Y-105495659D01*
X154940001Y-105495659D01*
X155004681Y-105490000D01*
X155175408Y-105475063D01*
X155403663Y-105413903D01*
X155617830Y-105314035D01*
X155811401Y-105178495D01*
X155978495Y-105011401D01*
X156108425Y-104825842D01*
X156163002Y-104782217D01*
X156232500Y-104775023D01*
X156294855Y-104806546D01*
X156311575Y-104825842D01*
X156441500Y-105011395D01*
X156441505Y-105011401D01*
X156608599Y-105178495D01*
X156683511Y-105230949D01*
X156802165Y-105314032D01*
X156802167Y-105314033D01*
X156802170Y-105314035D01*
X157016337Y-105413903D01*
X157016343Y-105413904D01*
X157016344Y-105413905D01*
X157071285Y-105428626D01*
X157244592Y-105475063D01*
X157415319Y-105490000D01*
X157479999Y-105495659D01*
X157480000Y-105495659D01*
X157480001Y-105495659D01*
X157544681Y-105490000D01*
X157715408Y-105475063D01*
X157943663Y-105413903D01*
X158157830Y-105314035D01*
X158351401Y-105178495D01*
X158518495Y-105011401D01*
X158648425Y-104825842D01*
X158703002Y-104782217D01*
X158772500Y-104775023D01*
X158834855Y-104806546D01*
X158851575Y-104825842D01*
X158981500Y-105011395D01*
X158981505Y-105011401D01*
X159148599Y-105178495D01*
X159223511Y-105230949D01*
X159342165Y-105314032D01*
X159342167Y-105314033D01*
X159342170Y-105314035D01*
X159556337Y-105413903D01*
X159556343Y-105413904D01*
X159556344Y-105413905D01*
X159611285Y-105428626D01*
X159784592Y-105475063D01*
X159955319Y-105490000D01*
X160019999Y-105495659D01*
X160020000Y-105495659D01*
X160020001Y-105495659D01*
X160084681Y-105490000D01*
X160255408Y-105475063D01*
X160483663Y-105413903D01*
X160697830Y-105314035D01*
X160891401Y-105178495D01*
X161058495Y-105011401D01*
X161194035Y-104817830D01*
X161293903Y-104603663D01*
X161355063Y-104375408D01*
X161375659Y-104140000D01*
X161355063Y-103904592D01*
X161293903Y-103676337D01*
X161194035Y-103462171D01*
X161190294Y-103456827D01*
X161058494Y-103268597D01*
X160891402Y-103101506D01*
X160891395Y-103101501D01*
X160697834Y-102965967D01*
X160697830Y-102965965D01*
X160626727Y-102932809D01*
X160483663Y-102866097D01*
X160483659Y-102866096D01*
X160483655Y-102866094D01*
X160255413Y-102804938D01*
X160255403Y-102804936D01*
X160020001Y-102784341D01*
X160019999Y-102784341D01*
X159784596Y-102804936D01*
X159784586Y-102804938D01*
X159556344Y-102866094D01*
X159556335Y-102866098D01*
X159342171Y-102965964D01*
X159342169Y-102965965D01*
X159148597Y-103101505D01*
X158981505Y-103268597D01*
X158851575Y-103454158D01*
X158796998Y-103497783D01*
X158727500Y-103504977D01*
X158665145Y-103473454D01*
X158648425Y-103454158D01*
X158518494Y-103268597D01*
X158351402Y-103101506D01*
X158351395Y-103101501D01*
X158157834Y-102965967D01*
X158157830Y-102965965D01*
X158086727Y-102932809D01*
X157943663Y-102866097D01*
X157943659Y-102866096D01*
X157943655Y-102866094D01*
X157715413Y-102804938D01*
X157715403Y-102804936D01*
X157480001Y-102784341D01*
X157479999Y-102784341D01*
X157244596Y-102804936D01*
X157244586Y-102804938D01*
X157016344Y-102866094D01*
X157016335Y-102866098D01*
X156802171Y-102965964D01*
X156802169Y-102965965D01*
X156608597Y-103101505D01*
X156441505Y-103268597D01*
X156311575Y-103454158D01*
X156256998Y-103497783D01*
X156187500Y-103504977D01*
X156125145Y-103473454D01*
X156108425Y-103454158D01*
X155978494Y-103268597D01*
X155811402Y-103101506D01*
X155811395Y-103101501D01*
X155617834Y-102965967D01*
X155617830Y-102965965D01*
X155546727Y-102932809D01*
X155403663Y-102866097D01*
X155403659Y-102866096D01*
X155403655Y-102866094D01*
X155175413Y-102804938D01*
X155175403Y-102804936D01*
X154940001Y-102784341D01*
X154939999Y-102784341D01*
X154704596Y-102804936D01*
X154704586Y-102804938D01*
X154476344Y-102866094D01*
X154476335Y-102866098D01*
X154262171Y-102965964D01*
X154262169Y-102965965D01*
X154068597Y-103101505D01*
X153901505Y-103268597D01*
X153771575Y-103454158D01*
X153716998Y-103497783D01*
X153647500Y-103504977D01*
X153585145Y-103473454D01*
X153568425Y-103454158D01*
X153438494Y-103268597D01*
X153271402Y-103101506D01*
X153271395Y-103101501D01*
X153077834Y-102965967D01*
X153077830Y-102965965D01*
X153006727Y-102932809D01*
X152863663Y-102866097D01*
X152863659Y-102866096D01*
X152863655Y-102866094D01*
X152635413Y-102804938D01*
X152635403Y-102804936D01*
X152400001Y-102784341D01*
X152399999Y-102784341D01*
X152164596Y-102804936D01*
X152164586Y-102804938D01*
X151936344Y-102866094D01*
X151936335Y-102866098D01*
X151722171Y-102965964D01*
X151722169Y-102965965D01*
X151528597Y-103101505D01*
X151361505Y-103268597D01*
X151231575Y-103454158D01*
X151176998Y-103497783D01*
X151107500Y-103504977D01*
X151045145Y-103473454D01*
X151028425Y-103454158D01*
X150898494Y-103268597D01*
X150731402Y-103101506D01*
X150731395Y-103101501D01*
X150537834Y-102965967D01*
X150537830Y-102965965D01*
X150466727Y-102932809D01*
X150323663Y-102866097D01*
X150323659Y-102866096D01*
X150323655Y-102866094D01*
X150095413Y-102804938D01*
X150095403Y-102804936D01*
X149860001Y-102784341D01*
X149859999Y-102784341D01*
X149624596Y-102804936D01*
X149624586Y-102804938D01*
X149396344Y-102866094D01*
X149396335Y-102866098D01*
X149182171Y-102965964D01*
X149182169Y-102965965D01*
X148988597Y-103101505D01*
X148821505Y-103268597D01*
X148691575Y-103454158D01*
X148636998Y-103497783D01*
X148567500Y-103504977D01*
X148505145Y-103473454D01*
X148488425Y-103454158D01*
X148358494Y-103268597D01*
X148191402Y-103101506D01*
X148191395Y-103101501D01*
X147997834Y-102965967D01*
X147997830Y-102965965D01*
X147926727Y-102932809D01*
X147783663Y-102866097D01*
X147783659Y-102866096D01*
X147783655Y-102866094D01*
X147555413Y-102804938D01*
X147555403Y-102804936D01*
X147320001Y-102784341D01*
X147319999Y-102784341D01*
X147084596Y-102804936D01*
X147084586Y-102804938D01*
X146856344Y-102866094D01*
X146856335Y-102866098D01*
X146642171Y-102965964D01*
X146642169Y-102965965D01*
X146448597Y-103101505D01*
X146281505Y-103268597D01*
X146151575Y-103454158D01*
X146096998Y-103497783D01*
X146027500Y-103504977D01*
X145965145Y-103473454D01*
X145948425Y-103454158D01*
X145818494Y-103268597D01*
X145651402Y-103101506D01*
X145651395Y-103101501D01*
X145457834Y-102965967D01*
X145457830Y-102965965D01*
X145386727Y-102932809D01*
X145243663Y-102866097D01*
X145243659Y-102866096D01*
X145243655Y-102866094D01*
X145015413Y-102804938D01*
X145015403Y-102804936D01*
X144780001Y-102784341D01*
X144779999Y-102784341D01*
X144544596Y-102804936D01*
X144544586Y-102804938D01*
X144316344Y-102866094D01*
X144316335Y-102866098D01*
X144102171Y-102965964D01*
X144102169Y-102965965D01*
X143908597Y-103101505D01*
X143741505Y-103268597D01*
X143611575Y-103454158D01*
X143556998Y-103497783D01*
X143487500Y-103504977D01*
X143425145Y-103473454D01*
X143408425Y-103454158D01*
X143278494Y-103268597D01*
X143111402Y-103101506D01*
X143111395Y-103101501D01*
X142917834Y-102965967D01*
X142917830Y-102965965D01*
X142846727Y-102932809D01*
X142703663Y-102866097D01*
X142703659Y-102866096D01*
X142703655Y-102866094D01*
X142475413Y-102804938D01*
X142475403Y-102804936D01*
X142240001Y-102784341D01*
X142239999Y-102784341D01*
X142004596Y-102804936D01*
X142004586Y-102804938D01*
X141776344Y-102866094D01*
X141776335Y-102866098D01*
X141562171Y-102965964D01*
X141562169Y-102965965D01*
X141368597Y-103101505D01*
X141201508Y-103268594D01*
X141071269Y-103454595D01*
X141016692Y-103498219D01*
X140947193Y-103505412D01*
X140884839Y-103473890D01*
X140868119Y-103454594D01*
X140738113Y-103268926D01*
X140738108Y-103268920D01*
X140571082Y-103101894D01*
X140377578Y-102966399D01*
X140163492Y-102866570D01*
X140163486Y-102866567D01*
X139950000Y-102809364D01*
X139950000Y-103706988D01*
X139892993Y-103674075D01*
X139765826Y-103640000D01*
X139634174Y-103640000D01*
X139507007Y-103674075D01*
X139450000Y-103706988D01*
X139450000Y-102809364D01*
X139449999Y-102809364D01*
X139236513Y-102866567D01*
X139236507Y-102866570D01*
X139022422Y-102966399D01*
X139022420Y-102966400D01*
X138828926Y-103101886D01*
X138706477Y-103224335D01*
X138645154Y-103257819D01*
X138575462Y-103252835D01*
X138519529Y-103210963D01*
X138502614Y-103179986D01*
X138453354Y-103047913D01*
X138453350Y-103047906D01*
X138367190Y-102932812D01*
X138367187Y-102932809D01*
X138252093Y-102846649D01*
X138252086Y-102846645D01*
X138117379Y-102796403D01*
X138117372Y-102796401D01*
X138057844Y-102790000D01*
X137410000Y-102790000D01*
X137410000Y-103706988D01*
X137352993Y-103674075D01*
X137225826Y-103640000D01*
X137094174Y-103640000D01*
X136967007Y-103674075D01*
X136910000Y-103706988D01*
X136910000Y-102790000D01*
X136262155Y-102790000D01*
X136202627Y-102796401D01*
X136202620Y-102796403D01*
X136067913Y-102846645D01*
X136067906Y-102846649D01*
X135952812Y-102932809D01*
X135952809Y-102932812D01*
X135866649Y-103047906D01*
X135866645Y-103047913D01*
X135816403Y-103182620D01*
X135816401Y-103182627D01*
X135810000Y-103242155D01*
X134915835Y-103242155D01*
X134913926Y-103231738D01*
X134816758Y-102919915D01*
X134816754Y-102919904D01*
X134682696Y-102622038D01*
X134682695Y-102622036D01*
X134513712Y-102342503D01*
X134366116Y-102154110D01*
X133223884Y-103296342D01*
X133126627Y-103162478D01*
X133004196Y-103040047D01*
X132870330Y-102942789D01*
X134012562Y-101800556D01*
X133824170Y-101652961D01*
X133544637Y-101483978D01*
X133544635Y-101483977D01*
X133246769Y-101349919D01*
X133246758Y-101349915D01*
X132934935Y-101252747D01*
X132613632Y-101193866D01*
X132287594Y-101174145D01*
X131961555Y-101193866D01*
X131640252Y-101252747D01*
X131328429Y-101349915D01*
X131328418Y-101349919D01*
X131030552Y-101483977D01*
X131030550Y-101483978D01*
X130751016Y-101652961D01*
X130751010Y-101652966D01*
X130562624Y-101800554D01*
X130562623Y-101800556D01*
X131704856Y-102942789D01*
X131570992Y-103040047D01*
X131448561Y-103162478D01*
X131351303Y-103296342D01*
X130209070Y-102154109D01*
X130171987Y-102156353D01*
X130103882Y-102140752D01*
X130055022Y-102090807D01*
X130040500Y-102032579D01*
X130040500Y-98511565D01*
X136126026Y-98511565D01*
X136126026Y-99753730D01*
X136163512Y-99942183D01*
X136163515Y-99942195D01*
X136197180Y-100023470D01*
X136204649Y-100092939D01*
X136198801Y-100114255D01*
X136157434Y-100225165D01*
X136151027Y-100284764D01*
X136151027Y-100284771D01*
X136151026Y-100284783D01*
X136151026Y-101680518D01*
X136151027Y-101680524D01*
X136157434Y-101740131D01*
X136207728Y-101874976D01*
X136207732Y-101874983D01*
X136293978Y-101990192D01*
X136293981Y-101990195D01*
X136409190Y-102076441D01*
X136409197Y-102076445D01*
X136544043Y-102126739D01*
X136544042Y-102126739D01*
X136550970Y-102127483D01*
X136603653Y-102133148D01*
X137599398Y-102133147D01*
X137659009Y-102126739D01*
X137793857Y-102076444D01*
X137909072Y-101990194D01*
X137995322Y-101874979D01*
X138045617Y-101740131D01*
X138052026Y-101680521D01*
X138052025Y-100284776D01*
X138045617Y-100225165D01*
X138004250Y-100114254D01*
X137999266Y-100044562D01*
X138005868Y-100023476D01*
X138039538Y-99942191D01*
X138077026Y-99753726D01*
X138077026Y-98511570D01*
X138077026Y-98511567D01*
X138077025Y-98511565D01*
X140576026Y-98511565D01*
X140576026Y-99753730D01*
X140613512Y-99942183D01*
X140613515Y-99942195D01*
X140647180Y-100023470D01*
X140654649Y-100092939D01*
X140648801Y-100114255D01*
X140607434Y-100225165D01*
X140601027Y-100284764D01*
X140601027Y-100284771D01*
X140601026Y-100284783D01*
X140601026Y-101680518D01*
X140601027Y-101680524D01*
X140607434Y-101740131D01*
X140657728Y-101874976D01*
X140657732Y-101874983D01*
X140743978Y-101990192D01*
X140743981Y-101990195D01*
X140859190Y-102076441D01*
X140859197Y-102076445D01*
X140994043Y-102126739D01*
X140994042Y-102126739D01*
X141000970Y-102127483D01*
X141053653Y-102133148D01*
X142049398Y-102133147D01*
X142109009Y-102126739D01*
X142243857Y-102076444D01*
X142359072Y-101990194D01*
X142445322Y-101874979D01*
X142495617Y-101740131D01*
X142502026Y-101680521D01*
X142502025Y-100284776D01*
X142495617Y-100225165D01*
X142454250Y-100114254D01*
X142449266Y-100044562D01*
X142455868Y-100023476D01*
X142489538Y-99942191D01*
X142527026Y-99753726D01*
X142527026Y-98511570D01*
X142527026Y-98511567D01*
X142527025Y-98511565D01*
X145026026Y-98511565D01*
X145026026Y-99753730D01*
X145063512Y-99942183D01*
X145063515Y-99942195D01*
X145097180Y-100023470D01*
X145104649Y-100092939D01*
X145098801Y-100114255D01*
X145057434Y-100225165D01*
X145051027Y-100284764D01*
X145051027Y-100284771D01*
X145051026Y-100284783D01*
X145051026Y-101680518D01*
X145051027Y-101680524D01*
X145057434Y-101740131D01*
X145107728Y-101874976D01*
X145107732Y-101874983D01*
X145193978Y-101990192D01*
X145193981Y-101990195D01*
X145309190Y-102076441D01*
X145309197Y-102076445D01*
X145444043Y-102126739D01*
X145444042Y-102126739D01*
X145450970Y-102127483D01*
X145503653Y-102133148D01*
X146499398Y-102133147D01*
X146559009Y-102126739D01*
X146693857Y-102076444D01*
X146809072Y-101990194D01*
X146895322Y-101874979D01*
X146945617Y-101740131D01*
X146952026Y-101680521D01*
X146952025Y-100284776D01*
X146945617Y-100225165D01*
X146904250Y-100114254D01*
X146899266Y-100044562D01*
X146905868Y-100023476D01*
X146939538Y-99942191D01*
X146977026Y-99753726D01*
X146977026Y-98511570D01*
X146977026Y-98511567D01*
X146977025Y-98511565D01*
X149476026Y-98511565D01*
X149476026Y-99753730D01*
X149513512Y-99942183D01*
X149513515Y-99942195D01*
X149547180Y-100023470D01*
X149554649Y-100092939D01*
X149548801Y-100114255D01*
X149507434Y-100225165D01*
X149501027Y-100284764D01*
X149501027Y-100284771D01*
X149501026Y-100284783D01*
X149501026Y-101680518D01*
X149501027Y-101680524D01*
X149507434Y-101740131D01*
X149557728Y-101874976D01*
X149557732Y-101874983D01*
X149643978Y-101990192D01*
X149643981Y-101990195D01*
X149759190Y-102076441D01*
X149759197Y-102076445D01*
X149894043Y-102126739D01*
X149894042Y-102126739D01*
X149900970Y-102127483D01*
X149953653Y-102133148D01*
X150949398Y-102133147D01*
X151009009Y-102126739D01*
X151143857Y-102076444D01*
X151259072Y-101990194D01*
X151345322Y-101874979D01*
X151395617Y-101740131D01*
X151402026Y-101680521D01*
X151402025Y-100284776D01*
X151395617Y-100225165D01*
X151354250Y-100114254D01*
X151349266Y-100044562D01*
X151355868Y-100023476D01*
X151389538Y-99942191D01*
X151427026Y-99753726D01*
X151427026Y-98511570D01*
X151427026Y-98511567D01*
X151427025Y-98511565D01*
X153926026Y-98511565D01*
X153926026Y-99753730D01*
X153963512Y-99942183D01*
X153963515Y-99942195D01*
X153997180Y-100023470D01*
X154004649Y-100092939D01*
X153998801Y-100114255D01*
X153957434Y-100225165D01*
X153951027Y-100284764D01*
X153951027Y-100284771D01*
X153951026Y-100284783D01*
X153951026Y-101680518D01*
X153951027Y-101680524D01*
X153957434Y-101740131D01*
X154007728Y-101874976D01*
X154007732Y-101874983D01*
X154093978Y-101990192D01*
X154093981Y-101990195D01*
X154209190Y-102076441D01*
X154209197Y-102076445D01*
X154344043Y-102126739D01*
X154344042Y-102126739D01*
X154350970Y-102127483D01*
X154403653Y-102133148D01*
X155399398Y-102133147D01*
X155459009Y-102126739D01*
X155593857Y-102076444D01*
X155709072Y-101990194D01*
X155795322Y-101874979D01*
X155845617Y-101740131D01*
X155852026Y-101680521D01*
X155852025Y-100284776D01*
X155845617Y-100225165D01*
X155804250Y-100114254D01*
X155799266Y-100044562D01*
X155805868Y-100023476D01*
X155839538Y-99942191D01*
X155877026Y-99753726D01*
X155877026Y-98511570D01*
X155877026Y-98511567D01*
X155877025Y-98511565D01*
X158376026Y-98511565D01*
X158376026Y-99753730D01*
X158413512Y-99942183D01*
X158413515Y-99942195D01*
X158447180Y-100023470D01*
X158454649Y-100092939D01*
X158448801Y-100114255D01*
X158407434Y-100225165D01*
X158401027Y-100284764D01*
X158401027Y-100284771D01*
X158401026Y-100284783D01*
X158401026Y-101680518D01*
X158401027Y-101680524D01*
X158407434Y-101740131D01*
X158457728Y-101874976D01*
X158457732Y-101874983D01*
X158543978Y-101990192D01*
X158543981Y-101990195D01*
X158659190Y-102076441D01*
X158659197Y-102076445D01*
X158794043Y-102126739D01*
X158794042Y-102126739D01*
X158800970Y-102127483D01*
X158853653Y-102133148D01*
X159849398Y-102133147D01*
X159909009Y-102126739D01*
X160043857Y-102076444D01*
X160159072Y-101990194D01*
X160245322Y-101874979D01*
X160295617Y-101740131D01*
X160302026Y-101680521D01*
X160302025Y-100284776D01*
X160295617Y-100225165D01*
X160254250Y-100114254D01*
X160249266Y-100044562D01*
X160255868Y-100023476D01*
X160289538Y-99942191D01*
X160327026Y-99753726D01*
X160327026Y-98511570D01*
X160327026Y-98511567D01*
X160327025Y-98511565D01*
X162826026Y-98511565D01*
X162826026Y-99753730D01*
X162863512Y-99942183D01*
X162863515Y-99942195D01*
X162897180Y-100023470D01*
X162904649Y-100092939D01*
X162898801Y-100114255D01*
X162857434Y-100225165D01*
X162851027Y-100284764D01*
X162851027Y-100284771D01*
X162851026Y-100284783D01*
X162851026Y-101680518D01*
X162851027Y-101680524D01*
X162857434Y-101740131D01*
X162907728Y-101874976D01*
X162907732Y-101874983D01*
X162993978Y-101990192D01*
X162993981Y-101990195D01*
X163109190Y-102076441D01*
X163109197Y-102076445D01*
X163244043Y-102126739D01*
X163244042Y-102126739D01*
X163250970Y-102127483D01*
X163303653Y-102133148D01*
X164299398Y-102133147D01*
X164359009Y-102126739D01*
X164493857Y-102076444D01*
X164609072Y-101990194D01*
X164695322Y-101874979D01*
X164745617Y-101740131D01*
X164752026Y-101680521D01*
X164752025Y-100284776D01*
X164745617Y-100225165D01*
X164704250Y-100114254D01*
X164699266Y-100044562D01*
X164705868Y-100023476D01*
X164739538Y-99942191D01*
X164777026Y-99753726D01*
X164777026Y-98511570D01*
X164777026Y-98511567D01*
X164777025Y-98511565D01*
X164739539Y-98323112D01*
X164739538Y-98323105D01*
X164666003Y-98145575D01*
X164559246Y-97985803D01*
X164559243Y-97985799D01*
X164423374Y-97849930D01*
X164423370Y-97849927D01*
X164263596Y-97743169D01*
X164263594Y-97743168D01*
X164086073Y-97669637D01*
X164086061Y-97669634D01*
X163897607Y-97632148D01*
X163897604Y-97632148D01*
X163705448Y-97632148D01*
X163705445Y-97632148D01*
X163516990Y-97669634D01*
X163516978Y-97669637D01*
X163339457Y-97743168D01*
X163339455Y-97743169D01*
X163179681Y-97849927D01*
X163179677Y-97849930D01*
X163043808Y-97985799D01*
X163043805Y-97985803D01*
X162937047Y-98145577D01*
X162937046Y-98145579D01*
X162863515Y-98323100D01*
X162863512Y-98323112D01*
X162826026Y-98511565D01*
X160327025Y-98511565D01*
X160289539Y-98323112D01*
X160289538Y-98323105D01*
X160216003Y-98145575D01*
X160109246Y-97985803D01*
X160109243Y-97985799D01*
X159973374Y-97849930D01*
X159973370Y-97849927D01*
X159813596Y-97743169D01*
X159813594Y-97743168D01*
X159636073Y-97669637D01*
X159636061Y-97669634D01*
X159447607Y-97632148D01*
X159447604Y-97632148D01*
X159255448Y-97632148D01*
X159255445Y-97632148D01*
X159066990Y-97669634D01*
X159066978Y-97669637D01*
X158889457Y-97743168D01*
X158889455Y-97743169D01*
X158729681Y-97849927D01*
X158729677Y-97849930D01*
X158593808Y-97985799D01*
X158593805Y-97985803D01*
X158487047Y-98145577D01*
X158487046Y-98145579D01*
X158413515Y-98323100D01*
X158413512Y-98323112D01*
X158376026Y-98511565D01*
X155877025Y-98511565D01*
X155839539Y-98323112D01*
X155839538Y-98323105D01*
X155766003Y-98145575D01*
X155659246Y-97985803D01*
X155659243Y-97985799D01*
X155523374Y-97849930D01*
X155523370Y-97849927D01*
X155363596Y-97743169D01*
X155363594Y-97743168D01*
X155186073Y-97669637D01*
X155186061Y-97669634D01*
X154997607Y-97632148D01*
X154997604Y-97632148D01*
X154805448Y-97632148D01*
X154805445Y-97632148D01*
X154616990Y-97669634D01*
X154616978Y-97669637D01*
X154439457Y-97743168D01*
X154439455Y-97743169D01*
X154279681Y-97849927D01*
X154279677Y-97849930D01*
X154143808Y-97985799D01*
X154143805Y-97985803D01*
X154037047Y-98145577D01*
X154037046Y-98145579D01*
X153963515Y-98323100D01*
X153963512Y-98323112D01*
X153926026Y-98511565D01*
X151427025Y-98511565D01*
X151389539Y-98323112D01*
X151389538Y-98323105D01*
X151316003Y-98145575D01*
X151209246Y-97985803D01*
X151209243Y-97985799D01*
X151073374Y-97849930D01*
X151073370Y-97849927D01*
X150913596Y-97743169D01*
X150913594Y-97743168D01*
X150736073Y-97669637D01*
X150736061Y-97669634D01*
X150547607Y-97632148D01*
X150547604Y-97632148D01*
X150355448Y-97632148D01*
X150355445Y-97632148D01*
X150166990Y-97669634D01*
X150166978Y-97669637D01*
X149989457Y-97743168D01*
X149989455Y-97743169D01*
X149829681Y-97849927D01*
X149829677Y-97849930D01*
X149693808Y-97985799D01*
X149693805Y-97985803D01*
X149587047Y-98145577D01*
X149587046Y-98145579D01*
X149513515Y-98323100D01*
X149513512Y-98323112D01*
X149476026Y-98511565D01*
X146977025Y-98511565D01*
X146939539Y-98323112D01*
X146939538Y-98323105D01*
X146866003Y-98145575D01*
X146759246Y-97985803D01*
X146759243Y-97985799D01*
X146623374Y-97849930D01*
X146623370Y-97849927D01*
X146463596Y-97743169D01*
X146463594Y-97743168D01*
X146286073Y-97669637D01*
X146286061Y-97669634D01*
X146097607Y-97632148D01*
X146097604Y-97632148D01*
X145905448Y-97632148D01*
X145905445Y-97632148D01*
X145716990Y-97669634D01*
X145716978Y-97669637D01*
X145539457Y-97743168D01*
X145539455Y-97743169D01*
X145379681Y-97849927D01*
X145379677Y-97849930D01*
X145243808Y-97985799D01*
X145243805Y-97985803D01*
X145137047Y-98145577D01*
X145137046Y-98145579D01*
X145063515Y-98323100D01*
X145063512Y-98323112D01*
X145026026Y-98511565D01*
X142527025Y-98511565D01*
X142489539Y-98323112D01*
X142489538Y-98323105D01*
X142416003Y-98145575D01*
X142309246Y-97985803D01*
X142309243Y-97985799D01*
X142173374Y-97849930D01*
X142173370Y-97849927D01*
X142013596Y-97743169D01*
X142013594Y-97743168D01*
X141836073Y-97669637D01*
X141836061Y-97669634D01*
X141647607Y-97632148D01*
X141647604Y-97632148D01*
X141455448Y-97632148D01*
X141455445Y-97632148D01*
X141266990Y-97669634D01*
X141266978Y-97669637D01*
X141089457Y-97743168D01*
X141089455Y-97743169D01*
X140929681Y-97849927D01*
X140929677Y-97849930D01*
X140793808Y-97985799D01*
X140793805Y-97985803D01*
X140687047Y-98145577D01*
X140687046Y-98145579D01*
X140613515Y-98323100D01*
X140613512Y-98323112D01*
X140576026Y-98511565D01*
X138077025Y-98511565D01*
X138039539Y-98323112D01*
X138039538Y-98323105D01*
X137966003Y-98145575D01*
X137859246Y-97985803D01*
X137859243Y-97985799D01*
X137723374Y-97849930D01*
X137723370Y-97849927D01*
X137563596Y-97743169D01*
X137563594Y-97743168D01*
X137386073Y-97669637D01*
X137386061Y-97669634D01*
X137197607Y-97632148D01*
X137197604Y-97632148D01*
X137005448Y-97632148D01*
X137005445Y-97632148D01*
X136816990Y-97669634D01*
X136816978Y-97669637D01*
X136639457Y-97743168D01*
X136639455Y-97743169D01*
X136479681Y-97849927D01*
X136479677Y-97849930D01*
X136343808Y-97985799D01*
X136343805Y-97985803D01*
X136237047Y-98145577D01*
X136237046Y-98145579D01*
X136163515Y-98323100D01*
X136163512Y-98323112D01*
X136126026Y-98511565D01*
X130040500Y-98511565D01*
X130040500Y-96305336D01*
X167000034Y-96305336D01*
X167000034Y-96497501D01*
X167037520Y-96685954D01*
X167037523Y-96685966D01*
X167111054Y-96863487D01*
X167111055Y-96863489D01*
X167217813Y-97023263D01*
X167217816Y-97023267D01*
X167353685Y-97159136D01*
X167353689Y-97159139D01*
X167513461Y-97265896D01*
X167513462Y-97265896D01*
X167513463Y-97265897D01*
X167513465Y-97265898D01*
X167609711Y-97305764D01*
X167690991Y-97339431D01*
X167879451Y-97376918D01*
X167879454Y-97376919D01*
X167879456Y-97376919D01*
X169121614Y-97376919D01*
X169121615Y-97376918D01*
X169310077Y-97339431D01*
X169391356Y-97305763D01*
X169460823Y-97298295D01*
X169482140Y-97304143D01*
X169593051Y-97345510D01*
X169593050Y-97345510D01*
X169599978Y-97346254D01*
X169652661Y-97351919D01*
X171048406Y-97351918D01*
X171108017Y-97345510D01*
X171242865Y-97295215D01*
X171358080Y-97208965D01*
X171444330Y-97093750D01*
X171494625Y-96958902D01*
X171501034Y-96899292D01*
X171501033Y-95903547D01*
X171494625Y-95843936D01*
X171444330Y-95709088D01*
X171444329Y-95709087D01*
X171444327Y-95709083D01*
X171358081Y-95593874D01*
X171358078Y-95593871D01*
X171242869Y-95507625D01*
X171242862Y-95507621D01*
X171108016Y-95457327D01*
X171108017Y-95457327D01*
X171048417Y-95450920D01*
X171048415Y-95450919D01*
X171048407Y-95450919D01*
X171048398Y-95450919D01*
X169652663Y-95450919D01*
X169652657Y-95450920D01*
X169593050Y-95457327D01*
X169482141Y-95498694D01*
X169412449Y-95503678D01*
X169391356Y-95497073D01*
X169310081Y-95463408D01*
X169310069Y-95463405D01*
X169121615Y-95425919D01*
X169121612Y-95425919D01*
X167879456Y-95425919D01*
X167879453Y-95425919D01*
X167690998Y-95463405D01*
X167690986Y-95463408D01*
X167513465Y-95536939D01*
X167513463Y-95536940D01*
X167353689Y-95643698D01*
X167353685Y-95643701D01*
X167217816Y-95779570D01*
X167217813Y-95779574D01*
X167111055Y-95939348D01*
X167111054Y-95939350D01*
X167037523Y-96116871D01*
X167037520Y-96116883D01*
X167000034Y-96305336D01*
X130040500Y-96305336D01*
X130040500Y-94584417D01*
X172160446Y-94584417D01*
X172279117Y-94647848D01*
X172464794Y-94704173D01*
X172657887Y-94723190D01*
X172850982Y-94704172D01*
X172897891Y-94689943D01*
X172967758Y-94689319D01*
X173026871Y-94726566D01*
X173056462Y-94789860D01*
X173057887Y-94808603D01*
X173057887Y-94991269D01*
X173064288Y-95050797D01*
X173064290Y-95050804D01*
X173114532Y-95185511D01*
X173114536Y-95185518D01*
X173200696Y-95300612D01*
X173200699Y-95300615D01*
X173315793Y-95386775D01*
X173315800Y-95386779D01*
X173450507Y-95437021D01*
X173450514Y-95437023D01*
X173510042Y-95443424D01*
X173510059Y-95443425D01*
X175847887Y-95443425D01*
X175847887Y-93983425D01*
X173086249Y-93983425D01*
X173019210Y-93963740D01*
X173018819Y-93963425D01*
X173001887Y-93963425D01*
X172934848Y-93943740D01*
X172889093Y-93890936D01*
X172884474Y-93869706D01*
X172877886Y-93866977D01*
X172160446Y-94584417D01*
X130040500Y-94584417D01*
X130040500Y-93733425D01*
X171668121Y-93733425D01*
X171687138Y-93926517D01*
X171743463Y-94112194D01*
X171806894Y-94230864D01*
X172304334Y-93733425D01*
X172304334Y-93733424D01*
X172258585Y-93687675D01*
X172427887Y-93687675D01*
X172427887Y-93779175D01*
X172462902Y-93863710D01*
X172527602Y-93928410D01*
X172612137Y-93963425D01*
X172703637Y-93963425D01*
X172788172Y-93928410D01*
X172852872Y-93863710D01*
X172887887Y-93779175D01*
X172887887Y-93687675D01*
X172852872Y-93603140D01*
X172788172Y-93538440D01*
X172703637Y-93503425D01*
X172612137Y-93503425D01*
X172527602Y-93538440D01*
X172462902Y-93603140D01*
X172427887Y-93687675D01*
X172258585Y-93687675D01*
X171806894Y-93235985D01*
X171743463Y-93354655D01*
X171687138Y-93540332D01*
X171668121Y-93733425D01*
X130040500Y-93733425D01*
X130040500Y-92882432D01*
X172160447Y-92882432D01*
X172877886Y-93599871D01*
X172887097Y-93596056D01*
X172897572Y-93560386D01*
X172950376Y-93514631D01*
X173001887Y-93503425D01*
X173028454Y-93503425D01*
X173059891Y-93486259D01*
X173086249Y-93483425D01*
X175847887Y-93483425D01*
X175847887Y-92023425D01*
X173510042Y-92023425D01*
X173450514Y-92029826D01*
X173450507Y-92029828D01*
X173315800Y-92080070D01*
X173315793Y-92080074D01*
X173200699Y-92166234D01*
X173200696Y-92166237D01*
X173114536Y-92281331D01*
X173114532Y-92281338D01*
X173064290Y-92416045D01*
X173064288Y-92416052D01*
X173057887Y-92475580D01*
X173057887Y-92658246D01*
X173038202Y-92725285D01*
X172985398Y-92771040D01*
X172916240Y-92780984D01*
X172897893Y-92776907D01*
X172850981Y-92762677D01*
X172657887Y-92743659D01*
X172464794Y-92762676D01*
X172279117Y-92819001D01*
X172160447Y-92882432D01*
X130040500Y-92882432D01*
X130040500Y-91705336D01*
X167000034Y-91705336D01*
X167000034Y-91897501D01*
X167037520Y-92085954D01*
X167037523Y-92085966D01*
X167111054Y-92263487D01*
X167111055Y-92263489D01*
X167217813Y-92423263D01*
X167217816Y-92423267D01*
X167353685Y-92559136D01*
X167353689Y-92559139D01*
X167513461Y-92665896D01*
X167513462Y-92665896D01*
X167513463Y-92665897D01*
X167513465Y-92665898D01*
X167656839Y-92725285D01*
X167690991Y-92739431D01*
X167879396Y-92776907D01*
X167879451Y-92776918D01*
X167879454Y-92776919D01*
X167879456Y-92776919D01*
X169121614Y-92776919D01*
X169121615Y-92776918D01*
X169310077Y-92739431D01*
X169392036Y-92705482D01*
X169461500Y-92698014D01*
X169482819Y-92703862D01*
X169593157Y-92745016D01*
X169593161Y-92745017D01*
X169652689Y-92751418D01*
X169652706Y-92751419D01*
X170100534Y-92751419D01*
X170600534Y-92751419D01*
X171048362Y-92751419D01*
X171048378Y-92751418D01*
X171107906Y-92745017D01*
X171107913Y-92745015D01*
X171242620Y-92694773D01*
X171242627Y-92694769D01*
X171357721Y-92608609D01*
X171357724Y-92608606D01*
X171443884Y-92493512D01*
X171443888Y-92493505D01*
X171494130Y-92358798D01*
X171494132Y-92358791D01*
X171500533Y-92299263D01*
X171500534Y-92299246D01*
X171500534Y-92051419D01*
X170600534Y-92051419D01*
X170600534Y-92751419D01*
X170100534Y-92751419D01*
X170100534Y-92098604D01*
X170166330Y-92080975D01*
X170234739Y-92041479D01*
X170290594Y-91985624D01*
X170330090Y-91917215D01*
X170350534Y-91840915D01*
X170350534Y-91761923D01*
X170330090Y-91685623D01*
X170290594Y-91617214D01*
X170234739Y-91561359D01*
X170217522Y-91551419D01*
X170600534Y-91551419D01*
X171500534Y-91551419D01*
X171500534Y-91303591D01*
X171500533Y-91303574D01*
X171494132Y-91244046D01*
X171494130Y-91244039D01*
X171443888Y-91109332D01*
X171443884Y-91109325D01*
X171357724Y-90994231D01*
X171357721Y-90994228D01*
X171242627Y-90908068D01*
X171242620Y-90908064D01*
X171107913Y-90857822D01*
X171107906Y-90857820D01*
X171048378Y-90851419D01*
X170600534Y-90851419D01*
X170600534Y-91551419D01*
X170217522Y-91551419D01*
X170166330Y-91521863D01*
X170100534Y-91504233D01*
X170100534Y-90851419D01*
X169652689Y-90851419D01*
X169593161Y-90857820D01*
X169593154Y-90857822D01*
X169482818Y-90898975D01*
X169413126Y-90903959D01*
X169392033Y-90897354D01*
X169310078Y-90863407D01*
X169310069Y-90863404D01*
X169121615Y-90825919D01*
X169121612Y-90825919D01*
X167879456Y-90825919D01*
X167879453Y-90825919D01*
X167690998Y-90863405D01*
X167690986Y-90863408D01*
X167513465Y-90936939D01*
X167513463Y-90936940D01*
X167353689Y-91043698D01*
X167353685Y-91043701D01*
X167217816Y-91179570D01*
X167217813Y-91179574D01*
X167111055Y-91339348D01*
X167111054Y-91339350D01*
X167037523Y-91516871D01*
X167037520Y-91516883D01*
X167000034Y-91705336D01*
X130040500Y-91705336D01*
X130040500Y-87105336D01*
X167000034Y-87105336D01*
X167000034Y-87297501D01*
X167037520Y-87485954D01*
X167037523Y-87485966D01*
X167111054Y-87663487D01*
X167111055Y-87663489D01*
X167217813Y-87823263D01*
X167217816Y-87823267D01*
X167353685Y-87959136D01*
X167353689Y-87959139D01*
X167513461Y-88065896D01*
X167513462Y-88065896D01*
X167513463Y-88065897D01*
X167513465Y-88065898D01*
X167690986Y-88139429D01*
X167690991Y-88139431D01*
X167879451Y-88176918D01*
X167879454Y-88176919D01*
X167879456Y-88176919D01*
X169121614Y-88176919D01*
X169121615Y-88176918D01*
X169310077Y-88139431D01*
X169392036Y-88105482D01*
X169461500Y-88098014D01*
X169482819Y-88103862D01*
X169593157Y-88145016D01*
X169593161Y-88145017D01*
X169652689Y-88151418D01*
X169652706Y-88151419D01*
X170100534Y-88151419D01*
X170600534Y-88151419D01*
X171048362Y-88151419D01*
X171048378Y-88151418D01*
X171107906Y-88145017D01*
X171107913Y-88145015D01*
X171242620Y-88094773D01*
X171242627Y-88094769D01*
X171357721Y-88008609D01*
X171357724Y-88008606D01*
X171443884Y-87893512D01*
X171443888Y-87893505D01*
X171494130Y-87758798D01*
X171494132Y-87758791D01*
X171500533Y-87699263D01*
X171500534Y-87699246D01*
X171500534Y-87451419D01*
X170600534Y-87451419D01*
X170600534Y-88151419D01*
X170100534Y-88151419D01*
X170100534Y-87498604D01*
X170166330Y-87480975D01*
X170234739Y-87441479D01*
X170290594Y-87385624D01*
X170330090Y-87317215D01*
X170350534Y-87240915D01*
X170350534Y-87161923D01*
X170330090Y-87085623D01*
X170290594Y-87017214D01*
X170234739Y-86961359D01*
X170217522Y-86951419D01*
X170600534Y-86951419D01*
X171500534Y-86951419D01*
X171500534Y-86703591D01*
X171500533Y-86703574D01*
X171494132Y-86644046D01*
X171494130Y-86644039D01*
X171443888Y-86509332D01*
X171443884Y-86509325D01*
X171357724Y-86394231D01*
X171357721Y-86394228D01*
X171242627Y-86308068D01*
X171242620Y-86308064D01*
X171107913Y-86257822D01*
X171107906Y-86257820D01*
X171048378Y-86251419D01*
X170600534Y-86251419D01*
X170600534Y-86951419D01*
X170217522Y-86951419D01*
X170166330Y-86921863D01*
X170100534Y-86904233D01*
X170100534Y-86251419D01*
X169652689Y-86251419D01*
X169593161Y-86257820D01*
X169593154Y-86257822D01*
X169482818Y-86298975D01*
X169413126Y-86303959D01*
X169392033Y-86297354D01*
X169310078Y-86263407D01*
X169310069Y-86263404D01*
X169121615Y-86225919D01*
X169121612Y-86225919D01*
X167879456Y-86225919D01*
X167879453Y-86225919D01*
X167690998Y-86263405D01*
X167690986Y-86263408D01*
X167513465Y-86336939D01*
X167513463Y-86336940D01*
X167353689Y-86443698D01*
X167353685Y-86443701D01*
X167217816Y-86579570D01*
X167217813Y-86579574D01*
X167111055Y-86739348D01*
X167111054Y-86739350D01*
X167037523Y-86916871D01*
X167037520Y-86916883D01*
X167000034Y-87105336D01*
X130040500Y-87105336D01*
X130040500Y-85824417D01*
X172160446Y-85824417D01*
X172279117Y-85887848D01*
X172464794Y-85944173D01*
X172657887Y-85963190D01*
X172850982Y-85944172D01*
X172897891Y-85929943D01*
X172967758Y-85929319D01*
X173026871Y-85966566D01*
X173056462Y-86029860D01*
X173057887Y-86048603D01*
X173057887Y-86231269D01*
X173064288Y-86290797D01*
X173064290Y-86290804D01*
X173114532Y-86425511D01*
X173114536Y-86425518D01*
X173200696Y-86540612D01*
X173200699Y-86540615D01*
X173315793Y-86626775D01*
X173315800Y-86626779D01*
X173450507Y-86677021D01*
X173450514Y-86677023D01*
X173510042Y-86683424D01*
X173510059Y-86683425D01*
X175847887Y-86683425D01*
X175847887Y-85223425D01*
X173086249Y-85223425D01*
X173019210Y-85203740D01*
X173018819Y-85203425D01*
X173001887Y-85203425D01*
X172934848Y-85183740D01*
X172889093Y-85130936D01*
X172884474Y-85109706D01*
X172877886Y-85106977D01*
X172160446Y-85824417D01*
X130040500Y-85824417D01*
X130040500Y-84973425D01*
X171668121Y-84973425D01*
X171687138Y-85166517D01*
X171743463Y-85352194D01*
X171806894Y-85470864D01*
X172304334Y-84973425D01*
X172304334Y-84973424D01*
X172258585Y-84927675D01*
X172427887Y-84927675D01*
X172427887Y-85019175D01*
X172462902Y-85103710D01*
X172527602Y-85168410D01*
X172612137Y-85203425D01*
X172703637Y-85203425D01*
X172788172Y-85168410D01*
X172852872Y-85103710D01*
X172887887Y-85019175D01*
X172887887Y-84927675D01*
X172852872Y-84843140D01*
X172788172Y-84778440D01*
X172703637Y-84743425D01*
X172612137Y-84743425D01*
X172527602Y-84778440D01*
X172462902Y-84843140D01*
X172427887Y-84927675D01*
X172258585Y-84927675D01*
X171806894Y-84475985D01*
X171743463Y-84594655D01*
X171687138Y-84780332D01*
X171668121Y-84973425D01*
X130040500Y-84973425D01*
X130040500Y-84122432D01*
X172160447Y-84122432D01*
X172877886Y-84839871D01*
X172887097Y-84836056D01*
X172897572Y-84800386D01*
X172950376Y-84754631D01*
X173001887Y-84743425D01*
X173028454Y-84743425D01*
X173059891Y-84726259D01*
X173086249Y-84723425D01*
X175847887Y-84723425D01*
X175847887Y-83263425D01*
X173510042Y-83263425D01*
X173450514Y-83269826D01*
X173450507Y-83269828D01*
X173315800Y-83320070D01*
X173315793Y-83320074D01*
X173200699Y-83406234D01*
X173200696Y-83406237D01*
X173114536Y-83521331D01*
X173114532Y-83521338D01*
X173064290Y-83656045D01*
X173064288Y-83656052D01*
X173057887Y-83715580D01*
X173057887Y-83898246D01*
X173038202Y-83965285D01*
X172985398Y-84011040D01*
X172916240Y-84020984D01*
X172897893Y-84016907D01*
X172850981Y-84002677D01*
X172657887Y-83983659D01*
X172464794Y-84002676D01*
X172279117Y-84059001D01*
X172160447Y-84122432D01*
X130040500Y-84122432D01*
X130040500Y-82505336D01*
X167000034Y-82505336D01*
X167000034Y-82697501D01*
X167037520Y-82885954D01*
X167037523Y-82885966D01*
X167111054Y-83063487D01*
X167111055Y-83063489D01*
X167217813Y-83223263D01*
X167217816Y-83223267D01*
X167353685Y-83359136D01*
X167353689Y-83359139D01*
X167513461Y-83465896D01*
X167513462Y-83465896D01*
X167513463Y-83465897D01*
X167513465Y-83465898D01*
X167647310Y-83521338D01*
X167690991Y-83539431D01*
X167879451Y-83576918D01*
X167879454Y-83576919D01*
X167879456Y-83576919D01*
X169121614Y-83576919D01*
X169121615Y-83576918D01*
X169310077Y-83539431D01*
X169391356Y-83505763D01*
X169460823Y-83498295D01*
X169482140Y-83504143D01*
X169593051Y-83545510D01*
X169593050Y-83545510D01*
X169599978Y-83546254D01*
X169652661Y-83551919D01*
X171048406Y-83551918D01*
X171108017Y-83545510D01*
X171242865Y-83495215D01*
X171358080Y-83408965D01*
X171444330Y-83293750D01*
X171494625Y-83158902D01*
X171501034Y-83099292D01*
X171501033Y-82103547D01*
X171494625Y-82043936D01*
X171444330Y-81909088D01*
X171444329Y-81909087D01*
X171444327Y-81909083D01*
X171358081Y-81793874D01*
X171358078Y-81793871D01*
X171242869Y-81707625D01*
X171242862Y-81707621D01*
X171108016Y-81657327D01*
X171108017Y-81657327D01*
X171048417Y-81650920D01*
X171048415Y-81650919D01*
X171048407Y-81650919D01*
X171048398Y-81650919D01*
X169652663Y-81650919D01*
X169652657Y-81650920D01*
X169593050Y-81657327D01*
X169482141Y-81698694D01*
X169412449Y-81703678D01*
X169391356Y-81697073D01*
X169310081Y-81663408D01*
X169310069Y-81663405D01*
X169121615Y-81625919D01*
X169121612Y-81625919D01*
X167879456Y-81625919D01*
X167879453Y-81625919D01*
X167690998Y-81663405D01*
X167690986Y-81663408D01*
X167513465Y-81736939D01*
X167513463Y-81736940D01*
X167353689Y-81843698D01*
X167353685Y-81843701D01*
X167217816Y-81979570D01*
X167217813Y-81979574D01*
X167111055Y-82139348D01*
X167111054Y-82139350D01*
X167037523Y-82316871D01*
X167037520Y-82316883D01*
X167000034Y-82505336D01*
X130040500Y-82505336D01*
X130040500Y-79122172D01*
X136128344Y-79122172D01*
X136128344Y-80364337D01*
X136165830Y-80552790D01*
X136165833Y-80552802D01*
X136239364Y-80730323D01*
X136239365Y-80730325D01*
X136346123Y-80890099D01*
X136346126Y-80890103D01*
X136481995Y-81025972D01*
X136481999Y-81025975D01*
X136641771Y-81132732D01*
X136641772Y-81132732D01*
X136641773Y-81132733D01*
X136641775Y-81132734D01*
X136819296Y-81206265D01*
X136819301Y-81206267D01*
X137007761Y-81243754D01*
X137007764Y-81243755D01*
X137007766Y-81243755D01*
X137199924Y-81243755D01*
X137199925Y-81243754D01*
X137388387Y-81206267D01*
X137565917Y-81132732D01*
X137725689Y-81025975D01*
X137861564Y-80890100D01*
X137968321Y-80730328D01*
X138041856Y-80552798D01*
X138079344Y-80364333D01*
X138079344Y-79122177D01*
X138079344Y-79122174D01*
X138079343Y-79122172D01*
X140578344Y-79122172D01*
X140578344Y-80364337D01*
X140615830Y-80552790D01*
X140615833Y-80552802D01*
X140689364Y-80730323D01*
X140689365Y-80730325D01*
X140796123Y-80890099D01*
X140796126Y-80890103D01*
X140931995Y-81025972D01*
X140931999Y-81025975D01*
X141091771Y-81132732D01*
X141091772Y-81132732D01*
X141091773Y-81132733D01*
X141091775Y-81132734D01*
X141269296Y-81206265D01*
X141269301Y-81206267D01*
X141457761Y-81243754D01*
X141457764Y-81243755D01*
X141457766Y-81243755D01*
X141649924Y-81243755D01*
X141649925Y-81243754D01*
X141838387Y-81206267D01*
X142015917Y-81132732D01*
X142175689Y-81025975D01*
X142311564Y-80890100D01*
X142418321Y-80730328D01*
X142491856Y-80552798D01*
X142529344Y-80364333D01*
X142529344Y-79122177D01*
X142529344Y-79122174D01*
X142529343Y-79122172D01*
X145028344Y-79122172D01*
X145028344Y-80364337D01*
X145065830Y-80552790D01*
X145065833Y-80552802D01*
X145139364Y-80730323D01*
X145139365Y-80730325D01*
X145246123Y-80890099D01*
X145246126Y-80890103D01*
X145381995Y-81025972D01*
X145381999Y-81025975D01*
X145541771Y-81132732D01*
X145541772Y-81132732D01*
X145541773Y-81132733D01*
X145541775Y-81132734D01*
X145719296Y-81206265D01*
X145719301Y-81206267D01*
X145907761Y-81243754D01*
X145907764Y-81243755D01*
X145907766Y-81243755D01*
X146099924Y-81243755D01*
X146099925Y-81243754D01*
X146288387Y-81206267D01*
X146465917Y-81132732D01*
X146625689Y-81025975D01*
X146761564Y-80890100D01*
X146868321Y-80730328D01*
X146941856Y-80552798D01*
X146979344Y-80364333D01*
X146979344Y-79122177D01*
X146979344Y-79122174D01*
X146979343Y-79122172D01*
X149478344Y-79122172D01*
X149478344Y-80364337D01*
X149515830Y-80552790D01*
X149515833Y-80552802D01*
X149589364Y-80730323D01*
X149589365Y-80730325D01*
X149696123Y-80890099D01*
X149696126Y-80890103D01*
X149831995Y-81025972D01*
X149831999Y-81025975D01*
X149991771Y-81132732D01*
X149991772Y-81132732D01*
X149991773Y-81132733D01*
X149991775Y-81132734D01*
X150169296Y-81206265D01*
X150169301Y-81206267D01*
X150357761Y-81243754D01*
X150357764Y-81243755D01*
X150357766Y-81243755D01*
X150549924Y-81243755D01*
X150549925Y-81243754D01*
X150738387Y-81206267D01*
X150915917Y-81132732D01*
X151075689Y-81025975D01*
X151211564Y-80890100D01*
X151318321Y-80730328D01*
X151391856Y-80552798D01*
X151429344Y-80364333D01*
X151429344Y-79122177D01*
X151429344Y-79122174D01*
X151429343Y-79122172D01*
X153928344Y-79122172D01*
X153928344Y-80364337D01*
X153965830Y-80552790D01*
X153965833Y-80552802D01*
X154039364Y-80730323D01*
X154039365Y-80730325D01*
X154146123Y-80890099D01*
X154146126Y-80890103D01*
X154281995Y-81025972D01*
X154281999Y-81025975D01*
X154441771Y-81132732D01*
X154441772Y-81132732D01*
X154441773Y-81132733D01*
X154441775Y-81132734D01*
X154619296Y-81206265D01*
X154619301Y-81206267D01*
X154807761Y-81243754D01*
X154807764Y-81243755D01*
X154807766Y-81243755D01*
X154999924Y-81243755D01*
X154999925Y-81243754D01*
X155188387Y-81206267D01*
X155365917Y-81132732D01*
X155525689Y-81025975D01*
X155661564Y-80890100D01*
X155768321Y-80730328D01*
X155841856Y-80552798D01*
X155879344Y-80364333D01*
X155879344Y-79122177D01*
X155879344Y-79122174D01*
X155879343Y-79122172D01*
X158378344Y-79122172D01*
X158378344Y-80364337D01*
X158415830Y-80552790D01*
X158415833Y-80552802D01*
X158489364Y-80730323D01*
X158489365Y-80730325D01*
X158596123Y-80890099D01*
X158596126Y-80890103D01*
X158731995Y-81025972D01*
X158731999Y-81025975D01*
X158891771Y-81132732D01*
X158891772Y-81132732D01*
X158891773Y-81132733D01*
X158891775Y-81132734D01*
X159069296Y-81206265D01*
X159069301Y-81206267D01*
X159257761Y-81243754D01*
X159257764Y-81243755D01*
X159257766Y-81243755D01*
X159449924Y-81243755D01*
X159449925Y-81243754D01*
X159638387Y-81206267D01*
X159815917Y-81132732D01*
X159975689Y-81025975D01*
X160111564Y-80890100D01*
X160218321Y-80730328D01*
X160291856Y-80552798D01*
X160329344Y-80364333D01*
X160329344Y-79122177D01*
X160329344Y-79122174D01*
X160329343Y-79122172D01*
X162828344Y-79122172D01*
X162828344Y-80364337D01*
X162865830Y-80552790D01*
X162865833Y-80552802D01*
X162939364Y-80730323D01*
X162939365Y-80730325D01*
X163046123Y-80890099D01*
X163046126Y-80890103D01*
X163181995Y-81025972D01*
X163181999Y-81025975D01*
X163341771Y-81132732D01*
X163341772Y-81132732D01*
X163341773Y-81132733D01*
X163341775Y-81132734D01*
X163519296Y-81206265D01*
X163519301Y-81206267D01*
X163707761Y-81243754D01*
X163707764Y-81243755D01*
X163707766Y-81243755D01*
X163899924Y-81243755D01*
X163899925Y-81243754D01*
X164088387Y-81206267D01*
X164265917Y-81132732D01*
X164425689Y-81025975D01*
X164561564Y-80890100D01*
X164668321Y-80730328D01*
X164741856Y-80552798D01*
X164779344Y-80364333D01*
X164779344Y-79122177D01*
X164779344Y-79122174D01*
X164779343Y-79122172D01*
X164741857Y-78933719D01*
X164741856Y-78933712D01*
X164708188Y-78852432D01*
X164700720Y-78782965D01*
X164706568Y-78761648D01*
X164747935Y-78650738D01*
X164754344Y-78591128D01*
X164754343Y-77195383D01*
X164747935Y-77135772D01*
X164719088Y-77058430D01*
X164719088Y-77058429D01*
X168813587Y-77058429D01*
X168813587Y-77058430D01*
X168834182Y-77293833D01*
X168834184Y-77293843D01*
X168895340Y-77522085D01*
X168895342Y-77522089D01*
X168895343Y-77522093D01*
X168995211Y-77736260D01*
X168995213Y-77736264D01*
X169130747Y-77929825D01*
X169130752Y-77929832D01*
X169297843Y-78096923D01*
X169297849Y-78096928D01*
X169483840Y-78227160D01*
X169527465Y-78281737D01*
X169534659Y-78351235D01*
X169503136Y-78413590D01*
X169483841Y-78430310D01*
X169298168Y-78560320D01*
X169298166Y-78560321D01*
X169131137Y-78727350D01*
X169131132Y-78727356D01*
X168995646Y-78920850D01*
X168995645Y-78920852D01*
X168895816Y-79134937D01*
X168895813Y-79134943D01*
X168838610Y-79348429D01*
X168838610Y-79348430D01*
X169736234Y-79348430D01*
X169703321Y-79405437D01*
X169669246Y-79532604D01*
X169669246Y-79664256D01*
X169703321Y-79791423D01*
X169736234Y-79848430D01*
X168838610Y-79848430D01*
X168895813Y-80061916D01*
X168895816Y-80061922D01*
X168995645Y-80276008D01*
X169131140Y-80469512D01*
X169298163Y-80636535D01*
X169491667Y-80772030D01*
X169705753Y-80871859D01*
X169705762Y-80871863D01*
X169919246Y-80929064D01*
X169919246Y-80031442D01*
X169976253Y-80064355D01*
X170103420Y-80098430D01*
X170235072Y-80098430D01*
X170362239Y-80064355D01*
X170419246Y-80031442D01*
X170419246Y-80929063D01*
X170632729Y-80871863D01*
X170632738Y-80871859D01*
X170846824Y-80772030D01*
X171040328Y-80636535D01*
X171207351Y-80469512D01*
X171342846Y-80276008D01*
X171442675Y-80061922D01*
X171442678Y-80061916D01*
X171499882Y-79848430D01*
X170602258Y-79848430D01*
X170635171Y-79791423D01*
X170669246Y-79664256D01*
X170669246Y-79532604D01*
X170635171Y-79405437D01*
X170602258Y-79348430D01*
X171499882Y-79348430D01*
X171499881Y-79348429D01*
X171442678Y-79134943D01*
X171442675Y-79134937D01*
X171342846Y-78920852D01*
X171342845Y-78920850D01*
X171207359Y-78727356D01*
X171207354Y-78727350D01*
X171040324Y-78560320D01*
X170854651Y-78430309D01*
X170811026Y-78375732D01*
X170803834Y-78306234D01*
X170835356Y-78243879D01*
X170854652Y-78227160D01*
X171040647Y-78096925D01*
X171207741Y-77929831D01*
X171343281Y-77736260D01*
X171443149Y-77522093D01*
X171504309Y-77293838D01*
X171524905Y-77058430D01*
X171504309Y-76823022D01*
X171443149Y-76594767D01*
X171343281Y-76380601D01*
X171333839Y-76367117D01*
X171207742Y-76187030D01*
X171207741Y-76187029D01*
X171085813Y-76065101D01*
X171052330Y-76003781D01*
X171057314Y-75934089D01*
X171099185Y-75878155D01*
X171130161Y-75861240D01*
X171261577Y-75812226D01*
X171376792Y-75725976D01*
X171463042Y-75610761D01*
X171513337Y-75475913D01*
X171519746Y-75416303D01*
X171519745Y-73620558D01*
X171513337Y-73560947D01*
X171509165Y-73549762D01*
X171463043Y-73426101D01*
X171463039Y-73426094D01*
X171376793Y-73310885D01*
X171376790Y-73310882D01*
X171261581Y-73224636D01*
X171261574Y-73224632D01*
X171126728Y-73174338D01*
X171126729Y-73174338D01*
X171067129Y-73167931D01*
X171067127Y-73167930D01*
X171067119Y-73167930D01*
X171067110Y-73167930D01*
X169271375Y-73167930D01*
X169271369Y-73167931D01*
X169211762Y-73174338D01*
X169076917Y-73224632D01*
X169076910Y-73224636D01*
X168961701Y-73310882D01*
X168961698Y-73310885D01*
X168875452Y-73426094D01*
X168875448Y-73426101D01*
X168825154Y-73560947D01*
X168819652Y-73612131D01*
X168818747Y-73620553D01*
X168818746Y-73620565D01*
X168818746Y-75416300D01*
X168818747Y-75416306D01*
X168825154Y-75475913D01*
X168875448Y-75610758D01*
X168875452Y-75610765D01*
X168961698Y-75725974D01*
X168961701Y-75725977D01*
X169076910Y-75812223D01*
X169076917Y-75812227D01*
X169208327Y-75861240D01*
X169264261Y-75903111D01*
X169288678Y-75968575D01*
X169273826Y-76036848D01*
X169252676Y-76065103D01*
X169130749Y-76187030D01*
X168995211Y-76380599D01*
X168995210Y-76380601D01*
X168895344Y-76594765D01*
X168895340Y-76594774D01*
X168834184Y-76823016D01*
X168834182Y-76823026D01*
X168813587Y-77058429D01*
X164719088Y-77058429D01*
X164697641Y-77000926D01*
X164697637Y-77000919D01*
X164611391Y-76885710D01*
X164611388Y-76885707D01*
X164496179Y-76799461D01*
X164496172Y-76799457D01*
X164361326Y-76749163D01*
X164361327Y-76749163D01*
X164301727Y-76742756D01*
X164301725Y-76742755D01*
X164301717Y-76742755D01*
X164301708Y-76742755D01*
X163305973Y-76742755D01*
X163305967Y-76742756D01*
X163246360Y-76749163D01*
X163111515Y-76799457D01*
X163111508Y-76799461D01*
X162996299Y-76885707D01*
X162996296Y-76885710D01*
X162910050Y-77000919D01*
X162910046Y-77000926D01*
X162859752Y-77135772D01*
X162853345Y-77195371D01*
X162853345Y-77195378D01*
X162853344Y-77195390D01*
X162853344Y-78591125D01*
X162853345Y-78591131D01*
X162859752Y-78650738D01*
X162901119Y-78761647D01*
X162906103Y-78831339D01*
X162899499Y-78852431D01*
X162865833Y-78933711D01*
X162865831Y-78933715D01*
X162865829Y-78933719D01*
X162828344Y-79122172D01*
X160329343Y-79122172D01*
X160291857Y-78933719D01*
X160291856Y-78933712D01*
X160258188Y-78852432D01*
X160250720Y-78782965D01*
X160256568Y-78761648D01*
X160297935Y-78650738D01*
X160304344Y-78591128D01*
X160304343Y-77195383D01*
X160297935Y-77135772D01*
X160269088Y-77058430D01*
X160247641Y-77000926D01*
X160247637Y-77000919D01*
X160161391Y-76885710D01*
X160161388Y-76885707D01*
X160046179Y-76799461D01*
X160046172Y-76799457D01*
X159911326Y-76749163D01*
X159911327Y-76749163D01*
X159851727Y-76742756D01*
X159851725Y-76742755D01*
X159851717Y-76742755D01*
X159851708Y-76742755D01*
X158855973Y-76742755D01*
X158855967Y-76742756D01*
X158796360Y-76749163D01*
X158661515Y-76799457D01*
X158661508Y-76799461D01*
X158546299Y-76885707D01*
X158546296Y-76885710D01*
X158460050Y-77000919D01*
X158460046Y-77000926D01*
X158409752Y-77135772D01*
X158403345Y-77195371D01*
X158403345Y-77195378D01*
X158403344Y-77195390D01*
X158403344Y-78591125D01*
X158403345Y-78591131D01*
X158409752Y-78650738D01*
X158451119Y-78761647D01*
X158456103Y-78831339D01*
X158449499Y-78852431D01*
X158415833Y-78933711D01*
X158415831Y-78933715D01*
X158415829Y-78933719D01*
X158378344Y-79122172D01*
X155879343Y-79122172D01*
X155841857Y-78933719D01*
X155841856Y-78933712D01*
X155808188Y-78852432D01*
X155800720Y-78782965D01*
X155806568Y-78761648D01*
X155847935Y-78650738D01*
X155854344Y-78591128D01*
X155854343Y-77195383D01*
X155847935Y-77135772D01*
X155819088Y-77058430D01*
X155797641Y-77000926D01*
X155797637Y-77000919D01*
X155711391Y-76885710D01*
X155711388Y-76885707D01*
X155596179Y-76799461D01*
X155596172Y-76799457D01*
X155461326Y-76749163D01*
X155461327Y-76749163D01*
X155401727Y-76742756D01*
X155401725Y-76742755D01*
X155401717Y-76742755D01*
X155401708Y-76742755D01*
X154405973Y-76742755D01*
X154405967Y-76742756D01*
X154346360Y-76749163D01*
X154211515Y-76799457D01*
X154211508Y-76799461D01*
X154096299Y-76885707D01*
X154096296Y-76885710D01*
X154010050Y-77000919D01*
X154010046Y-77000926D01*
X153959752Y-77135772D01*
X153953345Y-77195371D01*
X153953345Y-77195378D01*
X153953344Y-77195390D01*
X153953344Y-78591125D01*
X153953345Y-78591131D01*
X153959752Y-78650738D01*
X154001119Y-78761647D01*
X154006103Y-78831339D01*
X153999499Y-78852431D01*
X153965833Y-78933711D01*
X153965831Y-78933715D01*
X153965829Y-78933719D01*
X153928344Y-79122172D01*
X151429343Y-79122172D01*
X151391857Y-78933719D01*
X151391856Y-78933712D01*
X151358188Y-78852432D01*
X151350720Y-78782965D01*
X151356568Y-78761648D01*
X151397935Y-78650738D01*
X151404344Y-78591128D01*
X151404343Y-77195383D01*
X151397935Y-77135772D01*
X151369088Y-77058430D01*
X151347641Y-77000926D01*
X151347637Y-77000919D01*
X151261391Y-76885710D01*
X151261388Y-76885707D01*
X151146179Y-76799461D01*
X151146172Y-76799457D01*
X151011326Y-76749163D01*
X151011327Y-76749163D01*
X150951727Y-76742756D01*
X150951725Y-76742755D01*
X150951717Y-76742755D01*
X150951708Y-76742755D01*
X149955973Y-76742755D01*
X149955967Y-76742756D01*
X149896360Y-76749163D01*
X149761515Y-76799457D01*
X149761508Y-76799461D01*
X149646299Y-76885707D01*
X149646296Y-76885710D01*
X149560050Y-77000919D01*
X149560046Y-77000926D01*
X149509752Y-77135772D01*
X149503345Y-77195371D01*
X149503345Y-77195378D01*
X149503344Y-77195390D01*
X149503344Y-78591125D01*
X149503345Y-78591131D01*
X149509752Y-78650738D01*
X149551119Y-78761647D01*
X149556103Y-78831339D01*
X149549499Y-78852431D01*
X149515833Y-78933711D01*
X149515831Y-78933715D01*
X149515829Y-78933719D01*
X149478344Y-79122172D01*
X146979343Y-79122172D01*
X146941857Y-78933719D01*
X146941856Y-78933712D01*
X146908188Y-78852432D01*
X146900720Y-78782965D01*
X146906568Y-78761648D01*
X146947935Y-78650738D01*
X146954344Y-78591128D01*
X146954343Y-77195383D01*
X146947935Y-77135772D01*
X146919088Y-77058430D01*
X146897641Y-77000926D01*
X146897637Y-77000919D01*
X146811391Y-76885710D01*
X146811388Y-76885707D01*
X146696179Y-76799461D01*
X146696172Y-76799457D01*
X146561326Y-76749163D01*
X146561327Y-76749163D01*
X146501727Y-76742756D01*
X146501725Y-76742755D01*
X146501717Y-76742755D01*
X146501708Y-76742755D01*
X145505973Y-76742755D01*
X145505967Y-76742756D01*
X145446360Y-76749163D01*
X145311515Y-76799457D01*
X145311508Y-76799461D01*
X145196299Y-76885707D01*
X145196296Y-76885710D01*
X145110050Y-77000919D01*
X145110046Y-77000926D01*
X145059752Y-77135772D01*
X145053345Y-77195371D01*
X145053345Y-77195378D01*
X145053344Y-77195390D01*
X145053344Y-78591125D01*
X145053345Y-78591131D01*
X145059752Y-78650738D01*
X145101119Y-78761647D01*
X145106103Y-78831339D01*
X145099499Y-78852431D01*
X145065833Y-78933711D01*
X145065831Y-78933715D01*
X145065829Y-78933719D01*
X145028344Y-79122172D01*
X142529343Y-79122172D01*
X142491857Y-78933719D01*
X142491856Y-78933712D01*
X142458188Y-78852432D01*
X142450720Y-78782965D01*
X142456568Y-78761648D01*
X142497935Y-78650738D01*
X142504344Y-78591128D01*
X142504343Y-77195383D01*
X142497935Y-77135772D01*
X142469088Y-77058430D01*
X142447641Y-77000926D01*
X142447637Y-77000919D01*
X142361391Y-76885710D01*
X142361388Y-76885707D01*
X142246179Y-76799461D01*
X142246172Y-76799457D01*
X142111326Y-76749163D01*
X142111327Y-76749163D01*
X142051727Y-76742756D01*
X142051725Y-76742755D01*
X142051717Y-76742755D01*
X142051708Y-76742755D01*
X141055973Y-76742755D01*
X141055967Y-76742756D01*
X140996360Y-76749163D01*
X140861515Y-76799457D01*
X140861508Y-76799461D01*
X140746299Y-76885707D01*
X140746296Y-76885710D01*
X140660050Y-77000919D01*
X140660046Y-77000926D01*
X140609752Y-77135772D01*
X140603345Y-77195371D01*
X140603345Y-77195378D01*
X140603344Y-77195390D01*
X140603344Y-78591125D01*
X140603345Y-78591131D01*
X140609752Y-78650738D01*
X140651119Y-78761647D01*
X140656103Y-78831339D01*
X140649499Y-78852431D01*
X140615833Y-78933711D01*
X140615831Y-78933715D01*
X140615829Y-78933719D01*
X140578344Y-79122172D01*
X138079343Y-79122172D01*
X138041857Y-78933719D01*
X138041856Y-78933712D01*
X138008188Y-78852432D01*
X138000720Y-78782965D01*
X138006568Y-78761648D01*
X138047935Y-78650738D01*
X138054344Y-78591128D01*
X138054343Y-77195383D01*
X138047935Y-77135772D01*
X138019088Y-77058430D01*
X137997641Y-77000926D01*
X137997637Y-77000919D01*
X137911391Y-76885710D01*
X137911388Y-76885707D01*
X137796179Y-76799461D01*
X137796172Y-76799457D01*
X137661326Y-76749163D01*
X137661327Y-76749163D01*
X137601727Y-76742756D01*
X137601725Y-76742755D01*
X137601717Y-76742755D01*
X137601708Y-76742755D01*
X136605973Y-76742755D01*
X136605967Y-76742756D01*
X136546360Y-76749163D01*
X136411515Y-76799457D01*
X136411508Y-76799461D01*
X136296299Y-76885707D01*
X136296296Y-76885710D01*
X136210050Y-77000919D01*
X136210046Y-77000926D01*
X136159752Y-77135772D01*
X136153345Y-77195371D01*
X136153345Y-77195378D01*
X136153344Y-77195390D01*
X136153344Y-78591125D01*
X136153345Y-78591131D01*
X136159752Y-78650738D01*
X136201119Y-78761647D01*
X136206103Y-78831339D01*
X136199499Y-78852431D01*
X136165833Y-78933711D01*
X136165831Y-78933715D01*
X136165829Y-78933719D01*
X136128344Y-79122172D01*
X130040500Y-79122172D01*
X130040500Y-75717553D01*
X130060185Y-75650514D01*
X130112989Y-75604759D01*
X130171988Y-75593779D01*
X130186942Y-75594683D01*
X131329174Y-74452451D01*
X131426432Y-74586317D01*
X131548863Y-74708748D01*
X131682727Y-74806005D01*
X130540495Y-75948237D01*
X130540495Y-75948238D01*
X130728888Y-76095833D01*
X131008421Y-76264816D01*
X131008423Y-76264817D01*
X131306289Y-76398875D01*
X131306300Y-76398879D01*
X131618123Y-76496047D01*
X131939426Y-76554928D01*
X132265465Y-76574649D01*
X132591503Y-76554928D01*
X132912806Y-76496047D01*
X133224629Y-76398879D01*
X133224640Y-76398875D01*
X133522506Y-76264817D01*
X133522508Y-76264816D01*
X133802051Y-76095827D01*
X133990433Y-75948238D01*
X133990433Y-75948237D01*
X132848202Y-74806005D01*
X132982067Y-74708748D01*
X133104498Y-74586317D01*
X133201755Y-74452452D01*
X134343987Y-75594683D01*
X134343988Y-75594683D01*
X134491577Y-75406301D01*
X134660566Y-75126758D01*
X134660567Y-75126756D01*
X134794625Y-74828890D01*
X134794629Y-74828879D01*
X134891797Y-74517056D01*
X134950678Y-74195753D01*
X134970399Y-73869715D01*
X134950678Y-73543676D01*
X134891797Y-73222373D01*
X134794629Y-72910550D01*
X134794625Y-72910539D01*
X134727843Y-72762155D01*
X135810000Y-72762155D01*
X135810000Y-73410000D01*
X136726988Y-73410000D01*
X136694075Y-73467007D01*
X136660000Y-73594174D01*
X136660000Y-73725826D01*
X136694075Y-73852993D01*
X136726988Y-73910000D01*
X135810000Y-73910000D01*
X135810000Y-74557844D01*
X135816401Y-74617372D01*
X135816403Y-74617379D01*
X135866645Y-74752086D01*
X135866649Y-74752093D01*
X135952809Y-74867187D01*
X135952812Y-74867190D01*
X136067906Y-74953350D01*
X136067913Y-74953354D01*
X136202620Y-75003596D01*
X136202627Y-75003598D01*
X136262155Y-75009999D01*
X136262172Y-75010000D01*
X136910000Y-75010000D01*
X136910000Y-74093012D01*
X136967007Y-74125925D01*
X137094174Y-74160000D01*
X137225826Y-74160000D01*
X137352993Y-74125925D01*
X137410000Y-74093012D01*
X137410000Y-75010000D01*
X138057828Y-75010000D01*
X138057844Y-75009999D01*
X138117372Y-75003598D01*
X138117379Y-75003596D01*
X138252086Y-74953354D01*
X138252093Y-74953350D01*
X138367187Y-74867190D01*
X138367190Y-74867187D01*
X138453350Y-74752093D01*
X138453354Y-74752086D01*
X138502422Y-74620529D01*
X138544293Y-74564595D01*
X138609757Y-74540178D01*
X138678030Y-74555030D01*
X138706285Y-74576181D01*
X138828599Y-74698495D01*
X138843242Y-74708748D01*
X139022165Y-74834032D01*
X139022167Y-74834033D01*
X139022170Y-74834035D01*
X139236337Y-74933903D01*
X139464592Y-74995063D01*
X139635319Y-75010000D01*
X139699999Y-75015659D01*
X139700000Y-75015659D01*
X139700001Y-75015659D01*
X139764681Y-75010000D01*
X139935408Y-74995063D01*
X140163663Y-74933903D01*
X140377830Y-74834035D01*
X140571401Y-74698495D01*
X140738495Y-74531401D01*
X140868425Y-74345842D01*
X140923002Y-74302217D01*
X140992500Y-74295023D01*
X141054855Y-74326546D01*
X141071575Y-74345842D01*
X141201500Y-74531395D01*
X141201505Y-74531401D01*
X141368599Y-74698495D01*
X141383242Y-74708748D01*
X141562165Y-74834032D01*
X141562167Y-74834033D01*
X141562170Y-74834035D01*
X141776337Y-74933903D01*
X142004592Y-74995063D01*
X142175319Y-75010000D01*
X142239999Y-75015659D01*
X142240000Y-75015659D01*
X142240001Y-75015659D01*
X142304681Y-75010000D01*
X142475408Y-74995063D01*
X142703663Y-74933903D01*
X142917830Y-74834035D01*
X143111401Y-74698495D01*
X143278495Y-74531401D01*
X143408425Y-74345842D01*
X143463002Y-74302217D01*
X143532500Y-74295023D01*
X143594855Y-74326546D01*
X143611575Y-74345842D01*
X143741500Y-74531395D01*
X143741505Y-74531401D01*
X143908599Y-74698495D01*
X143923242Y-74708748D01*
X144102165Y-74834032D01*
X144102167Y-74834033D01*
X144102170Y-74834035D01*
X144316337Y-74933903D01*
X144544592Y-74995063D01*
X144715319Y-75010000D01*
X144779999Y-75015659D01*
X144780000Y-75015659D01*
X144780001Y-75015659D01*
X144844681Y-75010000D01*
X145015408Y-74995063D01*
X145243663Y-74933903D01*
X145457830Y-74834035D01*
X145651401Y-74698495D01*
X145818495Y-74531401D01*
X145948425Y-74345842D01*
X146003002Y-74302217D01*
X146072500Y-74295023D01*
X146134855Y-74326546D01*
X146151575Y-74345842D01*
X146281500Y-74531395D01*
X146281505Y-74531401D01*
X146448599Y-74698495D01*
X146463242Y-74708748D01*
X146642165Y-74834032D01*
X146642167Y-74834033D01*
X146642170Y-74834035D01*
X146856337Y-74933903D01*
X147084592Y-74995063D01*
X147255319Y-75010000D01*
X147319999Y-75015659D01*
X147320000Y-75015659D01*
X147320001Y-75015659D01*
X147384681Y-75010000D01*
X147555408Y-74995063D01*
X147783663Y-74933903D01*
X147997830Y-74834035D01*
X148191401Y-74698495D01*
X148358495Y-74531401D01*
X148488425Y-74345842D01*
X148543002Y-74302217D01*
X148612500Y-74295023D01*
X148674855Y-74326546D01*
X148691575Y-74345842D01*
X148821500Y-74531395D01*
X148821505Y-74531401D01*
X148988599Y-74698495D01*
X149003242Y-74708748D01*
X149182165Y-74834032D01*
X149182167Y-74834033D01*
X149182170Y-74834035D01*
X149396337Y-74933903D01*
X149624592Y-74995063D01*
X149795319Y-75010000D01*
X149859999Y-75015659D01*
X149860000Y-75015659D01*
X149860001Y-75015659D01*
X149924681Y-75010000D01*
X150095408Y-74995063D01*
X150323663Y-74933903D01*
X150537830Y-74834035D01*
X150731401Y-74698495D01*
X150898495Y-74531401D01*
X151028425Y-74345842D01*
X151083002Y-74302217D01*
X151152500Y-74295023D01*
X151214855Y-74326546D01*
X151231575Y-74345842D01*
X151361500Y-74531395D01*
X151361505Y-74531401D01*
X151528599Y-74698495D01*
X151543242Y-74708748D01*
X151722165Y-74834032D01*
X151722167Y-74834033D01*
X151722170Y-74834035D01*
X151936337Y-74933903D01*
X152164592Y-74995063D01*
X152335319Y-75010000D01*
X152399999Y-75015659D01*
X152400000Y-75015659D01*
X152400001Y-75015659D01*
X152464681Y-75010000D01*
X152635408Y-74995063D01*
X152863663Y-74933903D01*
X153077830Y-74834035D01*
X153271401Y-74698495D01*
X153438495Y-74531401D01*
X153568425Y-74345842D01*
X153623002Y-74302217D01*
X153692500Y-74295023D01*
X153754855Y-74326546D01*
X153771575Y-74345842D01*
X153901500Y-74531395D01*
X153901505Y-74531401D01*
X154068599Y-74698495D01*
X154083242Y-74708748D01*
X154262165Y-74834032D01*
X154262167Y-74834033D01*
X154262170Y-74834035D01*
X154476337Y-74933903D01*
X154704592Y-74995063D01*
X154875319Y-75010000D01*
X154939999Y-75015659D01*
X154940000Y-75015659D01*
X154940001Y-75015659D01*
X155004681Y-75010000D01*
X155175408Y-74995063D01*
X155403663Y-74933903D01*
X155617830Y-74834035D01*
X155811401Y-74698495D01*
X155978495Y-74531401D01*
X156108425Y-74345842D01*
X156163002Y-74302217D01*
X156232500Y-74295023D01*
X156294855Y-74326546D01*
X156311575Y-74345842D01*
X156441500Y-74531395D01*
X156441505Y-74531401D01*
X156608599Y-74698495D01*
X156623242Y-74708748D01*
X156802165Y-74834032D01*
X156802167Y-74834033D01*
X156802170Y-74834035D01*
X157016337Y-74933903D01*
X157244592Y-74995063D01*
X157415319Y-75010000D01*
X157479999Y-75015659D01*
X157480000Y-75015659D01*
X157480001Y-75015659D01*
X157544681Y-75010000D01*
X157715408Y-74995063D01*
X157943663Y-74933903D01*
X158157830Y-74834035D01*
X158351401Y-74698495D01*
X158518495Y-74531401D01*
X158648425Y-74345842D01*
X158703002Y-74302217D01*
X158772500Y-74295023D01*
X158834855Y-74326546D01*
X158851575Y-74345842D01*
X158981500Y-74531395D01*
X158981505Y-74531401D01*
X159148599Y-74698495D01*
X159163242Y-74708748D01*
X159342165Y-74834032D01*
X159342167Y-74834033D01*
X159342170Y-74834035D01*
X159556337Y-74933903D01*
X159784592Y-74995063D01*
X159955319Y-75010000D01*
X160019999Y-75015659D01*
X160020000Y-75015659D01*
X160020001Y-75015659D01*
X160084681Y-75010000D01*
X160255408Y-74995063D01*
X160483663Y-74933903D01*
X160697830Y-74834035D01*
X160891401Y-74698495D01*
X161058495Y-74531401D01*
X161194035Y-74337830D01*
X161293903Y-74123663D01*
X161355063Y-73895408D01*
X161375659Y-73660000D01*
X161355063Y-73424592D01*
X161293903Y-73196337D01*
X161194035Y-72982171D01*
X161188425Y-72974158D01*
X161058494Y-72788597D01*
X160891402Y-72621506D01*
X160891395Y-72621501D01*
X160878787Y-72612673D01*
X160816255Y-72568887D01*
X160697834Y-72485967D01*
X160697830Y-72485965D01*
X160626727Y-72452809D01*
X160483663Y-72386097D01*
X160483659Y-72386096D01*
X160483655Y-72386094D01*
X160255413Y-72324938D01*
X160255403Y-72324936D01*
X160020001Y-72304341D01*
X160019999Y-72304341D01*
X159784596Y-72324936D01*
X159784586Y-72324938D01*
X159556344Y-72386094D01*
X159556335Y-72386098D01*
X159342171Y-72485964D01*
X159342169Y-72485965D01*
X159148597Y-72621505D01*
X158981505Y-72788597D01*
X158851575Y-72974158D01*
X158796998Y-73017783D01*
X158727500Y-73024977D01*
X158665145Y-72993454D01*
X158648425Y-72974158D01*
X158518494Y-72788597D01*
X158351402Y-72621506D01*
X158351395Y-72621501D01*
X158338787Y-72612673D01*
X158276255Y-72568887D01*
X158157834Y-72485967D01*
X158157830Y-72485965D01*
X158086727Y-72452809D01*
X157943663Y-72386097D01*
X157943659Y-72386096D01*
X157943655Y-72386094D01*
X157715413Y-72324938D01*
X157715403Y-72324936D01*
X157480001Y-72304341D01*
X157479999Y-72304341D01*
X157244596Y-72324936D01*
X157244586Y-72324938D01*
X157016344Y-72386094D01*
X157016335Y-72386098D01*
X156802171Y-72485964D01*
X156802169Y-72485965D01*
X156608597Y-72621505D01*
X156441505Y-72788597D01*
X156311575Y-72974158D01*
X156256998Y-73017783D01*
X156187500Y-73024977D01*
X156125145Y-72993454D01*
X156108425Y-72974158D01*
X155978494Y-72788597D01*
X155811402Y-72621506D01*
X155811395Y-72621501D01*
X155798787Y-72612673D01*
X155736255Y-72568887D01*
X155617834Y-72485967D01*
X155617830Y-72485965D01*
X155546727Y-72452809D01*
X155403663Y-72386097D01*
X155403659Y-72386096D01*
X155403655Y-72386094D01*
X155175413Y-72324938D01*
X155175403Y-72324936D01*
X154940001Y-72304341D01*
X154939999Y-72304341D01*
X154704596Y-72324936D01*
X154704586Y-72324938D01*
X154476344Y-72386094D01*
X154476335Y-72386098D01*
X154262171Y-72485964D01*
X154262169Y-72485965D01*
X154068597Y-72621505D01*
X153901505Y-72788597D01*
X153771575Y-72974158D01*
X153716998Y-73017783D01*
X153647500Y-73024977D01*
X153585145Y-72993454D01*
X153568425Y-72974158D01*
X153438494Y-72788597D01*
X153271402Y-72621506D01*
X153271395Y-72621501D01*
X153258787Y-72612673D01*
X153196255Y-72568887D01*
X153077834Y-72485967D01*
X153077830Y-72485965D01*
X153006727Y-72452809D01*
X152863663Y-72386097D01*
X152863659Y-72386096D01*
X152863655Y-72386094D01*
X152635413Y-72324938D01*
X152635403Y-72324936D01*
X152400001Y-72304341D01*
X152399999Y-72304341D01*
X152164596Y-72324936D01*
X152164586Y-72324938D01*
X151936344Y-72386094D01*
X151936335Y-72386098D01*
X151722171Y-72485964D01*
X151722169Y-72485965D01*
X151528597Y-72621505D01*
X151361505Y-72788597D01*
X151231575Y-72974158D01*
X151176998Y-73017783D01*
X151107500Y-73024977D01*
X151045145Y-72993454D01*
X151028425Y-72974158D01*
X150898494Y-72788597D01*
X150731402Y-72621506D01*
X150731395Y-72621501D01*
X150718787Y-72612673D01*
X150656255Y-72568887D01*
X150537834Y-72485967D01*
X150537830Y-72485965D01*
X150466727Y-72452809D01*
X150323663Y-72386097D01*
X150323659Y-72386096D01*
X150323655Y-72386094D01*
X150095413Y-72324938D01*
X150095403Y-72324936D01*
X149860001Y-72304341D01*
X149859999Y-72304341D01*
X149624596Y-72324936D01*
X149624586Y-72324938D01*
X149396344Y-72386094D01*
X149396335Y-72386098D01*
X149182171Y-72485964D01*
X149182169Y-72485965D01*
X148988597Y-72621505D01*
X148821505Y-72788597D01*
X148691575Y-72974158D01*
X148636998Y-73017783D01*
X148567500Y-73024977D01*
X148505145Y-72993454D01*
X148488425Y-72974158D01*
X148358494Y-72788597D01*
X148191402Y-72621506D01*
X148191395Y-72621501D01*
X148178787Y-72612673D01*
X148116255Y-72568887D01*
X147997834Y-72485967D01*
X147997830Y-72485965D01*
X147926727Y-72452809D01*
X147783663Y-72386097D01*
X147783659Y-72386096D01*
X147783655Y-72386094D01*
X147555413Y-72324938D01*
X147555403Y-72324936D01*
X147320001Y-72304341D01*
X147319999Y-72304341D01*
X147084596Y-72324936D01*
X147084586Y-72324938D01*
X146856344Y-72386094D01*
X146856335Y-72386098D01*
X146642171Y-72485964D01*
X146642169Y-72485965D01*
X146448597Y-72621505D01*
X146281505Y-72788597D01*
X146151575Y-72974158D01*
X146096998Y-73017783D01*
X146027500Y-73024977D01*
X145965145Y-72993454D01*
X145948425Y-72974158D01*
X145818494Y-72788597D01*
X145651402Y-72621506D01*
X145651395Y-72621501D01*
X145638787Y-72612673D01*
X145576255Y-72568887D01*
X145457834Y-72485967D01*
X145457830Y-72485965D01*
X145386727Y-72452809D01*
X145243663Y-72386097D01*
X145243659Y-72386096D01*
X145243655Y-72386094D01*
X145015413Y-72324938D01*
X145015403Y-72324936D01*
X144780001Y-72304341D01*
X144779999Y-72304341D01*
X144544596Y-72324936D01*
X144544586Y-72324938D01*
X144316344Y-72386094D01*
X144316335Y-72386098D01*
X144102171Y-72485964D01*
X144102169Y-72485965D01*
X143908597Y-72621505D01*
X143741505Y-72788597D01*
X143611575Y-72974158D01*
X143556998Y-73017783D01*
X143487500Y-73024977D01*
X143425145Y-72993454D01*
X143408425Y-72974158D01*
X143278494Y-72788597D01*
X143111402Y-72621506D01*
X143111395Y-72621501D01*
X143098787Y-72612673D01*
X143036255Y-72568887D01*
X142917834Y-72485967D01*
X142917830Y-72485965D01*
X142846727Y-72452809D01*
X142703663Y-72386097D01*
X142703659Y-72386096D01*
X142703655Y-72386094D01*
X142475413Y-72324938D01*
X142475403Y-72324936D01*
X142240001Y-72304341D01*
X142239999Y-72304341D01*
X142004596Y-72324936D01*
X142004586Y-72324938D01*
X141776344Y-72386094D01*
X141776335Y-72386098D01*
X141562171Y-72485964D01*
X141562169Y-72485965D01*
X141368597Y-72621505D01*
X141201505Y-72788597D01*
X141071575Y-72974158D01*
X141016998Y-73017783D01*
X140947500Y-73024977D01*
X140885145Y-72993454D01*
X140868425Y-72974158D01*
X140738494Y-72788597D01*
X140571402Y-72621506D01*
X140571395Y-72621501D01*
X140558787Y-72612673D01*
X140496255Y-72568887D01*
X140377834Y-72485967D01*
X140377830Y-72485965D01*
X140306727Y-72452809D01*
X140163663Y-72386097D01*
X140163659Y-72386096D01*
X140163655Y-72386094D01*
X139935413Y-72324938D01*
X139935403Y-72324936D01*
X139700001Y-72304341D01*
X139699999Y-72304341D01*
X139464596Y-72324936D01*
X139464586Y-72324938D01*
X139236344Y-72386094D01*
X139236335Y-72386098D01*
X139022171Y-72485964D01*
X139022169Y-72485965D01*
X138828600Y-72621503D01*
X138706284Y-72743819D01*
X138644961Y-72777303D01*
X138575269Y-72772319D01*
X138519336Y-72730447D01*
X138502421Y-72699470D01*
X138453354Y-72567913D01*
X138453350Y-72567906D01*
X138367190Y-72452812D01*
X138367187Y-72452809D01*
X138252093Y-72366649D01*
X138252086Y-72366645D01*
X138117379Y-72316403D01*
X138117372Y-72316401D01*
X138057844Y-72310000D01*
X137410000Y-72310000D01*
X137410000Y-73226988D01*
X137352993Y-73194075D01*
X137225826Y-73160000D01*
X137094174Y-73160000D01*
X136967007Y-73194075D01*
X136910000Y-73226988D01*
X136910000Y-72310000D01*
X136262155Y-72310000D01*
X136202627Y-72316401D01*
X136202620Y-72316403D01*
X136067913Y-72366645D01*
X136067906Y-72366649D01*
X135952812Y-72452809D01*
X135952809Y-72452812D01*
X135866649Y-72567906D01*
X135866645Y-72567913D01*
X135816403Y-72702620D01*
X135816401Y-72702627D01*
X135810000Y-72762155D01*
X134727843Y-72762155D01*
X134660567Y-72612673D01*
X134660566Y-72612671D01*
X134491583Y-72333138D01*
X134343987Y-72144745D01*
X133201755Y-73286977D01*
X133104498Y-73153113D01*
X132982067Y-73030682D01*
X132848201Y-72933424D01*
X133990433Y-71791191D01*
X133988062Y-71751987D01*
X134003663Y-71683881D01*
X134053608Y-71635022D01*
X134111836Y-71620500D01*
X174521125Y-71620500D01*
X174588164Y-71640185D01*
G37*
%TD.AperFunction*%
%TD*%
M02*
